<svg width="33" height="24" viewBox="0 0 33 24" fill="none" xmlns="http://www.w3.org/2000/svg">
<path d="M25.2357 21.453C24.6669 21.453 24.1213 21.227 23.7191 20.8248C23.3169 20.4226 23.0909 19.877 23.0909 19.3082C23.0909 18.7394 23.3169 18.1938 23.7191 17.7916C24.1213 17.3893 24.6669 17.1634 25.2357 17.1634C25.8046 17.1634 26.3501 17.3893 26.7523 17.7916C27.1546 18.1938 27.3805 18.7394 27.3805 19.3082C27.3805 19.877 27.1546 20.4226 26.7523 20.8248C26.3501 21.227 25.8046 21.453 25.2357 21.453ZM27.3805 8.58408L30.1831 12.1588H23.8058V8.58408M8.07713 21.453C7.50829 21.453 6.96274 21.227 6.56051 20.8248C6.15828 20.4226 5.93231 19.877 5.93231 19.3082C5.93231 18.7394 6.15828 18.1938 6.56051 17.7916C6.96274 17.3893 7.50829 17.1634 8.07713 17.1634C8.64597 17.1634 9.19152 17.3893 9.59375 17.7916C9.99598 18.1938 10.222 18.7394 10.222 19.3082C10.222 19.877 9.99598 20.4226 9.59375 20.8248C9.19152 21.227 8.64597 21.453 8.07713 21.453ZM28.0955 6.43926H23.8058V0.719727H3.78748C2.20031 0.719727 0.927719 1.99232 0.927719 3.57949V19.3082H3.78748C3.78748 20.4459 4.23943 21.537 5.04389 22.3414C5.84836 23.1459 6.93945 23.5978 8.07713 23.5978C9.21482 23.5978 10.3059 23.1459 11.1104 22.3414C11.9148 21.537 12.3668 20.4459 12.3668 19.3082H20.9461C20.9461 20.4459 21.398 21.537 22.2025 22.3414C23.0069 23.1459 24.098 23.5978 25.2357 23.5978C26.3734 23.5978 27.4645 23.1459 28.269 22.3414C29.0734 21.537 29.5254 20.4459 29.5254 19.3082H32.3851V12.1588L28.0955 6.43926Z" fill="white"/>
</svg>
