<svg width="22" height="22" viewBox="0 0 22 22" fill="none" xmlns="http://www.w3.org/2000/svg">
<path d="M17.4167 17.5C17.9913 17.5 18.5424 17.7283 18.9487 18.1346C19.3551 18.541 19.5833 19.0921 19.5833 19.6667C19.5833 20.2413 19.3551 20.7924 18.9487 21.1987C18.5424 21.6051 17.9913 21.8334 17.4167 21.8334C16.2142 21.8334 15.25 20.8584 15.25 19.6667C15.25 18.4642 16.2142 17.5 17.4167 17.5ZM0.0833435 0.166687H3.62584L4.64418 2.33335H20.6667C20.954 2.33335 21.2295 2.44749 21.4327 2.65065C21.6359 2.85382 21.75 3.12937 21.75 3.41669C21.75 3.60085 21.6958 3.78502 21.62 3.95835L17.7417 10.9675C17.3733 11.6284 16.6583 12.0834 15.8458 12.0834H7.77501L6.80001 13.8492L6.76751 13.9792C6.76751 14.051 6.79604 14.1199 6.84683 14.1707C6.89763 14.2215 6.96651 14.25 7.03834 14.25H19.5833V16.4167H6.58334C5.38084 16.4167 4.41668 15.4417 4.41668 14.25C4.41668 13.8709 4.51418 13.5134 4.67668 13.21L6.15001 10.5559L2.25001 2.33335H0.0833435V0.166687ZM6.58334 17.5C7.15798 17.5 7.70908 17.7283 8.11541 18.1346C8.52174 18.541 8.75001 19.0921 8.75001 19.6667C8.75001 20.2413 8.52174 20.7924 8.11541 21.1987C7.70908 21.6051 7.15798 21.8334 6.58334 21.8334C5.38084 21.8334 4.41668 20.8584 4.41668 19.6667C4.41668 18.4642 5.38084 17.5 6.58334 17.5ZM16.3333 9.91669L19.345 4.50002H5.65168L8.20834 9.91669H16.3333Z" fill="black"/>
</svg>
