<svg width="46" height="45" viewBox="0 0 46 45" fill="none" xmlns="http://www.w3.org/2000/svg">
<path d="M32.625 33.75C30.5438 33.75 28.875 35.4187 28.875 37.5C28.875 38.4946 29.2701 39.4484 29.9734 40.1517C30.6766 40.8549 31.6304 41.25 32.625 41.25C33.6196 41.25 34.5734 40.8549 35.2767 40.1517C35.9799 39.4484 36.375 38.4946 36.375 37.5C36.375 35.4187 34.6875 33.75 32.625 33.75ZM2.625 3.75V7.5H6.375L13.125 21.7313L10.575 26.325C10.2937 26.85 10.125 27.4687 10.125 28.125C10.125 29.1196 10.5201 30.0734 11.2233 30.7767C11.9266 31.4799 12.8804 31.875 13.875 31.875H36.375V28.125H14.6625C14.5382 28.125 14.419 28.0756 14.331 27.9877C14.2431 27.8998 14.1938 27.7806 14.1938 27.6562C14.1938 27.5625 14.2125 27.4875 14.25 27.4313L15.9375 24.375H29.9063C31.3125 24.375 32.55 23.5875 33.1875 22.4438L39.9 10.3125C40.0312 10.0125 40.125 9.69375 40.125 9.375C40.125 8.87772 39.9275 8.40081 39.5758 8.04918C39.2242 7.69754 38.7473 7.5 38.25 7.5H10.5188L8.75625 3.75M13.875 33.75C11.7937 33.75 10.125 35.4187 10.125 37.5C10.125 38.4946 10.5201 39.4484 11.2233 40.1517C11.9266 40.8549 12.8804 41.25 13.875 41.25C14.8696 41.25 15.8234 40.8549 16.5267 40.1517C17.2299 39.4484 17.625 38.4946 17.625 37.5C17.625 35.4187 15.9375 33.75 13.875 33.75Z" fill="white"/>
</svg>
