<svg width="779" height="519" viewBox="0 0 779 519" fill="none" xmlns="http://www.w3.org/2000/svg">
<path d="M130.37 347.336H102.882V358.951H130.37V347.336Z" fill="#EBEBEB"/>
<path d="M115.036 361.982H87.5491V373.597H115.036V361.982Z" fill="#EBEBEB"/>
<path d="M725.418 187.721H697.93V199.336H725.418V187.721Z" fill="#EBEBEB"/>
<path d="M710.084 202.366H682.597V213.982H710.084V202.366Z" fill="#EBEBEB"/>
<path d="M422.978 156.193H395.49V167.808H422.978V156.193Z" fill="#EBEBEB"/>
<path d="M407.644 170.838H380.157V182.453H407.644V170.838Z" fill="#EBEBEB"/>
<path d="M392.372 156.193H364.885V167.808H392.372V156.193Z" fill="#EBEBEB"/>
<path d="M111.176 180.993H83.6887V192.608H111.176V180.993Z" fill="#EBEBEB"/>
<path d="M95.8427 195.639H68.3554V207.254H95.8427V195.639Z" fill="#EBEBEB"/>
<path d="M80.5696 180.993H53.0823V192.608H80.5696V180.993Z" fill="#EBEBEB"/>
<path d="M613.933 361.982H586.446V373.597H613.933V361.982Z" fill="#EBEBEB"/>
<path d="M598.601 34.5986H571.114V46.2138H598.601V34.5986Z" fill="#EBEBEB"/>
<path d="M613.933 49.2438H586.446V60.859H613.933V49.2438Z" fill="#EBEBEB"/>
<path d="M296.977 34.5986H269.49V46.2138H296.977V34.5986Z" fill="#EBEBEB"/>
<path d="M123.379 50.9627H60.9399V126.7H123.379V50.9627Z" fill="#DBDBDB"/>
<path d="M116.244 57.8758H68.0741V119.788H116.244V57.8758Z" fill="white"/>
<path d="M69.9539 57.8758H68.0741V119.788H69.9539V57.8758Z" fill="#C7C7C7"/>
<path d="M125.259 50.9627H123.379V126.7H125.259V50.9627Z" fill="#C7C7C7"/>
<path d="M93.2345 106.031H104.592V72.1921H93.2345V106.031Z" fill="#DBDBDB"/>
<path d="M79.2625 82.9903H109.548V66.4113H79.2625V82.9903Z" stroke="#EBEBEB" stroke-width="1.038" stroke-miterlimit="10"/>
<path d="M215.676 86.8111H153.237V162.549H215.676V86.8111Z" fill="#DBDBDB"/>
<path d="M208.54 93.7241H160.371V155.637H208.54V93.7241Z" fill="white"/>
<path d="M162.251 93.7241H160.371V155.637H162.251V93.7241Z" fill="#C7C7C7"/>
<path d="M217.555 86.8111H215.676V162.549H217.555V86.8111Z" fill="#C7C7C7"/>
<path d="M189.522 109.728H179.792V134.331H189.522V109.728Z" fill="#EBEBEB"/>
<path d="M199.768 124.68H173.628V141.64H199.768V124.68Z" stroke="#DBDBDB" stroke-width="1.038" stroke-miterlimit="10"/>
<path d="M454.273 490.088C518.637 490.088 570.814 485.239 570.814 479.257C570.814 473.276 518.637 468.427 454.273 468.427C389.91 468.427 337.733 473.276 337.733 479.257C337.733 485.239 389.91 490.088 454.273 490.088Z" fill="#EBEBEB"/>
<path d="M679.216 40.4052H237.314V435.796H679.216V40.4052Z" fill="#455A64"/>
<path d="M669.944 49.6787H246.587V426.524H669.944V49.6787Z" fill="#EBEBEB"/>
<path d="M669.944 126.309H246.587V135.581H669.944V126.309Z" fill="#455A64"/>
<path d="M551.948 372.673H364.582V381.946H551.948V372.673Z" fill="#455A64"/>
<path d="M669.944 199.472H561.222V208.745H669.944V199.472Z" fill="#455A64"/>
<path d="M669.944 269.461H561.222V278.733H669.944V269.461Z" fill="#455A64"/>
<path d="M669.944 344.025H561.222V353.298H669.944V344.025Z" fill="#455A64"/>
<path d="M561.221 426.523V135.581H551.949V426.523H561.221Z" fill="#455A64"/>
<path d="M364.582 426.523L364.582 135.581H355.31L355.31 426.523H364.582Z" fill="#455A64"/>
<path d="M551.948 156.092H364.582V162.056H551.948V156.092Z" fill="#C7C7C7"/>
<path d="M669.944 278.733H561.222V344.025H669.944V278.733Z" fill="#263238"/>
<path d="M668.99 279.76H562.176V299.98H668.99V279.76Z" fill="#455A64"/>
<path d="M668.99 301.184H562.176V321.404H668.99V301.184Z" fill="#455A64"/>
<path d="M668.99 322.607H562.176V342.828H668.99V322.607Z" fill="#455A64"/>
<path d="M631.115 287.545H600.049V292.196H631.115V287.545Z" fill="#EBEBEB"/>
<path d="M631.115 308.969H600.049V313.62H631.115V308.969Z" fill="#EBEBEB"/>
<path d="M631.115 330.392H600.049V335.044H631.115V330.392Z" fill="#EBEBEB"/>
<path d="M355.309 199.472H246.587V208.745H355.309V199.472Z" fill="#455A64"/>
<path d="M355.309 269.461H246.587V278.733H355.309V269.461Z" fill="#455A64"/>
<path d="M355.309 344.025H246.587V353.298H355.309V344.025Z" fill="#455A64"/>
<path d="M355.309 278.733H246.587V344.025H355.309V278.733Z" fill="#263238"/>
<path d="M354.356 279.76H247.541V299.98H354.356V279.76Z" fill="#455A64"/>
<path d="M354.356 301.184H247.541V321.404H354.356V301.184Z" fill="#455A64"/>
<path d="M354.356 322.607H247.541V342.828H354.356V322.607Z" fill="#455A64"/>
<path d="M316.481 287.545H285.415V292.196H316.481V287.545Z" fill="#EBEBEB"/>
<path d="M316.481 308.969H285.415V313.62H316.481V308.969Z" fill="#EBEBEB"/>
<path d="M316.481 330.392H285.415V335.044H316.481V330.392Z" fill="#EBEBEB"/>
<path d="M551.948 381.947H364.582V426.525H551.948V381.947Z" fill="#263238"/>
<path d="M457.549 383.472H366.124V403.693H457.549V383.472Z" fill="#455A64"/>
<path d="M421.775 391.257H401.898V395.909H421.775V391.257Z" fill="#EBEBEB"/>
<path d="M457.549 404.897H366.124V425.117H457.549V404.897Z" fill="#455A64"/>
<path d="M421.775 412.682H401.898V417.333H421.775V412.682Z" fill="#EBEBEB"/>
<path d="M550.406 404.897H458.981V425.117H550.406V404.897Z" fill="#455A64"/>
<path d="M514.632 412.682H494.755V417.333H514.632V412.682Z" fill="#EBEBEB"/>
<path d="M550.406 383.472H458.981V403.693H550.406V383.472Z" fill="#455A64"/>
<path d="M514.632 391.257H494.755V395.909H514.632V391.257Z" fill="#EBEBEB"/>
<path d="M333.34 269.436H259.739C256.565 269.436 253.992 266.863 253.992 263.689C253.992 260.515 256.566 257.943 259.739 257.943H333.34C336.514 257.943 339.087 260.516 339.087 263.689C339.088 266.864 336.514 269.436 333.34 269.436Z" fill="#263238"/>
<path d="M331.114 234.985H271.156C267.369 234.985 264.299 231.914 264.299 228.127V226.046C264.299 222.26 267.369 219.189 271.156 219.189H331.114C334.9 219.189 337.971 222.26 337.971 226.046V228.127C337.971 231.915 334.901 234.985 331.114 234.985Z" fill="#263238"/>
<path d="M334.186 257.943H258.893C256.187 257.943 253.992 255.749 253.992 253.043C253.992 250.336 256.187 248.142 258.893 248.142H334.186C336.892 248.142 339.087 250.337 339.087 253.043C339.088 255.749 336.893 257.943 334.186 257.943Z" fill="#A6A6A6"/>
<path d="M329.349 219.19H267.991C265.284 219.19 263.09 216.996 263.09 214.29C263.09 211.584 265.285 209.39 267.991 209.39H329.35C332.057 209.39 334.251 211.584 334.251 214.29C334.251 216.996 332.056 219.19 329.349 219.19Z" fill="white"/>
<path d="M331.971 248.141H261.109C259.292 248.141 257.819 246.668 257.819 244.852C257.819 243.035 259.292 241.562 261.109 241.562H331.97C333.787 241.562 335.259 243.035 335.259 244.852C335.259 246.669 333.788 248.141 331.971 248.141Z" fill="#FFC727"/>
<path d="M331.971 241.563H261.109C259.292 241.563 257.819 240.09 257.819 238.274C257.819 236.457 259.292 234.985 261.109 234.985H331.97C333.787 234.985 335.259 236.457 335.259 238.274C335.259 240.09 333.788 241.563 331.971 241.563Z" fill="#37474F"/>
<path d="M380.367 126.309H262.009C258.835 126.309 256.262 123.736 256.262 120.563C256.262 117.388 258.836 114.816 262.009 114.816H380.367C383.541 114.816 386.113 117.389 386.113 120.563C386.113 123.736 383.54 126.309 380.367 126.309Z" fill="#A6A6A6"/>
<path d="M373.688 91.8578H268.975C265.188 91.8578 262.118 88.7874 262.118 85.0008V82.9196C262.118 79.133 265.188 76.0626 268.975 76.0626H373.689C377.476 76.0626 380.546 79.133 380.546 82.9196V85.0008C380.546 88.7874 377.476 91.8578 373.688 91.8578Z" fill="white"/>
<path d="M373.401 75.9608H268.686C264.9 75.9608 261.829 72.8904 261.829 69.1038V67.0226C261.829 63.236 264.9 60.1656 268.686 60.1656H373.401C377.187 60.1656 380.258 63.236 380.258 67.0226V69.1038C380.258 72.8904 377.187 75.9608 373.401 75.9608Z" fill="white"/>
<path d="M283.234 75.9608C290.829 75.747 298.425 75.6463 306.02 75.5633L328.806 75.4418L351.592 75.5612L362.985 75.7065L374.379 75.9608L362.985 76.2151L351.592 76.3605L328.806 76.4798L306.02 76.3584C298.424 76.2743 290.829 76.1747 283.234 75.9608Z" fill="#DBDBDB"/>
<path d="M381.213 114.815H261.163C258.457 114.815 256.262 112.621 256.262 109.915C256.262 107.208 258.457 105.014 261.163 105.014H381.213C383.919 105.014 386.113 107.209 386.113 109.915C386.113 112.621 383.919 114.815 381.213 114.815Z" fill="#455A64"/>
<path d="M378.997 105.014H263.378C261.561 105.014 260.089 103.542 260.089 101.725C260.089 99.9085 261.561 98.4356 263.378 98.4356H378.996C380.812 98.4356 382.285 99.9085 382.285 101.725C382.285 103.542 380.813 105.014 378.997 105.014Z" fill="#FFC727"/>
<path d="M378.997 98.4356H263.378C261.561 98.4356 260.089 96.9627 260.089 95.1462C260.089 93.3297 261.561 91.8568 263.378 91.8568H378.996C380.812 91.8568 382.285 93.3297 382.285 95.1462C382.285 96.9627 380.813 98.4356 378.997 98.4356Z" fill="#37474F"/>
<path d="M653.837 269.461H581.053C577.698 269.461 574.978 266.741 574.978 263.386V260.179C574.978 256.824 577.698 254.104 581.053 254.104H653.837C657.192 254.104 659.912 256.824 659.912 260.179V263.386C659.912 266.741 657.192 269.461 653.837 269.461Z" fill="#263238"/>
<path d="M653.364 254.103H581.526C577.91 254.103 574.978 251.172 574.978 247.556C574.978 243.939 577.91 241.008 581.526 241.008H653.364C656.98 241.008 659.912 243.939 659.912 247.556C659.912 251.172 656.98 254.103 653.364 254.103Z" fill="#FFC727"/>
<path d="M647.869 223.427H593.012C589.396 223.427 586.465 220.496 586.465 216.88C586.465 213.263 589.396 210.332 593.012 210.332H647.869C651.485 210.332 654.416 213.263 654.416 216.88C654.417 220.496 651.485 223.427 647.869 223.427Z" fill="#37474F"/>
<path d="M651.697 241.007H583.193C580.766 241.007 578.798 239.039 578.798 236.612C578.798 234.185 580.766 232.217 583.193 232.217H651.697C654.124 232.217 656.092 234.185 656.092 236.612C656.092 239.04 654.124 241.007 651.697 241.007Z" fill="#455A64"/>
<path d="M651.697 232.217H583.193C580.766 232.217 578.798 230.249 578.798 227.822C578.798 225.395 580.766 223.427 583.193 223.427H651.697C654.124 223.427 656.092 225.395 656.092 227.822C656.092 230.25 654.124 232.217 651.697 232.217Z" fill="white"/>
<path d="M562.589 68.7447H482.095V126.309H562.589V68.7447Z" fill="#FFC727"/>
<path opacity="0.1" d="M562.594 68.7457H482.099V83.9409H562.594V68.7457Z" fill="black"/>
<path d="M566.685 64.7484H477.999V76.3428H566.685V64.7484Z" fill="#FFC727"/>
<path d="M532.376 82.2636H512.313V87.8449H532.376V82.2636Z" fill="#263238"/>
<path d="M653.6 68.7447H573.106V126.309H653.6V68.7447Z" fill="#FFC727"/>
<path opacity="0.1" d="M653.605 68.7456H573.11V83.9409H653.605V68.7456Z" fill="black"/>
<path d="M657.695 64.7484H569.01V76.3428H657.695V64.7484Z" fill="#FFC727"/>
<path d="M623.387 82.2636H603.324V87.8449H623.387V82.2636Z" fill="#263238"/>
<path d="M664.357 425.537C661.799 426.421 588.329 427.12 585.51 425.377C584.438 424.721 583 414.015 582.489 401.068L630.567 400.492C630.567 400.492 658.817 412.805 661.703 415.05C664.574 417.294 666.916 424.654 664.357 425.537Z" fill="#FFC727"/>
<path d="M663.276 422.608C650.957 422.423 601.254 422.84 589.063 423.592C588.964 423.598 588.964 423.666 589.064 423.669C601.27 424.12 650.968 423.301 663.278 422.81C663.538 422.8 663.536 422.612 663.276 422.608Z" fill="#263238"/>
<path d="M656.953 412.451C654.031 412.36 651.19 413.775 649.615 415.529C648.1 417.215 646.814 419.577 646.925 422.131C646.928 422.204 647.063 422.204 647.074 422.129C647.731 417.303 652.075 413.027 656.955 412.605C657.053 412.597 657.053 412.455 656.953 412.451Z" fill="#263238"/>
<path d="M635.357 401.671C630.426 401.649 624.728 403.444 621.703 407.504C621.585 407.662 621.811 407.826 621.957 407.749C626.391 405.41 630.611 403.657 635.447 402.277C635.788 402.179 635.711 401.672 635.357 401.671Z" fill="#263238"/>
<path d="M639.176 403.118C634.246 403.096 628.548 404.891 625.523 408.951C625.405 409.108 625.631 409.273 625.777 409.196C630.211 406.857 634.431 405.104 639.267 403.724C639.608 403.626 639.529 403.119 639.176 403.118Z" fill="#263238"/>
<path d="M642.996 404.565C638.066 404.543 632.367 406.338 629.342 410.398C629.225 410.556 629.45 410.72 629.597 410.643C634.031 408.304 638.251 406.551 643.088 405.171C643.427 405.073 643.349 404.567 642.996 404.565Z" fill="#263238"/>
<path d="M646.815 406.012C641.885 405.99 636.187 407.785 633.161 411.845C633.044 412.003 633.269 412.167 633.415 412.09C637.849 409.751 642.068 407.998 646.905 406.618C647.247 406.52 647.169 406.014 646.815 406.012Z" fill="#263238"/>
<path d="M592.089 411.865C586.558 411.933 586.656 420.528 592.196 420.46C597.726 420.391 597.628 411.795 592.089 411.865Z" fill="white"/>
<path d="M640.559 388.466C638.044 386.421 634.921 388.474 633.402 390.636C630.943 394.139 629.278 399.032 629.042 403.284C629.037 403.389 629.117 403.43 629.198 403.423C629.307 403.775 629.727 404.067 630.089 403.812C633.575 401.351 637.608 399.153 640.235 395.694C641.768 393.676 642.937 390.4 640.559 388.466ZM634.61 399C632.925 400.252 631.188 401.414 629.55 402.727C630.407 400.263 631.153 397.774 632.258 395.397C632.786 394.264 633.349 393.108 634.027 392.055C635.083 390.416 639.881 386.25 640.423 391.608C640.722 394.564 636.619 397.507 634.61 399Z" fill="#263238"/>
<path d="M616.813 405.228C621.111 405.847 625.527 404.582 629.737 403.888C630.174 403.816 630.267 403.313 630.097 402.986C630.159 402.934 630.187 402.848 630.11 402.777C626.958 399.913 622.337 397.598 618.127 396.828C615.527 396.354 611.862 397.085 611.507 400.307C611.171 403.353 614.304 404.867 616.813 405.228ZM613.81 402.45C610.434 398.254 616.777 397.852 618.679 398.279C619.902 398.553 621.113 398.98 622.285 399.417C624.74 400.335 627.019 401.584 629.36 402.738C627.271 402.952 625.219 403.343 623.138 403.635C620.66 403.981 615.671 404.764 613.81 402.45Z" fill="#263238"/>
<path opacity="0.2" d="M664.355 425.533C661.804 426.418 588.325 427.122 585.506 425.377C584.443 424.716 582.999 414.02 582.496 401.062L626.424 400.536L665.44 422.97C665.507 424.246 665.194 425.242 664.355 425.533Z" fill="black"/>
<path d="M651.034 425.537C648.475 426.421 575.005 427.12 572.186 425.377C571.114 424.721 569.676 414.015 569.167 401.068L617.245 400.492C617.245 400.492 645.494 412.805 648.38 415.05C651.251 417.294 653.592 424.654 651.034 425.537Z" fill="#FFC727"/>
<path d="M649.952 422.608C637.633 422.423 587.93 422.84 575.739 423.592C575.641 423.598 575.641 423.666 575.74 423.669C587.946 424.12 637.644 423.301 649.954 422.81C650.214 422.8 650.213 422.612 649.952 422.608Z" fill="#263238"/>
<path d="M643.628 412.451C640.706 412.36 637.865 413.775 636.29 415.529C634.775 417.215 633.489 419.577 633.6 422.131C633.604 422.204 633.739 422.204 633.749 422.129C634.406 417.303 638.75 413.027 643.631 412.605C643.729 412.597 643.729 412.455 643.628 412.451Z" fill="#263238"/>
<path d="M622.033 401.671C617.102 401.649 611.404 403.444 608.379 407.504C608.262 407.662 608.487 407.826 608.633 407.749C613.068 405.41 617.287 403.657 622.123 402.277C622.465 402.179 622.386 401.672 622.033 401.671Z" fill="#263238"/>
<path d="M625.853 403.118C620.922 403.096 615.224 404.891 612.199 408.951C612.082 409.108 612.307 409.273 612.453 409.196C616.887 406.857 621.107 405.104 625.943 403.724C626.285 403.626 626.206 403.119 625.853 403.118Z" fill="#263238"/>
<path d="M629.673 404.565C624.742 404.543 619.043 406.338 616.019 410.398C615.901 410.556 616.127 410.72 616.273 410.643C620.707 408.304 624.927 406.551 629.763 405.171C630.103 405.073 630.025 404.567 629.673 404.565Z" fill="#263238"/>
<path d="M633.491 406.012C628.561 405.99 622.862 407.785 619.838 411.845C619.72 412.003 619.945 412.167 620.092 412.09C624.526 409.751 628.746 407.998 633.583 406.618C633.923 406.52 633.844 406.014 633.491 406.012Z" fill="#263238"/>
<path d="M578.765 411.865C573.234 411.933 573.332 420.528 578.872 420.46C584.402 420.391 584.305 411.795 578.765 411.865Z" fill="white"/>
<path d="M627.234 388.466C624.719 386.421 621.596 388.474 620.077 390.636C617.618 394.139 615.953 399.032 615.718 403.284C615.713 403.389 615.792 403.43 615.873 403.423C615.982 403.775 616.402 404.067 616.764 403.812C620.251 401.351 624.283 399.153 626.911 395.694C628.445 393.676 629.613 390.4 627.234 388.466ZM621.287 399C619.601 400.252 617.865 401.414 616.226 402.727C617.084 400.263 617.829 397.774 618.934 395.397C619.462 394.264 620.024 393.108 620.703 392.055C621.759 390.416 626.558 386.25 627.099 391.608C627.398 394.564 623.295 397.507 621.287 399Z" fill="#263238"/>
<path d="M603.489 405.228C607.787 405.847 612.203 404.582 616.413 403.888C616.85 403.816 616.944 403.313 616.773 402.986C616.836 402.934 616.864 402.848 616.786 402.777C613.635 399.913 609.013 397.598 604.803 396.828C602.204 396.354 598.538 397.085 598.183 400.307C597.848 403.353 600.979 404.867 603.489 405.228ZM600.486 402.45C597.111 398.254 603.453 397.852 605.355 398.279C606.578 398.553 607.79 398.98 608.961 399.417C611.417 400.335 613.696 401.584 616.036 402.738C613.947 402.952 611.895 403.343 609.816 403.635C607.336 403.981 602.347 404.764 600.486 402.45Z" fill="#263238"/>
<path d="M353.233 425.954C350.66 426.815 276.988 426.835 274.178 425.06C272.88 424.241 272.221 408.573 271.879 392.035L319.805 391.883L319.588 400.527C319.588 400.527 347.797 413.135 350.671 415.413C353.528 417.691 355.808 425.092 353.233 425.954Z" fill="#FFC727"/>
<path opacity="0.2" d="M343.439 426.383C322.728 426.741 276.393 426.462 274.178 425.063C272.881 424.246 272.221 408.57 271.874 392.033L304.277 391.932L343.439 426.383Z" fill="black"/>
<path d="M352.177 423.008C339.828 422.708 289.988 422.663 277.758 423.306C277.659 423.311 277.659 423.378 277.758 423.384C289.992 423.948 339.83 423.588 352.178 423.21C352.437 423.202 352.437 423.014 352.177 423.008Z" fill="#263238"/>
<path d="M321.327 397.783C316.468 396.878 310.524 397.626 306.811 401.088C306.667 401.222 306.86 401.425 307.018 401.376C311.812 399.864 316.289 398.892 321.308 398.397C321.662 398.363 321.675 397.848 321.327 397.783Z" fill="#263238"/>
<path d="M324.835 399.897C319.975 398.991 314.031 399.739 310.319 403.202C310.175 403.336 310.368 403.538 310.526 403.488C315.321 401.976 319.797 401.004 324.816 400.51C325.17 400.476 325.184 399.961 324.835 399.897Z" fill="#263238"/>
<path d="M328.343 402.009C323.483 401.103 317.54 401.851 313.828 405.314C313.684 405.448 313.877 405.65 314.034 405.601C318.828 404.088 323.306 403.117 328.325 402.623C328.679 402.588 328.692 402.074 328.343 402.009Z" fill="#263238"/>
<path d="M331.852 404.122C326.992 403.216 321.048 403.965 317.336 407.427C317.192 407.561 317.385 407.764 317.543 407.714C322.337 406.202 326.814 405.23 331.833 404.736C332.187 404.702 332.201 404.187 331.852 404.122Z" fill="#263238"/>
<path d="M330.3 386.543C328.39 383.914 324.834 385.097 322.806 386.802C319.52 389.564 316.646 393.877 315.324 397.937C315.291 398.037 315.358 398.098 315.438 398.112C315.452 398.482 315.784 398.873 316.2 398.72C320.212 397.232 324.686 396.14 328.122 393.466C330.13 391.903 332.107 389.03 330.3 386.543ZM321.824 395.22C319.868 395.999 317.885 396.677 315.96 397.529C317.426 395.362 318.79 393.141 320.472 391.123C321.276 390.159 322.118 389.186 323.047 388.34C324.492 387.023 330.216 384.222 329.361 389.554C328.888 392.494 324.154 394.291 321.824 395.22Z" fill="#263238"/>
<path d="M302.973 396.671C306.978 398.377 311.583 398.289 315.843 398.701C316.285 398.744 316.505 398.281 316.425 397.919C316.499 397.885 316.547 397.809 316.491 397.721C314.175 394.135 310.294 390.7 306.411 388.871C304.015 387.742 300.274 387.506 299.1 390.537C297.987 393.402 300.634 395.674 302.973 396.671ZM300.777 393.206C298.587 388.269 304.837 389.514 306.57 390.417C307.684 390.997 308.748 391.724 309.771 392.449C311.915 393.971 313.801 395.768 315.772 397.489C313.692 397.157 311.602 397.009 309.513 396.756C307.021 396.454 301.984 395.927 300.777 393.206Z" fill="#263238"/>
<path d="M330.919 425.954C328.345 426.815 254.673 426.835 251.863 425.06C250.565 424.241 249.906 408.573 249.564 392.035L297.49 391.883L297.273 400.527C297.273 400.527 325.483 413.135 328.356 415.413C331.212 417.691 333.492 425.092 330.919 425.954Z" fill="#FFC727"/>
<path d="M329.861 423.008C317.512 422.708 267.672 422.663 255.442 423.306C255.343 423.311 255.343 423.378 255.442 423.384C267.676 423.948 317.514 423.588 329.862 423.21C330.121 423.202 330.121 423.014 329.861 423.008Z" fill="#263238"/>
<path d="M299.011 397.783C294.152 396.878 288.208 397.626 284.495 401.088C284.351 401.222 284.544 401.425 284.702 401.376C289.496 399.864 293.973 398.892 298.992 398.397C299.346 398.363 299.359 397.848 299.011 397.783Z" fill="#263238"/>
<path d="M302.52 399.897C297.66 398.991 291.716 399.739 288.005 403.202C287.86 403.336 288.053 403.538 288.211 403.488C293.006 401.976 297.483 401.004 302.501 400.51C302.854 400.476 302.868 399.961 302.52 399.897Z" fill="#263238"/>
<path d="M306.028 402.009C301.168 401.103 295.225 401.851 291.513 405.314C291.369 405.448 291.562 405.65 291.72 405.601C296.513 404.088 300.991 403.117 306.01 402.623C306.363 402.588 306.376 402.074 306.028 402.009Z" fill="#263238"/>
<path d="M309.537 404.122C304.677 403.216 298.733 403.965 295.021 407.427C294.877 407.561 295.07 407.764 295.228 407.714C300.023 406.202 304.499 405.23 309.518 404.736C309.871 404.702 309.885 404.187 309.537 404.122Z" fill="#263238"/>
<path d="M307.984 386.543C306.074 383.914 302.518 385.097 300.49 386.802C297.204 389.564 294.33 393.877 293.008 397.937C292.975 398.037 293.042 398.098 293.122 398.112C293.136 398.482 293.469 398.873 293.884 398.72C297.896 397.232 302.37 396.14 305.806 393.466C307.815 391.903 309.791 389.03 307.984 386.543ZM299.508 395.22C297.552 395.999 295.57 396.677 293.644 397.529C295.11 395.362 296.474 393.141 298.156 391.123C298.96 390.159 299.802 389.186 300.731 388.34C302.176 387.023 307.9 384.222 307.045 389.554C306.572 392.494 301.838 394.291 299.508 395.22Z" fill="#263238"/>
<path d="M280.657 396.671C284.662 398.377 289.267 398.289 293.527 398.701C293.969 398.744 294.189 398.281 294.109 397.919C294.183 397.885 294.232 397.809 294.175 397.721C291.859 394.135 287.978 390.7 284.095 388.871C281.699 387.742 277.958 387.506 276.784 390.537C275.672 393.402 278.318 395.674 280.657 396.671ZM278.461 393.206C276.271 388.269 282.521 389.514 284.254 390.417C285.368 390.997 286.432 391.724 287.455 392.449C289.599 393.971 291.485 395.768 293.456 397.489C291.376 397.157 289.286 397.009 287.196 396.756C284.706 396.454 279.668 395.927 278.461 393.206Z" fill="#263238"/>
<path d="M376.38 155.039H375V167.198H376.38V155.039Z" fill="#263238"/>
<path d="M379.739 170.604H371.641L372.76 167.198H378.62L379.739 170.604Z" fill="#FFC727"/>
<path d="M383.144 337.856H368.236V173.396C368.236 171.52 369.756 169.999 371.632 169.999H379.748C381.624 169.999 383.144 171.52 383.144 173.396V337.856Z" fill="#455A64"/>
<path d="M370.167 199.291L370.348 225.373L370.42 251.454L370.543 303.618L370.168 303.243L381.213 303.241L380.835 303.618L380.961 251.454L381.031 225.373L381.213 199.291L381.393 225.373L381.465 251.454L381.59 303.618V303.995H381.213L370.168 303.994H369.792L369.793 303.618L369.916 251.454L369.988 225.373L370.167 199.291Z" fill="#263238"/>
<path d="M393.863 155.039H392.483V167.198H393.863V155.039Z" fill="#263238"/>
<path d="M397.223 170.604H389.124L390.243 167.198H396.104L397.223 170.604Z" fill="#FFC727"/>
<path d="M400.629 304.289H385.72V173.396C385.72 171.52 387.24 169.999 389.116 169.999H397.232C399.108 169.999 400.629 171.52 400.629 173.396V304.289Z" fill="#A6A6A6"/>
<path d="M387.651 199.291C387.778 211.084 387.887 222.877 387.934 234.671L388.029 270.051L387.65 269.672L398.695 269.671L398.316 270.051L398.411 234.671C398.459 222.877 398.567 211.085 398.696 199.291C398.823 211.084 398.932 222.877 398.979 234.671L399.075 270.051L399.076 270.431H398.696L387.651 270.43H387.272L387.273 270.051L387.368 234.671C387.416 222.877 387.525 211.085 387.651 199.291Z" fill="#263238"/>
<path d="M411.347 155.039H409.967V167.198H411.347V155.039Z" fill="#263238"/>
<path d="M414.706 170.604H406.608L407.727 167.198H413.588L414.706 170.604Z" fill="#FFC727"/>
<path d="M418.112 315.477H403.203V173.396C403.203 171.52 404.723 169.999 406.599 169.999H414.715C416.591 169.999 418.112 171.52 418.112 173.396V315.477Z" fill="#FFC727"/>
<path opacity="0.2" d="M418.112 315.477H403.203V173.396C403.203 171.52 404.723 169.999 406.599 169.999H414.715C416.591 169.999 418.112 171.52 418.112 173.396V315.477Z" fill="black"/>
<g opacity="0.2">
<path d="M405.136 186.752C405.23 188.841 405.28 190.932 405.346 193.021C405.422 195.111 405.434 197.201 405.481 199.291C405.512 201.38 405.576 203.471 405.581 205.56L405.619 211.83L405.135 211.345L410.657 211.311L416.179 211.344L415.693 211.83L415.731 205.56C415.735 203.471 415.8 201.38 415.831 199.291C415.878 197.201 415.89 195.111 415.966 193.021C416.034 190.932 416.082 188.841 416.178 186.752C416.273 188.841 416.323 190.932 416.39 193.021C416.465 195.111 416.478 197.201 416.524 199.291C416.556 201.38 416.62 203.471 416.623 205.56L416.661 211.83L416.665 212.313L416.176 212.316L410.654 212.349L405.131 212.315L404.644 212.311L404.647 211.83L404.685 205.56C404.691 203.471 404.754 201.38 404.785 199.291C404.831 197.201 404.844 195.111 404.92 193.021C404.991 190.931 405.04 188.841 405.136 186.752Z" fill="black"/>
</g>
<path d="M428.831 155.039H427.452V167.198H428.831V155.039Z" fill="#263238"/>
<path d="M432.19 170.604H424.092L425.21 167.198H431.071L432.19 170.604Z" fill="#FFC727"/>
<path d="M435.596 326.667H420.687V173.396C420.687 171.52 422.208 169.999 424.083 169.999H432.199C434.075 169.999 435.596 171.52 435.596 173.396V326.667Z" fill="#455A64"/>
<path d="M435.593 173.666V174.471H420.689V173.666C420.689 173.554 420.689 173.453 420.711 173.352H435.57C435.593 173.453 435.593 173.554 435.593 173.666Z" fill="#37474F"/>
<path d="M435.593 178.008H420.689V179.127H435.593V178.008Z" fill="#37474F"/>
<path d="M435.593 182.662H420.689V183.781H435.593V182.662Z" fill="#37474F"/>
<path d="M435.593 187.305H420.689V188.424H435.593V187.305Z" fill="#37474F"/>
<path d="M435.593 191.96H420.689V193.079H435.593V191.96Z" fill="#37474F"/>
<path d="M435.593 196.615H420.689V197.734H435.593V196.615Z" fill="#37474F"/>
<path d="M435.593 201.258H420.689V202.377H435.593V201.258Z" fill="#37474F"/>
<path d="M435.593 205.913H420.689V207.032H435.593V205.913Z" fill="#37474F"/>
<path d="M435.593 210.568H420.689V211.687H435.593V210.568Z" fill="#37474F"/>
<path d="M435.593 215.211H420.689V216.33H435.593V215.211Z" fill="#37474F"/>
<path d="M435.593 219.866H420.689V220.985H435.593V219.866Z" fill="#37474F"/>
<path d="M435.593 224.52H420.689V225.639H435.593V224.52Z" fill="#37474F"/>
<path d="M435.593 229.164H420.689V230.283H435.593V229.164Z" fill="#37474F"/>
<path d="M435.593 233.819H420.689V234.938H435.593V233.819Z" fill="#37474F"/>
<path d="M435.593 238.473H420.689V239.592H435.593V238.473Z" fill="#37474F"/>
<path d="M435.593 243.117H420.689V244.236H435.593V243.117Z" fill="#37474F"/>
<path d="M435.593 247.772H420.689V248.891H435.593V247.772Z" fill="#37474F"/>
<path d="M435.593 252.426H420.689V253.545H435.593V252.426Z" fill="#37474F"/>
<path d="M435.593 257.08H420.689V258.199H435.593V257.08Z" fill="#37474F"/>
<path d="M435.593 261.724H420.689V262.843H435.593V261.724Z" fill="#37474F"/>
<path d="M435.593 266.379H420.689V267.498H435.593V266.379Z" fill="#37474F"/>
<path d="M435.593 271.033H420.689V272.152H435.593V271.033Z" fill="#37474F"/>
<path d="M435.593 275.677H420.689V276.796H435.593V275.677Z" fill="#37474F"/>
<path d="M435.593 280.332H420.689V281.451H435.593V280.332Z" fill="#37474F"/>
<path d="M435.593 284.986H420.689V286.105H435.593V284.986Z" fill="#37474F"/>
<path d="M435.593 289.63H420.689V290.749H435.593V289.63Z" fill="#37474F"/>
<path d="M435.593 294.284H420.689V295.403H435.593V294.284Z" fill="#37474F"/>
<path d="M435.593 298.939H420.689V300.058H435.593V298.939Z" fill="#37474F"/>
<path d="M435.593 303.583H420.689V304.702H435.593V303.583Z" fill="#37474F"/>
<path d="M435.593 308.237H420.689V309.356H435.593V308.237Z" fill="#37474F"/>
<path d="M435.593 312.892H420.689V314.011H435.593V312.892Z" fill="#37474F"/>
<path d="M435.593 317.536H420.689V318.655H435.593V317.536Z" fill="#37474F"/>
<path d="M435.593 322.19H420.689V323.309H435.593V322.19Z" fill="#37474F"/>
<path d="M422.619 199.291L422.797 222.575L422.87 245.86L422.992 292.43L422.619 292.055L433.663 292.054L433.288 292.43L433.412 245.86L433.483 222.575L433.663 199.291L433.842 222.575L433.914 245.86L434.039 292.43L434.04 292.804H433.663L422.619 292.803H422.244L422.245 292.43L422.368 245.86L422.44 222.575L422.619 199.291Z" fill="#263238"/>
<path d="M446.314 155.039H444.935V167.198H446.314V155.039Z" fill="#263238"/>
<path d="M449.674 170.604H441.576L442.695 167.198H448.555L449.674 170.604Z" fill="#FFC727"/>
<path d="M453.079 337.856H438.17V173.396C438.17 171.52 439.691 169.999 441.566 169.999H449.682C451.558 169.999 453.079 171.52 453.079 173.396V337.856Z" fill="#C7C7C7"/>
<path d="M440.103 190.953L440.282 217.034L440.354 243.116L440.477 295.28L440.103 294.905L451.147 294.903L450.77 295.28L450.895 243.116L450.965 217.034L451.147 190.953L451.328 217.034L451.399 243.116L451.524 295.28L451.525 295.658H451.147L440.103 295.656H439.726L439.727 295.28L439.85 243.116L439.922 217.034L440.103 190.953Z" fill="#A6A6A6"/>
<path d="M472.977 155.039H471.598V167.198H472.977V155.039Z" fill="#263238"/>
<path d="M476.337 170.604H468.239L469.358 167.198H475.218L476.337 170.604Z" fill="#FFC727"/>
<path d="M479.742 292.577H464.833V173.396C464.833 171.52 466.354 169.999 468.229 169.999H476.345C478.221 169.999 479.742 171.52 479.742 173.396V292.577Z" fill="#263238"/>
<path d="M466.766 199.291C466.889 209.132 466.999 218.973 467.046 228.815C467.132 238.656 467.107 248.497 467.143 258.338L466.766 257.962L477.81 257.961L477.432 258.338L477.529 228.815C477.576 218.973 477.684 209.132 477.81 199.291C477.936 209.132 478.045 218.973 478.091 228.815L478.188 258.338L478.189 258.716H477.81L466.766 258.715H466.388L466.389 258.338C466.425 248.497 466.399 238.656 466.486 228.815C466.531 218.973 466.641 209.132 466.766 199.291Z" fill="#A6A6A6"/>
<path d="M490.461 155.039H489.082V167.198H490.461V155.039Z" fill="#263238"/>
<path d="M493.82 170.604H485.723L486.841 167.198H492.701L493.82 170.604Z" fill="#FFC727"/>
<path d="M497.226 317.1H482.317V173.396C482.317 171.52 483.838 169.999 485.713 169.999H493.83C495.705 169.999 497.226 171.52 497.226 173.396V317.1Z" fill="#FFC727"/>
<path opacity="0.6" d="M497.226 317.1H482.317V173.396C482.317 171.52 483.838 169.999 485.713 169.999H493.83C495.705 169.999 497.226 171.52 497.226 173.396V317.1Z" fill="white"/>
<path d="M484.249 199.291L484.426 220.184L484.499 241.077L484.621 282.861L484.249 282.49L495.293 282.488L494.919 282.861L495.043 241.077L495.115 220.184L495.293 199.291L495.473 220.184L495.544 241.077L495.668 282.861L495.669 283.236L495.293 283.235L484.249 283.234H483.876L483.877 282.861L484 241.077L484.071 220.184L484.249 199.291Z" fill="#FFC727"/>
<path d="M507.944 155.039H506.565V167.198H507.944V155.039Z" fill="#263238"/>
<path d="M511.304 170.604H503.206L504.325 167.198H510.185L511.304 170.604Z" fill="#FFC727"/>
<path d="M514.71 321.407H499.801V173.396C499.801 171.52 501.322 169.999 503.197 169.999H511.314C513.189 169.999 514.71 171.52 514.71 173.396V321.407Z" fill="#A6A6A6"/>
<path d="M501.733 199.291L501.91 221.26L501.983 243.23L502.106 287.17L501.733 286.796L512.777 286.795L512.402 287.17L512.526 243.23L512.598 221.26L512.777 199.291L512.957 221.26L513.028 243.23L513.152 287.17L513.153 287.545L512.777 287.544L501.733 287.543H501.359L501.36 287.17L501.483 243.23L501.554 221.26L501.733 199.291Z" fill="#DBDBDB"/>
<path d="M525.428 155.039H524.049V167.198H525.428V155.039Z" fill="#263238"/>
<path d="M528.787 170.604H520.69L521.809 167.198H527.668L528.787 170.604Z" fill="#FFC727"/>
<path d="M532.193 299.98H517.284V173.396C517.284 171.52 518.805 169.999 520.68 169.999H528.797C530.672 169.999 532.193 171.52 532.193 173.396V299.98Z" fill="white"/>
<path d="M519.216 199.291C519.341 210.366 519.452 221.442 519.497 232.517L519.594 265.744L519.216 265.366L530.26 265.365L529.881 265.744L529.977 232.517C530.024 221.442 530.133 210.366 530.26 199.291C530.387 210.366 530.496 221.442 530.544 232.517L530.639 265.744L530.64 266.122H530.26L519.216 266.121H518.837L518.838 265.744L518.935 232.517C518.981 221.442 519.09 210.366 519.216 199.291Z" fill="#DBDBDB"/>
<path d="M542.911 155.039H541.532V167.198H542.911V155.039Z" fill="#263238"/>
<path d="M546.271 170.604H538.173L539.292 167.198H545.152L546.271 170.604Z" fill="#FFC727"/>
<path d="M549.677 295.852H534.767V173.396C534.767 171.52 536.288 169.999 538.164 169.999H546.28C548.155 169.999 549.676 171.52 549.676 173.396V295.852H549.677Z" fill="#FFC727"/>
<path opacity="0.2" d="M549.677 295.852H534.767V173.396C534.767 171.52 536.288 169.999 538.164 169.999H546.28C548.155 169.999 549.676 171.52 549.676 173.396V295.852H549.677Z" fill="black"/>
<g opacity="0.2">
<path d="M536.7 199.291C536.893 209.678 536.999 220.065 537.075 230.453C537.189 240.84 537.156 251.227 537.203 261.614L536.7 261.111L547.744 261.11L547.24 261.614C547.288 251.227 547.256 240.84 547.369 230.453C547.444 220.065 547.549 209.678 547.744 199.291C547.939 209.678 548.044 220.065 548.12 230.453C548.232 240.84 548.201 251.227 548.248 261.614L548.25 262.119H547.743L536.699 262.118H536.193L536.195 261.614C536.243 251.227 536.21 240.84 536.324 230.453C536.401 220.065 536.507 209.678 536.7 199.291Z" fill="black"/>
</g>
<path d="M549.676 279.504H534.767V283.014H549.676V279.504Z" fill="#FFC727"/>
<path d="M549.676 284.854H534.767V288.364H549.676V284.854Z" fill="#FFC727"/>
<path d="M52.0713 435.796L136.366 435.544L220.66 435.452L389.25 435.278L557.839 435.451L642.134 435.543L726.429 435.796L642.134 436.05L557.839 436.142L389.25 436.314L220.66 436.141L136.366 436.048L52.0713 435.796Z" fill="#263238"/>
<path d="M92.9519 264.995C92.9519 264.995 116.927 261.639 111.322 232.697C111.322 232.697 84.5358 238.71 92.9519 264.995Z" fill="#FFC727"/>
<path opacity="0.1" d="M92.9519 264.995C92.9519 264.995 116.927 261.639 111.322 232.697C111.322 232.697 84.5358 238.71 92.9519 264.995Z" fill="black"/>
<path d="M94.1632 258.954C94.6313 257.49 95.1836 256.053 95.796 254.64C95.8147 254.455 95.8417 254.271 95.8583 254.092C95.8935 253.693 95.9268 253.296 95.9579 252.897C96.0254 252.034 96.0804 251.169 96.1313 250.305C96.233 248.577 96.344 246.846 96.37 245.115C96.371 245.021 96.5153 245.025 96.5164 245.119C96.5319 246.852 96.5579 248.582 96.4904 250.315C96.4572 251.179 96.4074 252.044 96.3503 252.908C96.3378 253.1 96.3222 253.292 96.3087 253.484C97.6488 250.6 99.2712 247.843 101.116 245.264C101.939 244.113 102.806 243.006 103.738 241.94C104.694 240.846 105.703 239.805 106.67 238.722C106.732 238.653 106.836 238.76 106.771 238.828C105.007 240.667 103.55 242.85 102.151 244.971C101.423 246.073 100.735 247.206 100.08 248.356C100.155 248.327 100.229 248.299 100.303 248.268C100.587 248.151 100.871 248.033 101.157 247.923C101.808 247.672 102.461 247.425 103.115 247.182C104.401 246.705 105.689 246.235 106.971 245.748C107.048 245.718 107.101 245.852 107.024 245.882C105.749 246.391 104.488 246.928 103.228 247.472C102.609 247.738 101.99 248.003 101.371 248.271C101.061 248.405 100.747 248.53 100.435 248.657C100.225 248.742 100.02 248.847 99.7985 248.881C99.3148 249.749 98.8352 250.62 98.3951 251.509C97.2855 253.748 96.2984 256.061 95.4649 258.416C95.4067 258.581 95.3496 258.747 95.2925 258.914C95.8842 258.514 96.6399 258.253 97.2575 257.967C98.0827 257.585 98.9121 257.215 99.7383 256.835C101.419 256.063 103.091 255.279 104.702 254.37C104.784 254.323 104.856 254.453 104.773 254.498C103.125 255.398 101.511 256.356 99.8608 257.252C99.0356 257.7 98.2072 258.135 97.3623 258.544C96.6689 258.879 95.8884 259.347 95.1099 259.446C94.3594 261.66 93.7304 263.9 93.5383 266.246C93.2705 269.519 93.3006 272.819 93.2248 276.099C93.2238 276.156 93.1418 276.152 93.1377 276.097C92.8989 273.121 92.765 270.117 92.7515 267.131C92.736 264.289 93.3017 261.648 94.1632 258.954Z" fill="#263238"/>
<path d="M97.8554 241.934C98.0433 243.619 98.2104 245.344 98.0941 247.038C98.091 247.086 98.0235 247.082 98.0215 247.036C97.9249 245.343 97.9104 243.656 97.7132 241.969C97.7028 241.877 97.845 241.84 97.8554 241.934Z" fill="#263238"/>
<path d="M104.71 243.383C105.772 242.932 106.828 242.51 107.794 241.869C107.872 241.817 107.945 241.946 107.865 241.997C106.897 242.6 105.86 243.19 104.751 243.485C104.692 243.499 104.651 243.408 104.71 243.383Z" fill="#263238"/>
<path d="M92.1869 310.943C92.2066 308.293 92.2564 305.645 92.2875 302.995C92.3374 294.197 92.41 285.399 92.5678 276.6C92.6934 269.615 92.8574 262.633 93.0557 255.649C93.0567 255.609 93.0827 255.581 93.1159 255.56C93.1252 253.652 93.1346 251.745 93.146 249.838C93.146 249.79 93.2031 249.767 93.2601 249.768C93.3172 249.769 93.3754 249.794 93.3743 249.842C93.3868 251.752 93.3982 253.663 93.4096 255.574C93.4376 255.596 93.4636 255.62 93.4646 255.656C93.8165 268.086 94.1321 280.519 94.2058 292.953C94.2203 295.48 94.2193 298.009 94.2307 300.536C94.3148 308.643 94.3532 316.749 94.3241 324.856C94.3324 326.146 94.348 327.436 94.3532 328.727C94.3791 336.144 94.2763 343.56 94.2743 350.977C94.2743 351.376 93.8311 351.575 93.3598 351.593C92.8221 351.615 92.2491 351.4 92.2491 350.945C92.246 342.765 92.1931 334.587 92.1941 326.408C92.1671 321.254 92.1474 316.098 92.1869 310.943Z" fill="#263238"/>
<path d="M102.198 302.895C102.198 302.895 113.73 294.351 124.674 300.123C135.619 305.895 137.335 328.15 137.335 328.15C137.335 328.15 121.263 330.448 111.143 320.816C101.391 311.533 102.198 302.895 102.198 302.895Z" fill="#FFC727"/>
<path d="M99.0553 303.422C101.142 302.545 103.466 302.328 105.736 302.55C106.196 302.447 106.684 302.446 107.15 302.412C107.691 302.373 108.233 302.332 108.774 302.291C109.894 302.203 111.016 302.137 112.137 302.053C114.413 301.883 116.694 301.743 118.964 301.515C119.045 301.507 119.062 301.649 118.98 301.659C116.733 301.947 114.496 302.267 112.242 302.494C111.084 302.611 109.924 302.731 108.762 302.814C108.489 302.833 108.205 302.865 107.918 302.896C108.262 302.972 108.605 303.054 108.941 303.149C110.749 303.661 112.492 304.395 114.167 305.273C115.076 305.436 115.978 305.69 116.869 305.9C118.297 306.235 119.717 306.603 121.135 306.975C123.935 307.709 126.706 308.533 129.484 309.343C129.575 309.369 129.533 309.506 129.442 309.483C126.665 308.802 123.874 308.177 121.092 307.516C119.741 307.194 118.386 306.876 117.037 306.544C116.688 306.458 116.333 306.379 115.977 306.299C119.082 308.211 121.876 310.664 124.174 313.425C126.468 316.182 128.295 319.2 129.869 322.409C129.91 322.491 129.794 322.571 129.746 322.488C127.882 319.222 125.538 316.147 122.852 313.441C122.903 313.594 122.954 313.747 123.003 313.901C123.218 314.579 123.43 315.258 123.644 315.938C124.071 317.296 124.503 318.653 124.909 320.016C124.936 320.109 124.799 320.138 124.767 320.052C124.281 318.736 123.82 317.411 123.355 316.088C123.127 315.439 122.898 314.789 122.671 314.14C122.553 313.804 122.438 313.466 122.325 313.128C122.29 313.024 122.249 312.922 122.214 312.819C120.919 311.567 119.557 310.391 118.124 309.333C116.233 307.937 114.167 306.758 112.003 305.824C112.044 306.024 112.079 306.223 112.121 306.414C112.234 306.941 112.351 307.465 112.46 307.992C112.685 309.084 112.898 310.178 113.111 311.272C113.545 313.504 113.814 315.764 114.233 317.997C114.251 318.089 114.113 318.124 114.091 318.032C113.574 315.788 112.907 313.579 112.407 311.329C112.157 310.205 111.904 309.08 111.67 307.952C111.561 307.424 111.456 306.897 111.349 306.37C111.29 306.076 111.222 305.782 111.187 305.488C110.978 305.405 110.773 305.308 110.562 305.229C107.536 304.109 104.192 303.295 100.967 303.915C97.8824 304.507 95.2375 306.576 94.0262 309.477C93.9214 309.728 93.5259 309.571 93.584 309.315C94.2078 306.544 96.5226 304.487 99.0553 303.422Z" fill="#263238"/>
<path d="M116.709 312.925C117.034 314.385 117.358 315.847 117.681 317.308C117.989 318.703 118.37 320.145 118.487 321.571C118.491 321.628 118.409 321.628 118.393 321.582C117.922 320.207 117.694 318.71 117.413 317.288C117.13 315.846 116.847 314.403 116.565 312.96C116.549 312.868 116.688 312.832 116.709 312.925Z" fill="#263238"/>
<path d="M127.862 316.639C129.33 317.383 130.754 318.23 132.287 318.84C132.384 318.879 132.323 319.02 132.227 318.972C130.75 318.236 129.222 317.584 127.827 316.695C127.791 316.672 127.825 316.62 127.862 316.639Z" fill="#263238"/>
<path d="M99.6065 287.204C99.6065 287.204 113.7 288.104 120.256 278.809C126.812 269.515 125.342 256.244 125.342 256.244C125.342 256.244 110.538 258.043 104.658 264.717C98.7782 271.39 99.6065 287.204 99.6065 287.204Z" fill="#FFC727"/>
<path d="M92.9913 301.11C93.4792 299.6 94.0843 298.113 94.6542 296.631C95.2012 295.208 95.7866 293.802 96.4074 292.409C97.6737 289.568 99.0709 286.795 100.632 284.105C101.626 282.392 102.691 280.73 103.79 279.091C103.811 278.841 103.862 278.592 103.9 278.341C103.965 277.905 104.028 277.468 104.097 277.033C104.236 276.14 104.393 275.251 104.541 274.36C104.866 272.414 105.267 270.481 105.577 268.533C105.592 268.441 105.737 268.443 105.723 268.537C105.439 270.459 105.246 272.394 104.977 274.318C104.844 275.264 104.721 276.211 104.577 277.154C104.526 277.496 104.472 277.836 104.418 278.178C106.571 275.041 108.887 272.02 111.389 269.135C111.726 268.745 112.074 268.366 112.417 267.984C112.453 267.876 112.506 267.771 112.548 267.661C112.653 267.393 112.755 267.124 112.854 266.854C113.061 266.296 113.264 265.734 113.465 265.174C113.86 264.07 114.215 262.957 114.514 261.822C114.538 261.731 114.677 261.773 114.654 261.865C114.37 263.021 114.069 264.176 113.731 265.318C113.567 265.87 113.386 266.414 113.192 266.956C113.16 267.047 113.124 267.137 113.091 267.228C114.893 265.264 116.772 263.372 118.669 261.502C118.737 261.436 118.835 261.541 118.77 261.608C115.087 265.379 111.832 269.543 108.783 273.841C109.128 273.731 109.481 273.644 109.827 273.576C110.911 273.366 112.006 273.212 113.103 273.073C115.399 272.781 117.688 272.491 119.975 272.13C120.068 272.116 120.104 272.254 120.01 272.273C117.826 272.703 115.662 273.195 113.493 273.693C112.469 273.928 111.443 274.129 110.412 274.331C109.554 274.5 108.757 274.763 107.937 275.036C107.71 275.363 107.473 275.683 107.249 276.01C106.215 277.517 105.223 279.052 104.25 280.599C104.73 280.504 105.21 280.412 105.689 280.319C106.777 280.107 107.87 279.911 108.964 279.731C111.114 279.377 113.266 279.003 115.389 278.519C115.482 278.499 115.517 278.64 115.425 278.661C113.27 279.167 111.133 279.759 108.995 280.327C107.963 280.603 106.923 280.855 105.88 281.084C105.358 281.199 104.836 281.316 104.313 281.423C104.088 281.468 103.877 281.528 103.679 281.532C101.62 284.87 99.6864 288.288 97.899 291.774C97.1122 293.307 96.3575 294.856 95.6226 296.415C94.869 298.016 94.2245 299.65 93.529 301.273C93.392 301.598 92.8771 301.464 92.9913 301.11Z" fill="#263238"/>
<path d="M107.416 268.718C107.685 267.374 107.97 266.033 108.267 264.695C108.287 264.603 108.425 264.646 108.407 264.738C108.14 266.058 107.886 267.382 107.646 268.708C107.408 270.023 107.217 271.372 106.845 272.657C106.838 272.681 106.801 272.674 106.803 272.649C106.875 271.331 107.158 270.011 107.416 268.718Z" fill="#263238"/>
<path d="M115.638 268.327C116.292 268.001 116.984 267.738 117.664 267.474C118.021 267.336 118.377 267.197 118.733 267.056C118.914 266.983 119.096 266.91 119.278 266.838C119.471 266.76 119.706 266.702 119.872 266.577C119.978 266.497 120.047 266.683 119.941 266.701C119.733 266.735 119.53 266.861 119.339 266.948C119.161 267.028 118.983 267.106 118.805 267.186C118.463 267.339 118.12 267.493 117.777 267.645C117.097 267.946 116.405 268.247 115.695 268.469C115.61 268.494 115.561 268.366 115.638 268.327Z" fill="#263238"/>
<path d="M85.1795 276.123C85.1795 276.123 76.6492 260.189 63.6731 257.722C50.6971 255.255 42.7554 268.605 42.7554 268.605C42.7554 268.605 52.2198 280.693 64.1278 282.802C76.0368 284.912 85.1795 276.123 85.1795 276.123Z" fill="#FFC727"/>
<path d="M54.9766 264.862C58.3387 264.401 61.7818 264.455 65.1532 264.984C64.9591 264.877 64.766 264.77 64.575 264.673C63.6118 264.184 62.6547 263.688 61.6966 263.19C59.7047 262.154 57.69 261.051 55.6036 260.215C55.506 260.176 55.5662 260.038 55.6638 260.083C57.6931 261.029 59.7971 261.821 61.8337 262.757C62.8519 263.225 63.8536 263.713 64.8439 264.238C65.4833 264.578 66.1933 264.899 66.8223 265.304C69.6726 265.889 72.4566 266.795 75.0702 268.045C74.5294 267.456 73.9866 266.869 73.4479 266.278C72.2386 264.954 71.049 263.564 69.7204 262.358C69.6508 262.294 69.7567 262.194 69.8263 262.257C71.185 263.49 72.6174 264.632 73.9347 265.914C74.573 266.536 75.1844 267.181 75.7813 267.844C76.0781 268.175 76.376 268.517 76.6584 268.871C82.302 271.938 87.1017 276.568 90.2686 282.164C92.0685 285.344 93.3245 288.784 94.0553 292.362C94.0739 292.451 93.9442 292.502 93.9172 292.41C92.136 286.395 88.7718 280.743 84.378 276.267C79.6115 271.411 73.589 267.904 66.9936 266.209C63.0772 265.202 59.0279 264.852 54.9953 265.119C54.8282 265.129 54.8147 264.885 54.9766 264.862Z" fill="#263238"/>
<path opacity="0.1" d="M42.7521 268.607C42.7521 268.607 52.2197 280.696 64.1297 282.803C73.2133 284.414 80.6858 279.676 83.7199 277.344L84.3749 276.268C84.3749 276.268 78.232 271.089 66.6116 268.103C54.9912 265.115 42.7521 268.607 42.7521 268.607Z" fill="black"/>
<path d="M62.5125 259.181C63.4986 259.782 64.4774 260.38 65.395 261.084C66.2981 261.775 67.1368 262.528 67.8977 263.374C67.9651 263.449 67.8603 263.544 67.7866 263.48C66.9251 262.731 66.0594 261.983 65.1646 261.274C64.2865 260.578 63.3927 259.889 62.4357 259.306C62.3558 259.257 62.4326 259.133 62.5125 259.181Z" fill="#263238"/>
<path d="M55.3918 261.879C55.8724 262.079 56.3634 262.253 56.844 262.452C57.3256 262.652 57.8073 262.852 58.2889 263.052C58.3917 263.095 58.3439 263.263 58.238 263.22C57.7554 263.024 57.2727 262.829 56.79 262.633C56.3063 262.436 55.834 262.214 55.3493 262.019C55.2631 261.984 55.3057 261.843 55.3918 261.879Z" fill="#263238"/>
<path d="M86.8816 296.173C86.8816 296.173 84.6022 311.977 72.7181 317.507C60.833 323.035 46.3446 317.507 46.3446 317.507C46.3446 317.507 52.0422 283.312 86.8816 296.173Z" fill="#FFC727"/>
<path d="M54.5324 307.226C55.6285 307.102 56.7184 306.915 57.8031 306.717C58.3356 306.619 58.8691 306.519 59.4006 306.414C59.6705 306.362 59.9518 306.297 60.2351 306.247C60.5548 305.949 60.8704 305.645 61.1984 305.356C63.4478 303.373 65.8881 301.616 68.4675 300.087C69.8719 299.254 71.3282 298.508 72.824 297.848C72.7493 297.851 72.6745 297.855 72.5998 297.858C71.2961 297.914 69.9923 297.967 68.6876 298.029C66.078 298.15 63.4706 298.207 60.8642 298.376C60.7697 298.382 60.7749 298.236 60.8683 298.23C63.4851 298.052 66.0874 297.765 68.7011 297.541C69.9685 297.432 71.2348 297.316 72.5022 297.202C73.1551 297.143 73.807 297.088 74.4599 297.032C74.627 297.017 74.7941 296.997 74.9612 296.978C75.6391 296.725 76.3221 296.486 77.0123 296.272C80.2623 295.263 83.7479 294.864 87.0789 295.717C90.0693 296.483 93.0525 298.442 93.8269 301.594C93.8539 301.703 93.6837 301.778 93.638 301.669C92.5232 299.034 89.5991 297.709 86.9605 297.161C85.1866 296.792 83.3701 296.813 81.5785 297.056C81.5048 297.866 81.1996 298.698 80.9785 299.445C80.6495 300.557 80.3256 301.671 79.9883 302.78C79.3146 305 78.5725 307.199 77.9154 309.424C77.8884 309.514 77.7524 309.472 77.7753 309.381C78.3275 307.163 78.7935 304.925 79.3281 302.703C79.5907 301.611 79.8648 300.523 80.1357 299.433C80.309 298.734 80.4543 297.91 80.7346 297.187C79.6893 297.369 78.6565 297.617 77.6497 297.913C75.8238 298.45 74.0239 299.116 72.2635 299.887C72.0891 301.014 71.8379 302.131 71.5794 303.24C71.2545 304.635 70.8923 306.018 70.4511 307.382C70.4231 307.468 70.2996 307.429 70.3183 307.341C70.3359 307.255 70.3536 307.169 70.3712 307.083C70.3722 307.081 70.3733 307.081 70.3743 307.079C70.6411 305.787 70.9255 304.498 71.1985 303.207C71.4186 302.166 71.6199 301.121 71.8462 300.082C70.3702 300.745 68.919 301.47 67.5146 302.276C67.4856 302.598 67.4067 302.928 67.361 303.221C67.2749 303.762 67.1762 304.302 67.0776 304.842C66.8534 306.062 66.6105 307.276 66.3189 308.482C65.7563 310.802 65.1252 313.122 64.275 315.355C64.2927 315.382 64.2989 315.416 64.273 315.447C64.2501 315.473 64.2283 315.5 64.2055 315.526C64.1546 315.586 64.0695 315.516 64.0851 315.452C64.6352 313.11 65.2632 310.789 65.777 308.437C66.0334 307.263 66.2929 306.09 66.5285 304.911C66.6469 304.323 66.7538 303.732 66.8659 303.143C66.897 302.978 66.9219 302.796 66.9479 302.614C65.3442 303.563 63.7913 304.591 62.3205 305.7C59.7846 307.614 57.3557 309.8 55.2372 312.167C55.1521 312.262 54.9839 312.128 55.0628 312.025C55.969 310.834 56.871 309.669 57.8955 308.569C58.4934 307.929 59.1131 307.31 59.7462 306.704C59.6808 306.714 59.6134 306.728 59.549 306.738C58.9927 306.833 58.4342 306.915 57.8747 306.99C56.7755 307.137 55.6731 307.244 54.5718 307.369C54.4753 307.379 54.4389 307.237 54.5324 307.226Z" fill="#263238"/>
<path d="M62.8851 312.585C62.8851 312.584 62.8851 312.584 62.8851 312.585C62.9038 312.447 62.9267 312.31 62.9526 312.175C62.9869 312 63.072 311.833 63.0969 311.658C63.0969 311.655 63.1 311.655 63.1011 311.653C63.346 310.597 63.5526 309.534 63.7436 308.465C63.7571 308.391 63.8754 308.413 63.8723 308.485C63.8214 309.896 63.4727 311.297 62.9682 312.611C62.9526 312.653 62.8768 312.649 62.8841 312.598C62.8841 312.593 62.8851 312.589 62.8851 312.585Z" fill="#263238"/>
<path d="M72.8323 312.331C72.8354 312.287 72.8686 312.266 72.9029 312.265C73.2361 310.865 73.5579 309.465 73.8464 308.056C73.998 307.314 74.1537 306.575 74.2948 305.832C74.3706 305.433 74.4454 305.032 74.5159 304.631C74.5772 304.286 74.6083 303.917 74.7723 303.604C74.8004 303.551 74.8958 303.563 74.9052 303.624C75.0038 304.288 74.7308 305.092 74.6073 305.745C74.462 306.516 74.3115 307.287 74.1423 308.053C73.7976 309.613 73.4074 311.166 72.9672 312.701C72.9423 312.787 72.8032 312.767 72.8095 312.676C72.8167 312.56 72.824 312.446 72.8323 312.331Z" fill="#263238"/>
<path d="M55.616 302.674C57.7865 302.377 59.9559 302.062 62.1305 301.799C62.2219 301.787 62.2603 301.926 62.1658 301.941C59.9985 302.26 57.8228 302.53 55.6513 302.816C55.56 302.828 55.5226 302.687 55.616 302.674Z" fill="#263238"/>
<path d="M92.9705 259.106C92.9705 259.106 100.242 227.2 65.9618 214.289C65.9618 214.289 56.4641 256.286 92.9705 259.106Z" fill="#FFC727"/>
<path d="M85.5706 241.011C85.4419 240.929 85.3174 240.85 85.2032 240.787C84.5544 240.431 83.9109 240.066 83.2652 239.704L79.2887 237.481C76.6719 236.017 74.0893 234.496 71.4549 233.063C71.3718 233.019 71.4497 232.894 71.5317 232.939C74.1703 234.374 76.8556 235.717 79.5108 237.121L83.4407 239.198C83.9752 239.48 84.5108 239.762 85.0454 240.046C83.9015 237.877 82.6809 235.751 81.3377 233.704C79.5461 230.971 77.5832 228.367 75.5394 225.82C75.446 225.704 75.5986 225.553 75.7096 225.658C78.7333 228.551 81.3512 231.86 83.6358 235.376C83.6327 235.264 83.6306 235.151 83.6254 235.044C83.586 234.25 83.5663 233.457 83.5538 232.661C83.531 231.104 83.6057 229.544 83.559 227.989C83.5559 227.895 83.7012 227.899 83.7054 227.993C83.7697 229.525 83.9534 231.053 84.0406 232.585C84.0842 233.35 84.1174 234.114 84.1403 234.879C84.1527 235.292 84.1922 235.763 84.1766 236.217C84.8825 237.34 85.5603 238.479 86.2017 239.636C87.3446 241.694 88.367 243.85 89.2659 246.06C89.3002 245.265 89.3479 244.472 89.3946 243.677C89.4974 241.93 89.7102 240.19 89.7839 238.443C89.788 238.349 89.9323 238.352 89.9302 238.446C89.8939 240.194 89.9749 241.941 89.9209 243.69C89.8939 244.564 89.8669 245.436 89.8098 246.309C89.7891 246.63 89.7725 246.957 89.7496 247.284C90.8416 250.147 91.7198 253.093 92.3384 256.052C93.0069 259.248 93.2788 262.449 93.6151 265.686C93.6172 265.71 93.5809 265.708 93.5788 265.685C93.2788 262.799 92.546 259.884 91.7592 257.094C91.3347 255.588 90.8883 254.09 90.4056 252.604C88.9794 251.932 87.6134 251.094 86.236 250.33C84.8056 249.537 83.367 248.763 81.9335 247.976C79.0748 246.409 76.2193 244.811 73.2683 243.426C73.1832 243.385 73.261 243.263 73.3451 243.301C76.3345 244.655 79.3458 245.942 82.2802 247.416C83.7417 248.149 85.1783 248.933 86.6024 249.737C87.792 250.407 89.0158 251.079 90.1534 251.85C89.8202 250.858 89.4746 249.868 89.0947 248.891C88.0546 246.21 86.8796 243.577 85.5706 241.011Z" fill="#263238"/>
<path d="M88.4604 233.716C88.4677 233.623 88.613 233.626 88.6068 233.719C88.4833 235.54 88.422 237.358 88.229 239.174C88.2186 239.276 88.0639 239.275 88.0681 239.17C88.1314 237.346 88.3265 235.536 88.4604 233.716Z" fill="#263238"/>
<path d="M72.0247 239.809C74.1713 240.673 76.3356 241.494 78.4697 242.388C78.5299 242.412 78.5029 242.509 78.4406 242.485C76.2743 241.674 74.1371 240.79 71.9822 239.949C71.895 239.915 71.9376 239.774 72.0247 239.809Z" fill="#263238"/>
<path d="M68.7675 225.094C70.8653 226.067 72.8998 227.143 74.8637 228.365C74.9633 228.427 74.8689 228.58 74.7671 228.521C72.7783 227.358 70.7542 226.242 68.6907 225.219C68.6056 225.176 68.6834 225.055 68.7675 225.094Z" fill="#263238"/>
<path d="M69.2836 380.21H118.721V328.1H69.2836V380.21Z" fill="#37474F"/>
<path d="M122.125 346.538H119.595V435.796H122.125V346.538Z" fill="#263238"/>
<path d="M68.6782 346.538H66.1486V435.796H68.6782V346.538Z" fill="#263238"/>
<path d="M94.0553 346.538H91.5257V435.796H94.0553V346.538Z" fill="#263238"/>
<path d="M67.4127 384.084H120.859V376.869H67.4127V384.084Z" fill="#263238"/>
<path d="M149.48 437.415H159.95L218.31 260.67H207.84L149.48 437.415Z" fill="#37474F"/>
<path d="M66.2939 437.415H76.7632L107.078 349.908L135.123 260.67H124.653L102.286 333.516L66.2939 437.415Z" fill="#37474F"/>
<path d="M102.286 333.516C103.816 338.763 105.426 344.255 107.078 349.908L135.123 260.67H124.653L102.286 333.516Z" fill="#263238"/>
<path d="M112.545 454.638H236.073L219.858 134.989H96.3295L112.545 454.638Z" fill="#455A64"/>
<path d="M122.854 444.425L227.434 445.38L211.218 144.247L106.638 143.292L122.854 444.425Z" fill="white"/>
<path d="M112.545 454.638H118.034L101.819 134.989H96.3295L112.545 454.638Z" fill="#37474F"/>
<g opacity="0.2">
<path d="M107.4 157.428V157.419L106.636 143.294L133.939 143.543L215.523 224.172L217.806 266.545L107.4 157.428Z" fill="#EBEBEB"/>
<path d="M174.163 444.888L133.194 444.515L122.278 433.724L119.996 391.352L174.163 444.888Z" fill="#EBEBEB"/>
<path d="M221.693 338.818L111.287 229.701L109.892 203.831L220.298 312.957L221.693 338.818Z" fill="#EBEBEB"/>
<path d="M227.432 445.375L203.891 445.156L118.334 360.601L116.94 334.731L227.346 443.857L227.432 445.375Z" fill="#EBEBEB"/>
<path d="M112.051 243.788V243.777L111.831 239.834L222.237 348.951V348.96L222.457 352.914L112.051 243.788Z" fill="#EBEBEB"/>
<path d="M226.602 429.895L116.196 320.769L115.985 316.844L226.391 425.97L226.602 429.895Z" fill="#EBEBEB"/>
<path d="M212.037 159.539L196.433 144.116L200.244 144.153L211.828 155.594V155.605L212.037 159.539Z" fill="#EBEBEB"/>
</g>
<path d="M443.139 409.849C443.139 409.849 446.514 456.666 446.515 456.699C446.562 465.868 446.44 473.907 445.988 478.06C445.989 478.083 445.99 478.105 445.98 478.128C445.811 479.695 445.596 480.696 445.318 480.964C445.296 480.986 445.285 481.009 445.264 481.022C442.544 482.884 369.281 485.393 366.697 484.619C364.102 483.859 366.112 476.42 368.877 474.055C371.665 471.688 399.274 458.184 399.274 458.184L396.353 411.387L443.139 409.849Z" fill="#EB9481"/>
<path d="M366.694 484.619C369.282 485.395 442.54 482.887 445.264 481.018C445.286 481.006 445.298 480.983 445.321 480.96C445.595 480.698 445.811 479.695 445.982 478.134C445.993 478.111 445.993 478.088 445.993 478.065C446.438 473.905 446.563 465.869 446.517 456.704C446.517 456.682 445.936 448.578 445.252 439.105L398.222 441.305L399.271 458.186C399.271 458.186 371.664 471.693 368.882 474.053C366.113 476.424 364.107 483.855 366.694 484.619Z" fill="#EBEBEB"/>
<path d="M366.37 484.741C369.001 485.512 443.406 483.448 446.174 481.549C447.227 480.834 447.468 455.886 445.97 443.248L398.036 445.118C398.036 445.118 398.104 457.973 397.53 458.267C392.822 460.675 371.058 471.856 368.552 474.003C365.756 476.413 363.74 483.971 366.37 484.741Z" fill="#FFC727"/>
<path d="M367.324 481.726C379.777 480.949 430.075 478.988 442.443 479.167C442.544 479.168 442.546 479.236 442.446 479.245C430.121 480.285 379.808 481.838 367.332 481.931C367.068 481.933 367.061 481.743 367.324 481.726Z" fill="#263238"/>
<path d="M373.234 471.149C376.186 470.917 379.127 472.211 380.805 473.91C382.417 475.543 383.832 477.871 383.842 480.46C383.842 480.535 383.705 480.541 383.691 480.465C382.796 475.615 378.196 471.498 373.239 471.305C373.139 471.301 373.133 471.156 373.234 471.149Z" fill="#263238"/>
<path d="M394.562 459.208C399.549 458.951 405.399 460.492 408.653 464.455C408.78 464.609 408.559 464.786 408.408 464.715C403.81 462.561 399.458 460.99 394.499 459.826C394.15 459.744 394.205 459.227 394.562 459.208Z" fill="#263238"/>
<path d="M390.769 460.855C395.755 460.597 401.605 462.139 404.859 466.102C404.985 466.256 404.765 466.433 404.614 466.362C400.017 464.208 395.664 462.638 390.705 461.473C390.357 461.391 390.412 460.874 390.769 460.855Z" fill="#263238"/>
<path d="M386.974 462.503C391.96 462.244 397.81 463.787 401.065 467.75C401.191 467.903 400.97 468.081 400.82 468.009C396.222 465.855 391.87 464.285 386.91 463.12C386.562 463.038 386.617 462.521 386.974 462.503Z" fill="#263238"/>
<path d="M383.18 464.15C388.166 463.892 394.016 465.434 397.271 469.397C397.397 469.551 397.177 469.727 397.026 469.657C392.428 467.502 388.075 465.932 383.116 464.767C382.768 464.685 382.823 464.169 383.18 464.15Z" fill="#263238"/>
<path d="M438.228 448.159C443.826 447.963 444.139 456.662 438.532 456.858C432.934 457.053 432.621 448.354 438.228 448.159Z" fill="#263238"/>
<path d="M389.351 453.394C391.256 455.672 393.777 457.329 396.327 458.886L396.888 459.219C397.942 459.855 398.996 460.49 400 461.126C400.136 461.205 400.269 461.219 400.385 461.181C400.634 461.14 400.81 460.918 400.869 460.682C400.953 460.697 401.035 460.644 401.032 460.544C401.011 460.378 400.989 460.212 400.95 460.029C400.966 459.978 400.964 459.928 400.929 459.863C400.922 459.646 400.882 459.43 400.841 459.215C400.391 456.493 399.385 453.621 398.022 451.092C397.42 449.96 396.736 448.896 396.006 447.95C394.373 445.831 391.11 443.912 388.675 446.105C386.353 448.164 387.688 451.426 389.351 453.394ZM388.956 449.268C389.24 443.82 394.301 447.819 395.452 449.419C396.185 450.447 396.804 451.596 397.389 452.713C397.584 453.091 397.779 453.469 397.941 453.848C398.867 455.738 399.578 457.719 400.356 459.664C400.357 459.68 400.373 459.697 400.374 459.714C400.411 459.812 400.447 459.895 400.483 459.994C400.398 459.929 400.295 459.866 400.21 459.802C400.125 459.737 400.04 459.674 399.955 459.626C399.204 459.082 398.421 458.572 397.638 458.062C396.821 457.537 396.004 457.011 395.186 456.469C393.09 455.064 388.798 452.276 388.956 449.268Z" fill="#263238"/>
<path d="M400.351 461.182C400.368 461.181 400.368 461.181 400.385 461.181C402.143 461.394 403.954 461.689 405.764 461.917C408.36 462.238 410.951 462.409 413.489 461.914C416.011 461.437 419.113 459.756 418.618 456.684C418.101 453.446 414.363 452.876 411.762 453.491C407.952 454.375 403.847 456.554 400.841 459.215C400.678 459.353 400.516 459.509 400.354 459.664C400.338 459.664 400.321 459.681 400.306 459.699L400.208 459.802C400.111 459.888 400.013 459.975 399.916 460.078C399.852 460.146 399.871 460.229 399.939 460.294C399.784 460.632 399.916 461.129 400.351 461.182ZM401.703 460.073C401.452 460.047 401.202 460.038 400.95 460.029C400.866 460.016 400.767 460.001 400.683 460.004C400.765 459.951 400.847 459.916 400.929 459.863H400.945C403.159 458.61 405.339 457.309 407.677 456.303C408.845 455.799 410.049 455.312 411.273 454.974C413.176 454.449 419.603 454.552 416.402 458.971C414.624 461.395 409.535 460.851 407.025 460.61C405.234 460.448 403.476 460.219 401.703 460.073Z" fill="#263238"/>
<path d="M446.601 436.393L394.224 438.547C394.224 438.547 391.8 365.418 392.966 334.652C394.231 301.235 408.587 201.802 408.587 201.802H451.896C451.896 201.802 440.825 301.622 440.59 335.054C440.374 366.048 446.601 436.393 446.601 436.393Z" fill="#263238"/>
<path d="M408.587 201.803L442.003 306.272C445.083 263.676 451.896 201.803 451.896 201.803H408.587Z" fill="#37474F"/>
<path d="M443.675 206.702L440.924 236.384L438.378 266.083C436.746 285.889 435.198 305.699 434.02 325.549C433.731 330.51 433.556 335.494 433.626 340.481C433.732 345.458 433.932 350.427 434.184 355.391C434.695 365.32 435.335 375.238 436.099 385.147C436.851 395.056 439.619 424.235 439.619 424.235C439.619 424.235 437.61 394.998 436.965 385.086C436.339 375.172 435.667 365.261 435.21 355.342C434.975 350.382 434.793 345.423 434.704 340.465C434.65 335.516 434.844 330.568 435.145 325.609C436.228 305.78 437.793 285.966 439.239 266.15L443.675 206.702Z" fill="#37474F"/>
<path d="M395.858 428.721C403.846 428.178 401.546 428.222 409.54 427.768C413.452 427.546 439.16 426.112 442.845 426.546C442.926 426.556 442.933 426.692 442.852 426.709C439.223 427.487 413.496 428.473 409.579 428.619C401.578 428.918 403.872 428.745 395.868 428.955C395.719 428.959 395.708 428.731 395.858 428.721Z" fill="#37474F"/>
<path d="M520.643 383.302C520.643 383.302 544.528 423.711 544.543 423.74C548.67 431.927 552.143 439.179 553.589 443.098C553.6 443.118 553.611 443.138 553.612 443.163C554.159 444.641 554.412 445.632 554.283 445.996C554.273 446.027 554.274 446.051 554.261 446.072C552.656 448.951 488.187 483.843 485.53 484.303C482.867 484.777 481.352 477.224 482.773 473.873C484.214 470.512 502.912 446.119 502.912 446.119L479.445 405.527L520.643 383.302Z" fill="#EB9481"/>
<path d="M485.526 484.303C488.187 483.844 552.652 448.955 554.258 446.067C554.273 446.046 554.273 446.021 554.284 445.99C554.411 445.633 554.158 444.639 553.616 443.165C553.616 443.139 553.606 443.119 553.597 443.098C552.14 439.176 548.672 431.926 544.547 423.742C544.537 423.721 540.406 416.725 535.573 408.551L494.45 431.477L502.911 446.122C502.911 446.122 484.216 470.516 482.777 473.868C481.354 477.226 482.869 484.772 485.526 484.303Z" fill="#EBEBEB"/>
<path d="M485.29 484.556C487.988 484.074 553.679 449.071 555.31 446.138C555.935 445.028 545.034 422.587 538.061 411.941L495.982 434.975C495.982 434.975 501.772 446.452 501.388 446.971C498.247 451.225 483.745 470.933 482.458 473.972C481.029 477.374 482.592 485.038 485.29 484.556Z" fill="#FFC727"/>
<path d="M484.801 481.433C495.602 475.188 539.757 451.019 550.909 445.667C550.999 445.624 551.033 445.684 550.947 445.736C540.376 452.159 496.027 475.97 484.899 481.612C484.664 481.731 484.573 481.565 484.801 481.433Z" fill="#263238"/>
<path d="M485.378 469.33C487.917 467.807 491.128 467.654 493.387 468.428C495.558 469.171 497.862 470.625 499.025 472.938C499.058 473.004 498.939 473.072 498.892 473.009C495.928 469.066 489.978 467.43 485.453 469.467C485.362 469.508 485.291 469.382 485.378 469.33Z" fill="#263238"/>
<path d="M499.151 449.135C503.501 446.683 509.424 445.456 514.104 447.553C514.285 447.634 514.167 447.892 514 447.895C508.924 448.015 504.328 448.549 499.369 449.716C499.022 449.799 498.84 449.311 499.151 449.135Z" fill="#263238"/>
<path d="M496.489 452.301C500.838 449.848 506.762 448.622 511.442 450.719C511.624 450.8 511.506 451.057 511.339 451.061C506.263 451.181 501.666 451.715 496.708 452.881C496.358 452.965 496.177 452.477 496.489 452.301Z" fill="#263238"/>
<path d="M493.826 455.466C498.175 453.013 504.1 451.786 508.779 453.884C508.96 453.965 508.842 454.223 508.675 454.226C503.599 454.346 499.003 454.88 494.044 456.046C493.696 456.129 493.514 455.642 493.826 455.466Z" fill="#263238"/>
<path d="M491.163 458.632C495.512 456.179 501.436 454.953 506.115 457.05C506.297 457.131 506.179 457.387 506.011 457.392C500.936 457.512 496.339 458.046 491.381 459.212C491.032 459.294 490.852 458.807 491.163 458.632Z" fill="#263238"/>
<path d="M533.318 419.786C538.242 417.116 542.4 424.764 537.467 427.439C532.543 430.108 528.386 422.46 533.318 419.786Z" fill="#263238"/>
<path d="M491.895 446.254C494.615 447.443 497.611 447.805 500.588 448.062L501.239 448.111C502.466 448.209 503.692 448.308 504.874 448.432C505.031 448.442 505.156 448.393 505.243 448.309C505.448 448.162 505.507 447.883 505.455 447.646C505.536 447.621 505.586 447.538 505.539 447.45C505.446 447.311 505.352 447.171 505.236 447.025C505.227 446.973 505.204 446.929 505.143 446.886C505.04 446.695 504.908 446.52 504.776 446.344C503.16 444.107 500.979 441.985 498.633 440.328C497.59 439.582 496.503 438.935 495.429 438.413C493.023 437.244 489.247 436.979 488.044 440.029C486.88 442.906 489.529 445.232 491.895 446.254ZM489.703 442.735C487.529 437.732 493.843 439.056 495.586 439.976C496.7 440.571 497.766 441.323 498.787 442.062C499.131 442.314 499.473 442.565 499.787 442.832C501.458 444.111 502.977 445.568 504.54 446.963C504.548 446.977 504.57 446.985 504.578 446.999C504.655 447.072 504.723 447.129 504.8 447.202C504.695 447.182 504.575 447.17 504.47 447.152C504.365 447.132 504.26 447.113 504.163 447.108C503.248 446.956 502.319 446.848 501.391 446.741C500.426 446.634 499.46 446.528 498.487 446.406C495.985 446.083 490.902 445.498 489.703 442.735Z" fill="#263238"/>
<path d="M505.213 448.324C505.228 448.315 505.228 448.315 505.242 448.308C506.911 447.715 508.665 447.171 510.386 446.57C512.853 445.701 515.249 444.699 517.3 443.124C519.345 441.572 521.373 438.686 519.561 436.157C517.655 433.489 514.055 434.645 512 436.353C508.982 438.844 506.278 442.622 504.774 446.344C504.69 446.54 504.614 446.752 504.539 446.963C504.524 446.971 504.517 446.993 504.511 447.016L504.47 447.152C504.421 447.272 504.372 447.394 504.332 447.528C504.305 447.619 504.359 447.684 504.449 447.712C504.461 448.084 504.8 448.47 505.213 448.324ZM505.928 446.728C505.692 446.817 505.464 446.921 505.236 447.024C505.155 447.049 505.059 447.081 504.985 447.121C505.035 447.038 505.093 446.968 505.143 446.885L505.157 446.877C506.581 444.768 507.953 442.632 509.598 440.689C510.42 439.718 511.28 438.745 512.226 437.897C513.695 436.579 519.495 433.807 518.598 439.19C518.087 442.153 513.288 443.933 510.935 444.837C509.258 445.49 507.581 446.069 505.928 446.728Z" fill="#263238"/>
<path d="M407.308 201.761C407.308 201.761 408.575 201.773 408.587 201.806C408.776 202.696 410.537 216.747 413.677 228.816C415.96 237.633 418.309 245.382 419.656 246.185C421.182 247.087 428.618 250.382 431.113 251.417C431.113 251.417 447.839 334.914 456.669 360.806C464.817 384.698 487.836 430.333 487.836 430.333L535.393 404.054C535.393 404.054 508.212 359.031 504.195 347.4C497.969 329.373 473.599 241.351 473.599 241.351C473.599 241.351 473.777 213.793 464.497 201.761H407.308Z" fill="#263238"/>
<path d="M485.798 419.468C492.787 415.563 490.727 416.586 497.759 412.759C501.201 410.886 523.83 398.601 527.346 397.418C527.423 397.392 527.487 397.512 527.422 397.562C524.474 399.816 501.636 411.705 498.159 413.511C491.053 417.201 493.053 416.065 485.908 419.676C485.774 419.742 485.666 419.542 485.798 419.468Z" fill="#37474F"/>
<path d="M461.047 233.685C459.708 233.341 458.275 233.232 456.91 233.016C455.807 232.841 454.707 232.647 453.615 232.406C451.561 231.954 449.482 231.267 447.803 229.958C445.91 228.486 444.948 226.251 444.034 224.103C443.49 222.827 442.93 221.561 442.361 220.297C442.085 219.683 441.808 219.072 441.524 218.463C441.192 217.75 440.735 217.007 440.491 216.262C440.456 216.154 440.28 216.211 440.324 216.312C440.54 216.809 440.631 217.375 440.789 217.897C440.975 218.511 441.15 219.129 441.34 219.743C441.679 220.838 442.011 221.936 442.373 223.024C443.022 224.978 443.599 227.027 444.703 228.785C446.723 232 450.333 233.296 453.943 233.751C454.978 233.882 456.021 233.956 457.063 234.015C458.351 234.088 459.722 234.204 461.006 234.045C461.203 234.02 461.259 233.739 461.047 233.685Z" fill="#37474F"/>
<path d="M415.697 244.213C421.006 246.04 426.129 248.634 431.028 251.354C431.22 251.46 431.094 251.759 430.886 251.669C425.721 249.451 420.455 247.329 415.419 244.83C415.024 244.633 415.29 244.072 415.697 244.213Z" fill="#37474F"/>
<path d="M414.142 208.837C414.156 208.659 414.469 208.619 414.468 208.812C414.427 214.944 414.817 220.338 415.335 226.068C415.575 228.728 417.715 243.431 422.328 242.358C423.1 242.179 423.495 241.418 423.616 240.254C423.761 238.854 423.235 237.137 423.004 235.745C422.492 232.668 422.081 229.581 421.816 226.471C421.323 220.667 421.298 214.864 422.004 209.079C422.027 208.889 422.302 208.904 422.301 209.096C422.294 217.13 422.504 225.148 423.705 233.105C424.283 236.929 426.209 242.685 422.21 243.274C418.135 243.873 415.501 234.23 415.004 231.592C413.616 224.232 413.561 216.285 414.142 208.837Z" fill="#37474F"/>
<path d="M422.205 242.754C422.623 243.741 422.958 244.769 423.243 245.802C423.465 246.603 423.766 247.47 423.674 248.306C423.657 248.468 423.442 248.485 423.354 248.375C422.814 247.689 422.584 246.75 422.282 245.937C421.931 244.995 421.56 244.06 421.236 243.107C421.021 242.476 421.948 242.146 422.205 242.754Z" fill="#37474F"/>
<path d="M523.549 397.502C516.586 384.393 505.643 363.93 502.252 357.447C498.902 351.041 495.593 344.311 493.474 337.421C489.166 323.42 472.749 266.882 469.348 252.634C468.498 249.07 467.567 245.508 466.88 241.908C466.167 238.169 466.382 234.674 466.897 230.928C467.368 227.504 467.501 224.132 466.975 220.704C466.456 217.315 465.609 213.983 464.585 210.714C464.045 208.992 463.46 207.284 462.868 205.579C462.802 205.388 462.507 205.475 462.567 205.67C464.675 212.571 466.832 219.548 466.38 226.857C466.162 230.372 465.232 233.82 465.293 237.356C465.353 240.874 466.278 244.323 467.068 247.73C470.393 262.068 486.663 318.932 490.932 333.015C493.008 339.863 495.988 346.821 498.933 353.359C501.884 359.909 513.035 379.945 520.526 392.744C521.475 394.365 522.434 395.981 523.39 397.6C523.452 397.702 523.605 397.607 523.549 397.502Z" fill="#37474F"/>
<path d="M426.995 153.569C425.529 164.817 416.121 216.817 411.561 220.587C405.779 225.368 374.863 234.689 369.351 232.685C366.206 231.543 363.795 203.536 367.396 201.803C370.747 200.19 392.921 193.426 395.152 192.228C397.828 190.791 405.106 171.849 415.133 149.34C422.275 133.308 428.531 141.777 426.995 153.569Z" fill="#EB9481"/>
<path d="M373.021 197.09L374.863 234.689C374.863 234.689 408.374 226.694 413.792 221.138C418.226 216.591 426.153 174.101 427.953 153.655C429.753 133.211 418.185 137.863 413.4 150.29C408.615 162.716 395.869 189.813 395.239 190.503C394.609 191.193 373.021 197.09 373.021 197.09Z" fill="#FFC727"/>
<path opacity="0.2" d="M373.021 197.09L374.863 234.689C374.863 234.689 408.374 226.694 413.792 221.138C418.226 216.591 426.153 174.101 427.953 153.655C429.753 133.211 418.185 137.863 413.4 150.29C408.615 162.716 395.869 189.813 395.239 190.503C394.609 191.193 373.021 197.09 373.021 197.09Z" fill="black"/>
<path d="M380.691 198.726C380.921 199.952 381.448 211.044 381.512 213.457C381.574 215.872 381.925 225.734 381.782 228.231C381.775 228.342 381.621 228.358 381.606 228.245C381.279 225.777 380.897 215.831 380.783 213.374C380.669 210.917 380.39 199.93 380.526 198.719C380.537 198.615 380.675 198.642 380.691 198.726Z" fill="#263238"/>
<path d="M404.99 225.618L474.581 228.695C475.582 227.464 454.616 150.538 440.993 138.525C437.633 135.562 428.577 132.233 421.299 141.778C408.578 158.467 404.012 224.553 404.99 225.618Z" fill="white"/>
<path d="M438.073 135.612L424.756 176.149L432.542 241.984L477.189 230.078C477.189 230.078 453.639 142.225 438.073 135.612Z" fill="#FFC727"/>
<path opacity="0.2" d="M438.073 135.612L424.756 176.149L432.542 241.984L477.189 230.078C477.189 230.078 453.639 142.225 438.073 135.612Z" fill="black"/>
<path d="M438.073 135.612L438.576 158.66L429.846 169.878L434.979 180.18L430.561 225.241L424.756 176.149L438.073 135.612Z" fill="#FFC727"/>
<path d="M425.947 149.902C430.037 150.023 435.509 142.688 437.162 137.313C437.273 136.944 436.048 133.557 434.756 129.371C433.98 126.828 433.178 123.978 432.633 121.325C432.524 120.78 416.82 128.785 416.82 128.785C416.82 128.785 419.598 134.011 420.52 138.644C420.592 139.032 420.628 139.399 420.629 139.756C420.634 139.807 420.632 139.872 420.642 139.942C420.729 142.079 421.994 149.781 425.947 149.902Z" fill="#EB9481"/>
<path d="M431.624 121.604C431.773 126.249 431.208 137.661 422.368 139.685C421.753 139.827 421.179 139.912 420.646 139.942C420.627 139.868 420.634 139.81 420.63 139.755C420.624 139.396 420.594 139.033 420.525 138.646C419.6 134.006 416.819 128.781 416.819 128.781C416.819 128.781 428.148 123.006 431.624 121.604Z" fill="#263238"/>
<path d="M428.729 101.127C432.184 106.394 434.013 123.99 430.989 128.916C426.605 136.058 416.995 139.427 410.312 133.601C403.835 127.954 401.858 104.979 405.462 100.252C410.771 93.2903 423.626 93.3473 428.729 101.127Z" fill="#EB9481"/>
<path d="M414.706 116.553C414.709 116.507 414.807 116.594 414.813 116.643C414.954 117.827 415.315 119.159 416.44 119.389C416.476 119.396 416.481 119.455 416.44 119.456C415.113 119.47 414.651 117.697 414.706 116.553Z" fill="#263238"/>
<path d="M415.572 115.163C417.444 114.731 418.17 118.51 416.434 118.909C414.727 119.303 414.001 115.524 415.572 115.163Z" fill="#263238"/>
<path d="M408.518 117.76C408.501 117.716 408.437 117.833 408.448 117.88C408.709 119.044 408.813 120.419 407.829 121.011C407.799 121.03 407.813 121.088 407.851 121.074C409.109 120.646 408.952 118.82 408.518 117.76Z" fill="#263238"/>
<path d="M407.239 116.739C405.329 116.957 405.906 120.76 407.676 120.557C409.416 120.359 408.839 116.556 407.239 116.739Z" fill="#263238"/>
<path d="M416.731 113.149C416.191 113.118 415.699 113 415.169 112.915C414.571 112.818 414.084 112.803 413.621 112.372C413.373 112.14 413.362 111.642 413.564 111.381C414.034 110.77 414.797 110.706 415.522 110.793C416.309 110.887 416.891 111.162 417.44 111.73C417.974 112.282 417.442 113.19 416.731 113.149Z" fill="#263238"/>
<path d="M405.413 115.117C405.92 114.932 406.357 114.675 406.839 114.44C407.384 114.174 407.845 114.018 408.162 113.471C408.333 113.177 408.199 112.698 407.93 112.506C407.303 112.058 406.555 112.218 405.886 112.512C405.16 112.831 404.683 113.261 404.322 113.965C403.972 114.647 404.743 115.362 405.413 115.117Z" fill="#263238"/>
<path d="M418.59 126.991C418.363 127.319 418.155 127.75 417.737 127.867C417.336 127.979 416.823 127.888 416.423 127.814C416.383 127.807 416.353 127.854 416.383 127.884C416.774 128.274 417.467 128.433 417.99 128.233C418.502 128.039 418.676 127.531 418.712 127.022C418.718 126.952 418.623 126.943 418.59 126.991Z" fill="#263238"/>
<path d="M416.687 123.723C416.228 124.865 415.371 125.604 414.369 126.007C413.922 126.19 413.435 126.3 412.948 126.347C412.853 126.364 412.757 126.371 412.668 126.368C412.581 126.374 412.502 126.379 412.405 126.379C412.265 126.385 412.167 126.286 412.119 126.162L412.118 126.153C412.111 126.111 412.105 126.075 412.107 126.032C412.107 126.032 412.107 126.032 412.106 126.024L412.086 125.92C411.889 125.024 411.713 123.636 411.713 123.636C411.415 123.865 409.882 124.942 409.818 124.466C409.303 120.524 408.729 116.141 409.049 112.11C409.053 111.977 409.254 111.969 409.269 112.1C409.913 115.868 409.892 119.725 410.479 123.52C410.975 123.214 411.777 122.67 412.25 122.588C412.385 122.6 412.542 125.274 412.662 125.67C412.662 125.67 412.665 125.687 412.678 125.711C414.228 125.615 415.282 124.938 416.557 123.639C416.632 123.556 416.74 123.618 416.687 123.723Z" fill="#263238"/>
<path d="M413.4 125.856C413.4 125.856 414.445 126.736 415.62 126.864C416.053 126.913 416.496 126.867 416.919 126.64C417.787 126.177 417.608 125.322 417.266 124.636C416.985 124.07 416.586 123.622 416.586 123.622C416.586 123.622 415.536 125.207 413.4 125.856Z" fill="#263238"/>
<path d="M415.621 126.864C416.054 126.913 416.498 126.867 416.92 126.64C417.788 126.177 417.609 125.322 417.267 124.636C416.298 124.972 415.476 125.879 415.621 126.864Z" fill="#FF9BBC"/>
<path opacity="0.2" d="M431.934 111.849C430.714 111.561 427.829 108.442 426.581 107.18C425.284 105.87 423.758 98.7397 423.351 96.5973C425.369 97.4308 427.16 98.7792 428.47 100.643C429.962 102.767 431.236 107.195 431.934 111.849Z" fill="#263238"/>
<path d="M410.616 105.073C412.132 106.306 414.184 106.715 416.043 106.069C417.853 105.44 419.476 103.828 419.827 101.905C419.838 101.848 419.927 101.864 419.917 101.921C419.541 103.978 418.255 105.843 416.2 106.502C414.27 107.121 411.986 106.584 410.527 105.181C410.463 105.117 410.546 105.014 410.616 105.073Z" fill="#263238"/>
<path d="M413.971 90.2904C417.216 89.7943 420.497 91.0617 422.065 93.0557C423.018 94.267 423.365 95.6071 423.39 97.026C423.391 97.0831 423.274 97.0925 423.268 97.0343C423.07 94.813 421.55 92.5097 418.938 91.3938C416.427 90.3216 413.358 90.3922 410.941 91.8288C409.679 92.5782 408.735 93.6286 408.356 94.7725C408.314 94.9002 408.059 94.867 408.09 94.7383C408.613 92.5678 411.035 90.7399 413.971 90.2904Z" fill="#263238"/>
<path d="M396.43 100.594C396.66 98.9121 397.532 97.353 398.794 96.2278C400.562 94.6521 402.836 94.4393 405.1 94.2743C405.162 94.2701 405.169 94.3656 405.108 94.3698C403.18 94.5161 401.235 94.7777 399.649 95.9745C398.356 96.9502 397.381 98.3713 397.007 99.9532C396.232 103.237 398.135 106.807 401.325 107.939C403.131 108.579 405.201 108.429 406.894 107.535C406.96 107.499 407.031 107.594 406.962 107.632C403.885 109.364 399.761 108.547 397.711 105.625C396.701 104.183 396.189 102.349 396.43 100.594Z" fill="#263238"/>
<path d="M430.026 103.731C430.026 103.731 432.053 97.4028 428.886 94.5203C427.092 92.8865 422.317 94.0054 422.317 94.0054C422.317 94.0054 420.263 91.5132 416.106 91.3201C411.904 91.125 407.532 94.3459 407.532 94.3459C407.532 94.3459 403.306 92.8439 400.086 95.5427C395.597 99.3055 397.599 106.815 403.078 108.357C406.926 109.439 411.163 105.442 411.163 105.442C411.637 105.421 416.881 107.418 419.694 102.554C419.694 102.554 423.066 104.613 425.347 102.331C425.347 102.331 427.14 104.712 430.026 103.731Z" fill="#263238"/>
<path d="M429.138 115.784C429.138 115.784 431.466 109.323 434.298 110.01C437.13 110.698 436.404 119.345 433.802 121.205C431.2 123.065 429.43 120.69 429.43 120.69L429.138 115.784Z" fill="#EB9481"/>
<path d="M434.028 112.485C434.074 112.468 434.101 112.531 434.065 112.559C432.258 113.93 431.699 116.1 431.479 118.253C431.88 117.339 432.59 116.705 433.79 117.151C433.853 117.175 433.824 117.271 433.764 117.274C432.884 117.321 432.324 117.627 431.942 118.445C431.672 119.024 431.562 119.694 431.424 120.315C431.378 120.522 431.024 120.513 431.037 120.286C431.038 120.269 431.04 120.251 431.041 120.235C430.29 117.661 431.321 113.497 434.028 112.485Z" fill="#263238"/>
<path d="M445.269 138.927C468.811 152.141 499.277 187.306 497.276 196.412C495.046 206.556 467.308 188.281 466.969 186.741C466.714 185.578 454.881 172.675 443.854 154.679C433.835 138.323 439.448 135.659 445.269 138.927Z" fill="#EB9481"/>
<path d="M445.269 138.927C468.811 152.141 499.277 187.306 497.276 196.412C495.046 206.556 467.308 188.281 466.969 186.741C466.714 185.578 454.881 172.675 443.854 154.679C433.835 138.323 439.448 135.659 445.269 138.927Z" fill="#FFC727"/>
<g opacity="0.2">
<path d="M445.269 138.927C468.811 152.141 499.277 187.306 497.276 196.412C495.046 206.556 467.308 188.281 466.969 186.741C466.714 185.578 454.881 172.675 443.854 154.679C433.835 138.323 439.448 135.659 445.269 138.927Z" fill="black"/>
</g>
<path d="M466.97 186.741C464.897 184.344 462.914 181.873 460.951 179.387C458.988 176.901 457.095 174.362 455.195 171.827C453.347 169.255 451.482 166.692 449.719 164.059C447.956 161.427 446.226 158.766 444.674 156.002C446.499 158.593 448.346 161.159 450.21 163.715C452.072 166.272 453.927 168.834 455.823 171.367L461.428 179.027C463.287 181.587 465.151 184.146 466.97 186.741Z" fill="#263238"/>
<path d="M445.269 158.988C445.984 159.545 446.613 160.151 447.249 160.752L448.188 161.668C448.499 161.978 448.82 162.276 449.131 162.609C448.275 162.294 447.541 161.738 446.891 161.127C446.254 160.497 445.674 159.804 445.269 158.988Z" fill="#263238"/>
<path d="M497.065 197.069C494.574 201.472 486.069 206.828 456.671 209.565C452.603 209.944 444.21 180.83 448.533 180.202C453.979 179.411 472.327 178.552 473.898 178.694C485.59 179.755 499.553 192.673 497.065 197.069Z" fill="#EB9481"/>
<path d="M417.93 186.774C417.225 189.72 419.916 191.332 419.916 191.332C419.916 191.332 418.144 192.979 418.026 195.301C417.893 197.959 422.002 199.334 422.002 199.334C422.002 199.334 420.553 201.373 420.676 203.837C420.804 206.395 424.754 208.373 424.754 208.373C424.754 208.373 424.448 211.013 426.081 213.066C428.877 216.577 435.685 215.799 440.019 215.35C444.352 214.9 456.222 209.564 458.586 208.776L454.338 181.216C454.338 181.216 435.931 177.429 430.91 178.682C426.683 179.737 418.722 183.465 417.93 186.774Z" fill="#EB9481"/>
<path d="M420.066 190.867C424.293 188.667 428.94 187.835 433.532 186.742C433.634 186.719 433.671 186.878 433.568 186.901C428.989 187.935 424.674 189.866 420.145 191.079C420.02 191.113 419.952 190.927 420.066 190.867Z" fill="#263238"/>
<path d="M422.058 198.962C423.03 198.493 424.153 198.345 425.204 198.15C426.337 197.939 427.471 197.749 428.61 197.576C430.889 197.229 433.176 196.935 435.47 196.708C435.572 196.698 435.612 196.85 435.506 196.867C433.235 197.217 430.97 197.6 428.717 198.044C427.589 198.266 426.462 198.499 425.338 198.739C424.292 198.961 423.207 199.284 422.131 199.269C421.97 199.267 421.912 199.032 422.058 198.962Z" fill="#263238"/>
<path d="M424.85 208.356C425.678 207.913 426.804 207.896 427.721 207.775C428.764 207.639 429.804 207.497 430.844 207.35C432.923 207.054 435.003 206.758 437.071 206.39C437.173 206.371 437.211 206.53 437.107 206.55C435.008 206.934 432.914 207.347 430.81 207.713C429.778 207.893 428.745 208.067 427.71 208.235C426.831 208.379 425.747 208.657 424.861 208.462C424.812 208.45 424.809 208.377 424.85 208.356Z" fill="#263238"/>
<path d="M452.149 179.864L458.733 214.404C458.733 214.404 495.499 205.472 497.308 196.39C498.234 191.739 488.993 182.499 478.628 180.014C468.355 177.552 452.149 179.864 452.149 179.864Z" fill="#FFC727"/>
<path opacity="0.2" d="M452.149 179.864L458.733 214.404C458.733 214.404 495.499 205.472 497.308 196.39C498.234 191.739 488.993 182.499 478.628 180.014C468.355 177.552 452.149 179.864 452.149 179.864Z" fill="black"/>
<path d="M452.149 179.864C454.844 179.814 457.532 179.702 460.218 179.605C462.904 179.513 465.588 179.372 468.268 179.352C470.962 179.27 473.597 179.274 476.221 179.815C478.848 180.291 481.448 180.973 484.027 181.75C481.57 180.634 478.994 179.784 476.355 179.162C473.719 178.474 470.926 178.467 468.251 178.486C465.552 178.579 462.861 178.708 460.177 178.943C457.493 179.176 454.814 179.457 452.149 179.864Z" fill="#263238"/>
<path d="M460.205 180.989C460.624 182.164 462.878 193.037 463.318 195.411C463.757 197.786 465.645 207.471 465.894 209.96C465.905 210.071 465.755 210.111 465.723 210.001C465.014 207.615 463.082 197.85 462.585 195.442C462.087 193.034 460.096 182.225 460.04 181.006C460.035 180.903 460.175 180.909 460.205 180.989Z" fill="#263238"/>
<path d="M457.79 209.458C458.249 211.079 458.64 212.713 459.011 214.351L458.663 214.13C461.316 213.337 463.986 212.601 466.654 211.865L474.687 209.726C472.149 210.868 469.512 211.769 466.86 212.581C465.529 212.977 464.196 213.358 462.852 213.707C461.509 214.057 460.165 214.395 458.803 214.679L458.5 214.742L458.456 214.458C458.197 212.797 457.959 211.134 457.79 209.458Z" fill="#263238"/>
<path d="M421.3 141.777C421.3 141.777 414.084 150.43 410.503 174.227C406.923 198.024 403.677 241.984 403.677 241.984L376.771 231.604C376.771 231.604 374.7 201.117 374.873 196.457C375.045 191.797 404.651 157.631 408.833 152.192C413.015 146.752 421.3 141.777 421.3 141.777Z" fill="#FFC727"/>
<path opacity="0.3" d="M421.3 141.777C421.3 141.777 414.084 150.43 410.503 174.227C406.923 198.024 403.677 241.984 403.677 241.984L376.771 231.604C376.771 231.604 374.7 201.117 374.873 196.457C375.045 191.797 404.651 157.631 408.833 152.192C413.015 146.752 421.3 141.777 421.3 141.777Z" fill="black"/>
<path d="M364.207 197.442C362.81 201.707 358.638 207.316 358.662 210.652C358.684 213.664 361.28 214.393 361.28 214.393C361.28 214.393 358.21 216.445 358.731 219.47C358.999 221.025 361.72 221.964 361.72 221.964C361.72 221.964 359.332 223.716 359.961 226.376C360.462 228.496 363.114 229.12 363.114 229.12C363.114 229.12 361.606 231.868 362.809 233.865C365.249 237.912 383.797 235.55 385.792 228.353C386.722 224.998 382.223 225.821 382.223 225.821C382.223 225.821 388.407 223.076 388.018 219.239C387.629 215.403 381.848 216.825 381.848 216.825C381.848 216.825 387.818 214.111 387.012 210.174C386.174 206.076 380.636 208.489 380.636 208.489C380.636 208.489 384.404 205.167 383.098 202.295C380.941 197.551 373.923 204.755 369.723 204.307L366.617 197.873L364.207 197.442Z" fill="#EB9481"/>
<path d="M361.233 203.758C362.204 199.604 356.667 195.332 357.024 191.226C357.507 185.671 364.265 190.195 366.618 197.873L367.397 204.154L361.233 203.758Z" fill="#EB9481"/>
<path d="M363.52 229.28C363.458 229.283 363.449 229.37 363.514 229.377C369.804 230.087 376.933 228.939 382.476 225.805C382.658 225.703 382.57 225.362 382.348 225.438C376.017 227.575 370.227 228.967 363.52 229.28Z" fill="#263238"/>
<path d="M361.636 222.015C361.563 222.018 361.568 222.139 361.645 222.148C368.131 222.843 376.124 221.33 382.089 216.965C382.293 216.815 382.327 216.476 382.078 216.631C377.892 219.232 367.675 221.765 361.636 222.015Z" fill="#263238"/>
<path d="M380.972 208.035C375.092 211.999 368.532 213.679 361.546 214.435C361.454 214.445 361.478 214.572 361.556 214.585C365.074 215.145 369.477 214.2 372.84 213.173C376.062 212.19 378.771 210.656 381.111 208.24C381.201 208.147 381.098 207.95 380.972 208.035Z" fill="#263238"/>
</svg>
