<svg width="24" height="30" viewBox="0 0 24 30" fill="none" xmlns="http://www.w3.org/2000/svg">
<path d="M11.8854 22.6683C12.6239 22.6683 13.3322 22.3749 13.8544 21.8527C14.3765 21.3305 14.6699 20.6223 14.6699 19.8838C14.6699 18.3384 13.4169 17.0993 11.8854 17.0993C11.1469 17.0993 10.4387 17.3926 9.91646 17.9148C9.39427 18.437 9.1009 19.1453 9.1009 19.8838C9.1009 20.6223 9.39427 21.3305 9.91646 21.8527C10.4387 22.3749 11.1469 22.6683 11.8854 22.6683ZM20.2389 10.138C20.9774 10.138 21.6857 10.4314 22.2079 10.9536C22.7301 11.4758 23.0234 12.184 23.0234 12.9225V26.845C23.0234 27.5835 22.7301 28.2918 22.2079 28.814C21.6857 29.3362 20.9774 29.6295 20.2389 29.6295H3.53188C2.79339 29.6295 2.08514 29.3362 1.56294 28.814C1.04074 28.2918 0.747375 27.5835 0.747375 26.845V12.9225C0.747375 11.3771 2.0004 10.138 3.53188 10.138H4.92414V7.35348C4.92414 5.50724 5.65755 3.73661 6.96305 2.43112C8.26854 1.12563 10.0392 0.392212 11.8854 0.392212C12.7996 0.392212 13.7048 0.572271 14.5494 0.922107C15.3939 1.27194 16.1614 1.78471 16.8078 2.43112C17.4542 3.07753 17.9669 3.84494 18.3168 4.68952C18.6666 5.5341 18.8467 6.43931 18.8467 7.35348V10.138H20.2389ZM11.8854 3.17672C10.7777 3.17672 9.71529 3.61677 8.93199 4.40007C8.1487 5.18336 7.70865 6.24574 7.70865 7.35348V10.138H16.0622V7.35348C16.0622 6.24574 15.6221 5.18336 14.8388 4.40007C14.0555 3.61677 12.9932 3.17672 11.8854 3.17672Z" fill="white"/>
</svg>
