<svg width="336" height="405" viewBox="0 0 336 405" fill="none" xmlns="http://www.w3.org/2000/svg">
<path opacity="0.47" d="M103.718 404.298H265.794L217.333 234.804H156.734L103.718 404.298Z" fill="#9B9B9B"/>
<path opacity="0.47" d="M118.635 376.598C147.445 376.598 170.801 364.455 170.801 349.476C170.801 334.497 147.445 322.354 118.635 322.354C89.8245 322.354 66.469 334.497 66.469 349.476C66.469 364.455 89.8245 376.598 118.635 376.598Z" fill="#9B9B9B"/>
<path d="M171.951 252.121C170.841 253.211 169.101 253.901 167.051 253.621C161.491 252.861 115.371 241.991 113.551 246.071C112.751 247.861 113.581 252.341 114.781 256.861C116.331 262.651 118.491 268.511 118.631 268.911C119.461 271.291 116.691 271.571 114.511 268.911C113.551 267.751 110.761 261.941 108.561 255.631C106.441 249.511 104.871 242.921 106.091 239.631C106.481 238.571 107.171 237.861 108.221 237.611C115.871 235.841 165.121 243.971 170.501 245.991C173.901 247.271 173.851 250.271 171.951 252.121Z" fill="#2A7B91"/>
<path opacity="0.36" d="M171.951 252.121C171.461 251.831 170.971 251.491 170.481 251.101C159.531 242.251 118.191 240.091 106.091 239.631C106.481 238.571 107.171 237.861 108.221 237.611C115.871 235.841 165.121 243.971 170.501 245.991C173.901 247.271 173.851 250.271 171.951 252.121Z" fill="white"/>
<path d="M83.497 352.601C86.1204 352.601 88.247 350.475 88.247 347.851C88.247 345.228 86.1204 343.101 83.497 343.101C80.8737 343.101 78.747 345.228 78.747 347.851C78.747 350.475 80.8737 352.601 83.497 352.601Z" fill="#292331"/>
<path d="M90.747 378.596C93.3704 378.596 95.497 376.47 95.497 373.846C95.497 371.223 93.3704 369.096 90.747 369.096C88.1237 369.096 85.997 371.223 85.997 373.846C85.997 376.47 88.1237 378.596 90.747 378.596Z" fill="#292331"/>
<path d="M116.254 344.351C118.877 344.351 121.004 342.225 121.004 339.601C121.004 336.978 118.877 334.851 116.254 334.851C113.631 334.851 111.504 336.978 111.504 339.601C111.504 342.225 113.631 344.351 116.254 344.351Z" fill="#292331"/>
<path d="M121.004 373.846C123.627 373.846 125.754 371.72 125.754 369.096C125.754 366.473 123.627 364.346 121.004 364.346C118.381 364.346 116.254 366.473 116.254 369.096C116.254 371.72 118.381 373.846 121.004 373.846Z" fill="#292331"/>
<path d="M103.247 347.101C101.59 347.101 100.247 345.758 100.247 344.101V284.851C100.247 283.194 101.59 281.851 103.247 281.851C104.904 281.851 106.247 283.194 106.247 284.851V344.101C106.247 345.758 104.903 347.101 103.247 347.101Z" fill="#4C4A58"/>
<path d="M90.747 374.601C89.09 374.601 87.747 373.258 87.747 371.601V357.351C87.747 356.665 87.981 356.001 88.412 355.468L100.912 339.968C100.933 339.942 100.955 339.915 100.977 339.89L113.498 325.39C114.302 324.459 115.592 324.115 116.756 324.518C117.918 324.923 118.714 325.997 118.766 327.227L119.252 338.973C119.32 340.628 118.034 342.026 116.378 342.094C114.719 342.177 113.325 340.876 113.256 339.221L113.083 335.049L105.549 343.774L93.745 358.41V371.601C93.747 373.258 92.403 374.601 90.747 374.601Z" fill="#4C4A58"/>
<path d="M121.002 370.851C120.967 370.851 120.933 370.85 120.898 370.849C119.242 370.792 117.946 369.405 118.002 367.748L118.433 355.161L87.412 339.437L86.471 346.496C86.252 348.139 84.743 349.288 83.101 349.073C81.459 348.854 80.305 347.345 80.524 345.703L82.024 334.453C82.152 333.489 82.74 332.647 83.6 332.195C84.459 331.741 85.486 331.734 86.354 332.174L122.854 350.674C123.895 351.201 124.536 352.285 124.496 353.452L124 367.952C123.943 369.574 122.612 370.851 121.002 370.851Z" fill="#4C4A58"/>
<path d="M159.251 287.361C152.631 292.851 141.141 304.201 134.101 309.941C131.831 311.791 130.031 313.051 129.001 313.361C128.741 313.441 128.301 313.501 127.711 313.561C118.751 314.411 74.401 312.821 70.821 308.361C68.971 306.071 67.021 302.541 65.881 299.061C65.751 298.691 65.631 298.321 65.541 297.951C64.601 294.631 64.491 291.471 66.001 289.611C69.251 285.611 81.631 276.861 87.251 273.361C92.531 270.071 96.881 267.281 100.951 265.051C101.241 264.891 101.471 264.761 101.631 264.671C101.681 264.651 101.731 264.621 101.781 264.591C101.841 264.561 101.871 264.541 101.871 264.541C110.121 260.141 117.361 258.131 129.001 259.111C146.751 260.611 160.251 264.611 163.251 270.361C166.251 276.111 168.001 280.111 159.251 287.361Z" fill="#66A6BC"/>
<path d="M112.751 247.111C111.931 251.931 108.951 256.371 104.791 260.291C93.631 270.841 74.001 277.691 65.051 278.461C63.171 278.621 61.761 278.511 61.001 278.111C55.251 275.111 42.251 233.361 43.001 209.361C43.151 204.651 44.041 200.621 45.421 197.171C45.421 197.171 45.431 197.151 45.441 197.111C45.721 196.411 46.021 195.741 46.331 195.091C46.341 195.071 46.351 195.051 46.361 195.041C49.021 189.581 52.921 185.751 56.731 183.051C61.631 179.601 66.391 178.031 68.251 177.361C77.431 174.021 84.821 171.011 91.141 172.071C94.541 172.631 97.621 174.371 100.501 177.861C108.751 187.861 116.251 226.611 112.751 247.111Z" fill="#66A6BC"/>
<path d="M64.951 278.351C63.831 278.531 62.521 278.461 61.001 278.111C48.001 275.111 37.081 214.991 45.421 197.171C45.421 197.171 45.431 197.151 45.441 197.111C45.511 196.891 45.811 196.031 46.331 195.091C46.341 195.071 46.351 195.051 46.361 195.041C47.451 193.091 49.491 190.801 52.501 192.861C52.991 193.191 53.491 193.721 53.991 194.431C58.461 200.621 63.681 220.441 67.501 240.861C71.251 260.951 73.451 276.951 64.951 278.351Z" fill="#80C9E0"/>
<path opacity="0.2" d="M64.951 278.351C64.981 278.391 65.021 278.421 65.051 278.461C63.171 278.621 61.761 278.511 61.001 278.111C48.001 275.111 37.081 214.991 45.421 197.171C45.421 197.171 45.431 197.151 45.441 197.111C45.511 196.891 45.811 196.031 46.331 195.091C46.341 195.071 46.351 195.051 46.361 195.041C52.451 182.581 64.941 178.561 68.251 177.361C77.431 174.021 84.821 171.011 91.141 172.071C85.911 173.021 66.781 177.491 54.491 193.731C54.321 193.961 54.151 194.191 53.991 194.431C41.521 212.761 54.201 266.991 64.951 278.351Z" fill="#040447"/>
<path d="M65.883 299.062C65.883 299.062 63.25 295.858 72.5 295.108C81.75 294.358 123 299.108 127 301.358C131 303.608 134.25 310.858 129 313.358C123.75 315.858 72.25 314.358 68.75 310.608C65.25 306.858 65.883 299.062 65.883 299.062Z" fill="#80C9E0"/>
<path d="M159.751 290.861C150.721 298.931 140.011 308.901 133.651 312.861C131.741 314.051 130.211 314.701 129.251 314.591C128.661 314.521 128.191 314.201 127.821 313.711C127.781 313.661 127.751 313.611 127.711 313.561C125.631 310.441 127.001 301.361 127.001 301.361C127.001 301.361 130.541 297.851 135.481 293.181C144.371 284.781 157.791 272.611 163.251 270.361C171.751 266.861 171.501 280.361 159.751 290.861Z" fill="#92E2F4"/>
<path opacity="0.2" d="M159.751 290.861C150.721 298.931 140.011 308.901 133.651 312.861C133.801 311.921 133.951 310.941 134.101 309.941C134.951 304.171 135.671 297.721 135.481 293.181C135.061 282.901 112.901 295.451 94.421 286.801C78.071 279.141 96.491 267.611 100.951 265.051C101.241 264.891 101.471 264.761 101.631 264.671C101.681 264.651 101.731 264.621 101.781 264.591C101.841 264.561 101.871 264.541 101.871 264.541C110.121 260.141 117.361 258.131 129.001 259.111C146.751 260.611 160.251 264.611 163.251 270.361C171.751 266.861 171.501 280.361 159.751 290.861Z" fill="#040447"/>
<path d="M149.491 138.781C149.431 139.341 148.571 145.461 144.751 146.081C140.751 146.731 140.541 147.861 142.271 151.731C144.001 155.611 143.141 160.731 139.261 164.111C137.041 166.031 134.501 165.621 132.171 165.421C130.421 165.261 128.791 165.231 127.501 166.391C124.501 169.111 125.001 173.111 129.501 172.861C129.501 172.861 126.391 176.231 123.261 173.731C120.121 171.231 119.511 169.111 119.131 169.731C118.751 170.361 117.971 171.831 120.481 174.651C122.801 177.251 110.671 174.711 106.891 169.131C106.551 168.651 106.291 168.141 106.101 167.611C103.751 160.981 106.141 155.711 112.261 158.721C117.541 161.321 123.531 163.151 128.461 160.391C129.241 159.951 130.001 159.401 130.721 158.721C136.001 153.731 138.961 136.481 135.481 130.481C132.001 124.481 129.011 119.821 129.011 119.821C129.011 119.821 131.531 118.981 132.391 115.861C132.391 115.861 133.141 115.651 134.261 115.591C136.501 115.471 140.201 115.941 142.271 119.861C145.371 125.731 137.501 138.611 142.871 141.611C147.981 144.461 149.371 139.301 149.491 138.781Z" fill="#8D3714"/>
<path opacity="0.32" d="M128.461 160.391C128.441 162.321 128.101 163.781 127.371 164.611C121.131 171.661 109.671 163.391 109.671 163.391V167.231L106.891 169.131C106.551 168.651 106.291 168.141 106.101 167.611C103.751 160.981 106.141 155.711 112.261 158.721C117.541 161.321 123.531 163.151 128.461 160.391Z" fill="#350703"/>
<path d="M140.421 331.234C140.421 331.234 138.588 333.704 138.985 338.728C139.382 343.752 138.929 347.585 138.929 347.585C138.929 347.585 142.29 348.246 144.273 347.585V344.545C144.273 344.545 146.785 346.455 149.296 347.879C151.808 349.304 158.55 348.834 158.814 347.879C159.078 346.924 159.343 345.602 158.814 344.941C158.285 344.28 151.014 343.883 147.709 333.308C147.709 333.308 142.254 333.259 140.421 331.234Z" fill="#2B0A08"/>
<path d="M160.213 251.435C164.763 252.691 170.276 257.982 172.127 265.385C173.978 272.788 164.428 293.676 160.213 304.516C155.998 315.356 149.389 332.41 148.067 333.203C146.745 333.996 145.159 334.261 144.101 333.203C143.043 332.145 160.799 289.613 160.626 277.812C160.453 266.011 151.769 259.437 148.332 258.842C144.893 258.246 155.173 250.043 160.213 251.435Z" fill="#E2894D"/>
<path d="M160.761 286.541C158.641 297.241 147.671 329.501 143.841 334.791C143.841 334.791 142.291 335.571 140.361 335.221C138.911 334.961 137.261 334.081 135.901 331.751C135.901 331.751 138.281 310.331 139.871 298.431C141.461 286.551 141.481 283.121 138.241 282.181H138.231C136.591 281.711 136.311 277.501 137.951 272.451C139.541 267.511 142.971 261.781 148.731 257.981C148.731 257.981 149.251 258.201 150.071 258.591C152.251 259.621 156.581 261.831 159.171 264.331C162.741 267.761 162.871 275.831 160.761 286.541Z" fill="#F79B5C"/>
<path d="M163.401 251.641C161.561 250.551 157.171 251.241 150.071 258.591C148.481 260.241 146.751 262.221 144.891 264.591C142.421 267.741 140.771 270.441 139.701 272.711C137.231 277.941 137.781 280.951 138.231 282.181H138.241C138.401 282.621 138.551 282.831 138.551 282.831C133.391 282.701 97.171 277.551 95.261 275.961C93.351 274.371 88.581 267.901 86.991 257.721C85.401 247.541 89.831 241.191 89.831 241.191C91.431 237.631 112.671 234.861 122.211 234.851C124.841 234.851 126.581 235.051 126.781 235.511C127.711 237.621 128.501 238.681 134.321 241.191C140.131 243.701 150.181 245.421 155.871 247.011C161.551 248.591 163.401 251.641 163.401 251.641Z" fill="#7A3E1A"/>
<path opacity="0.3" d="M147.861 306.781C146.381 312.581 140.521 326.351 140.361 335.221C138.911 334.961 137.261 334.081 135.901 331.751C135.901 331.751 138.281 310.331 139.871 298.431C141.461 286.551 141.481 283.121 138.241 282.181C138.401 282.621 138.551 282.831 138.551 282.831C133.391 282.701 97.171 277.551 95.261 275.961C93.351 274.371 88.581 267.901 86.991 257.721C85.401 247.541 89.831 241.191 89.831 241.191C91.431 237.631 112.671 234.861 122.211 234.851L140.961 248.911C140.961 248.911 145.111 253.451 143.091 256.451C141.071 259.451 135.831 264.781 133.781 261.781C131.731 258.781 129.771 255.791 125.751 255.791C121.731 255.781 121.781 261.131 112.261 255.791C102.731 250.451 98.061 254.891 100.731 262.671C102.951 269.141 124.201 270.461 137.951 272.451C138.551 272.531 139.131 272.621 139.701 272.711C141.771 273.031 143.621 273.381 145.151 273.781C156.731 276.781 149.651 299.781 147.861 306.781Z" fill="#490E05"/>
<path d="M105.102 180.513C106.866 180.488 112.902 166.896 104.177 165.046C95.452 163.195 89.239 166.765 89.371 170.07C89.502 173.375 95.715 180.646 105.102 180.513Z" stroke="black" stroke-width="0.4501" stroke-miterlimit="10"/>
<path d="M113.423 237.368C113.423 237.368 120.833 237.757 122.42 234.848C124.006 231.939 122.95 200.153 116.735 189.106C110.521 178.059 105.149 178.865 102.986 179.456C100.823 180.046 98.227 185.405 101.532 191.486C104.837 197.567 113.151 216.226 113.423 237.368Z" fill="#E75F11"/>
<path d="M114.751 238.021C113.881 238.581 112.821 238.991 111.651 239.291C104.471 241.131 92.941 238.681 92.941 238.681C92.411 231.281 81.441 219.381 77.211 205.371C72.981 191.351 79.191 182.101 81.831 180.511C84.481 178.931 84.211 177.471 88.441 174.171C88.441 174.171 89.021 172.761 93.381 177.301C95.281 179.261 97.881 182.351 101.451 187.141C113.271 203.011 114.751 238.021 114.751 238.021Z" fill="#FFAF10"/>
<path opacity="0.44" d="M114.751 238.021C113.881 238.581 112.821 238.991 111.651 239.291C111.881 206.961 95.621 184.701 95.621 184.701C94.121 181.841 93.451 179.391 93.381 177.301C95.281 179.261 97.881 182.351 101.451 187.141C113.271 203.011 114.751 238.021 114.751 238.021Z" fill="#FFE6AE"/>
<path d="M126.781 235.511C126.781 235.511 126.241 235.731 125.441 236.001C124.321 236.371 122.691 236.831 121.421 236.831C121.421 236.831 121.891 211.451 119.641 200.611C117.401 189.771 107.881 176.891 107.881 176.891L111.851 174.571L112.881 173.961C113.011 173.961 116.261 173.991 118.721 176.891C121.231 179.851 129.821 194.001 129.951 202.591C130.091 211.181 125.331 231.411 126.781 235.511Z" fill="#FFAF10"/>
<path opacity="0.44" d="M126.781 235.511C126.781 235.511 126.241 235.731 125.441 236.001C123.041 229.321 124.251 215.031 125.021 209.871C125.901 204.051 128.781 196.251 121.261 185.971C116.951 180.081 113.771 176.531 111.851 174.571L112.881 173.961C113.011 173.961 116.261 173.991 118.721 176.891C121.231 179.851 129.821 194.001 129.951 202.591C130.091 211.181 125.331 231.411 126.781 235.511Z" fill="#FFE6AE"/>
<path d="M82.411 134.521C78.371 138.561 81.141 146.071 82.491 149.711C83.831 153.351 85.101 158.251 82.011 163.711C78.931 169.171 76.871 169.411 76.871 169.411C77.741 167.671 77.271 164.661 77.271 164.661C76.871 168.301 74.341 171.071 72.051 173.681C69.971 176.051 68.671 180.101 68.441 180.841C68.581 180.301 68.961 178.041 66.751 175.421C64.221 172.411 63.031 167.191 63.741 164.981C64.451 162.761 65.011 160.711 65.011 160.711C64.061 161.501 60.971 160.861 61.841 159.681C62.711 158.491 64.221 151.291 61.131 147.581C58.051 143.861 58.841 136.311 58.841 136.311C56.621 136.841 54.491 133.891 54.491 133.101C54.491 132.311 57.971 131.041 58.361 128.121C58.761 125.191 60.101 120.841 67.851 114.351C70.531 112.111 73.411 111.301 76.031 111.211H76.041C80.991 111.041 85.021 113.411 85.021 113.411C85.021 113.411 85.961 124.771 84.131 131.151C83.711 132.591 83.151 133.781 82.411 134.521Z" fill="#8D3714"/>
<path opacity="0.3" d="M82.491 149.711C83.831 153.351 85.101 158.251 82.011 163.711C78.931 169.171 76.871 169.411 76.871 169.411C77.741 167.671 77.271 164.661 77.271 164.661C76.871 168.301 74.341 171.071 72.051 173.681C69.971 176.051 68.671 180.101 68.441 180.841C68.581 180.301 68.961 178.041 66.751 175.421C64.221 172.411 63.031 167.191 63.741 164.981C64.451 162.761 65.011 160.711 65.011 160.711C64.061 161.501 60.971 160.861 61.841 159.681C62.711 158.491 64.221 151.291 61.131 147.581C58.051 143.861 58.841 136.311 58.841 136.311C56.621 136.841 54.491 133.891 54.491 133.101C54.491 132.311 57.971 131.041 58.361 128.121C58.761 125.191 60.101 120.841 67.851 114.351C70.531 112.111 73.411 111.301 76.031 111.211C75.861 111.431 75.771 111.551 75.771 111.551C75.771 111.551 64.571 116.711 65.401 125.331C66.231 133.951 62.901 138.971 66.071 143.711C69.231 148.451 66.231 153.281 67.901 154.281C69.571 155.281 71.381 154.891 70.221 160.841C69.071 166.781 73.231 165.551 75.071 160.411C76.901 155.281 85.088 157.749 82.716 153.482C79.949 148.505 74.191 127.241 81.131 128.681C82.221 128.911 83.231 129.791 84.131 131.151C83.711 132.591 83.151 133.781 82.411 134.521C78.371 138.561 81.141 146.071 82.491 149.711Z" fill="#490E05"/>
<path d="M95.319 163.989C100.11 162.544 108.407 163.46 111.315 169.674C114.223 175.887 114.223 182.629 113.695 183.026C113.166 183.423 107.746 178.928 105.102 180.514C102.458 182.1 101.533 188.71 99.814 190.164C98.095 191.618 92.803 185.801 89.368 179.059C85.933 172.317 86.99 166.5 95.319 163.989Z" fill="#C62B0C"/>
<path d="M138.001 147.731C138.391 150.161 138.001 152.991 136.661 155.751C135.551 158.051 133.791 160.301 131.281 162.201C131.281 162.201 131.271 162.211 131.271 162.221C130.521 162.801 129.701 163.341 128.811 163.841C128.811 163.841 128.811 163.841 128.801 163.841C128.341 164.121 127.871 164.371 127.371 164.611C122.021 167.201 113.791 163.721 107.641 160.241C104.011 158.201 101.111 156.161 99.951 155.371C99.951 155.371 97.371 154.251 95.841 151.791C95.201 150.761 94.751 149.501 94.751 147.981C94.751 147.981 81.621 140.861 86.251 127.481C90.701 114.601 107.211 103.461 127.851 117.951C128.651 118.501 129.451 119.101 130.251 119.731C130.251 119.731 130.951 120.451 131.961 121.691C133.581 123.681 136.011 127.011 137.581 130.781C137.801 131.311 138.001 131.841 138.181 132.381C138.471 133.211 138.701 134.051 138.861 134.891C138.911 135.171 138.961 135.451 139.001 135.731C139.061 136.161 139.111 136.561 139.141 136.931C139.611 141.651 138.481 142.571 138.021 144.391C137.971 144.601 137.931 144.811 137.901 145.051C137.811 145.691 137.811 146.451 137.971 147.491C137.971 147.571 137.991 147.651 138.001 147.731Z" fill="#F79B5C"/>
<path d="M109.341 180.251C108.651 180.961 108.121 181.361 108.121 181.361C102.091 181.631 97.311 178.371 94.201 175.341C92.081 173.271 91.921 170.001 93.601 167.561C94.351 166.471 95.111 164.961 95.751 162.861C96.941 158.931 96.481 154.721 95.841 151.791C95.381 149.621 94.811 148.141 94.761 147.991L107.651 159.961C107.651 159.961 107.651 159.961 107.641 160.241C107.611 160.711 107.551 161.971 107.371 165.371C107.271 167.531 108.011 168.961 108.951 169.901C111.811 172.771 112.131 177.311 109.341 180.251Z" fill="#F79B5C"/>
<path opacity="0.36" d="M138.001 147.731C138.391 150.161 138.001 152.991 136.661 155.751C135.551 158.051 133.791 160.301 131.281 162.201C134.321 158.691 135.791 154.721 136.141 152.281C136.561 149.271 136.151 147.931 137.371 139.021C138.551 130.371 128.451 118.641 127.851 117.951C128.651 118.501 129.451 119.101 130.251 119.731C130.251 119.731 130.951 120.451 131.961 121.691C133.581 123.681 136.011 127.011 137.581 130.781C137.801 131.311 138.001 131.841 138.181 132.381C138.471 133.211 138.701 134.051 138.861 134.891C138.911 135.171 138.961 135.451 139.001 135.731C139.061 136.161 139.111 136.561 139.141 136.931C139.611 141.651 138.481 142.571 138.021 144.391C137.971 144.601 137.931 144.811 137.901 145.051C137.811 145.691 137.811 146.451 137.971 147.491C137.971 147.571 137.991 147.651 138.001 147.731Z" fill="#FFD878"/>
<path opacity="0.24" d="M117.151 160.841C120.871 162.961 124.951 163.751 128.801 163.841C128.341 164.121 127.871 164.371 127.371 164.611C122.021 167.201 113.791 163.721 107.641 160.241C107.611 160.711 107.551 161.971 107.371 165.371C107.271 167.531 108.011 168.961 108.951 169.901C111.811 172.771 112.131 177.311 109.341 180.251C108.651 180.961 108.121 181.361 108.121 181.361C102.091 181.631 97.311 178.371 94.201 175.341C92.081 173.271 91.921 170.001 93.601 167.561C94.351 166.471 95.111 164.961 95.751 162.861C96.941 158.931 96.481 154.721 95.841 151.791C95.201 150.761 94.751 149.501 94.751 147.981C94.751 147.981 81.621 140.861 86.251 127.481C90.871 114.111 108.501 102.611 130.251 119.731C130.251 119.731 130.951 120.451 131.961 121.691C131.001 122.281 129.291 123.011 127.261 122.451C127.261 122.451 122.611 127.781 109.671 132.281C109.671 132.281 105.231 154.061 117.151 160.841Z" fill="#601506"/>
<path d="M139.141 136.931C139.111 136.561 139.061 136.161 139.001 135.731C138.961 135.451 138.911 135.171 138.861 134.891C138.861 134.891 134.121 135.611 133.121 140.981C132.411 144.821 135.571 145.541 137.901 145.051C137.931 144.811 137.971 144.601 138.021 144.391C138.481 142.571 139.611 141.651 139.141 136.931Z" fill="#FFEDD2"/>
<path d="M123.251 138.861C123.031 142.121 121.671 144.141 117.051 143.631C116.361 143.561 115.601 143.431 114.751 143.231C107.121 141.481 106.251 135.231 112.261 132.861C116.121 131.331 119.661 132.691 121.621 134.861C122.731 136.071 123.341 137.521 123.251 138.861Z" fill="#FFEDD2"/>
<path d="M123.251 138.861C123.031 142.121 121.671 144.141 117.051 143.631C116.241 143.311 113.361 141.841 114.871 137.961C116.191 134.571 119.461 133.601 121.621 134.861C122.731 136.071 123.341 137.521 123.251 138.861Z" fill="#53190B"/>
<path d="M99.125 145.178C99.125 145.178 101.875 137.732 98.25 133.357C94.625 128.982 88.232 132.556 88.75 137.959C89.269 143.364 95.375 148.124 99.125 145.178Z" stroke="black" stroke-width="0.4501" stroke-miterlimit="10"/>
<path d="M100.732 138.829C100.732 142.554 98.043 145.575 94.726 145.575C91.409 145.575 88.72 142.555 88.72 138.829C88.72 135.103 91.409 132.083 94.726 132.083C98.043 132.083 100.732 135.103 100.732 138.829Z" stroke="black" stroke-width="0.4501" stroke-miterlimit="10"/>
<path d="M125.875 154.233C130.643 155.495 133.228 153.569 133.75 156.483C134.272 159.397 127.466 162.108 120.483 159.108C113.5 156.108 115.5 151.858 118.25 151.108C121 150.358 121.625 153.108 125.875 154.233Z" fill="#8E1717"/>
<path d="M118.48 158.066C118.48 158.066 121.125 154.774 125.625 158.066C125.625 158.066 128.938 155.924 130.719 159.766C130.719 159.766 125.168 163.079 118.48 158.066Z" fill="#F490AF"/>
<path d="M117.147 151.636C117.147 151.636 119.876 155.472 126.251 156.603C132.626 157.734 133.317 156.799 132.534 154.891C131.751 152.983 127.257 155.108 123.817 152.108C120.375 149.108 117.668 149.664 117.147 151.636Z" fill="white"/>
<g opacity="0.36">
<path d="M109.675 155.202C112.53 155.202 114.844 152.888 114.844 150.033C114.844 147.179 112.53 144.864 109.675 144.864C106.82 144.864 104.506 147.179 104.506 150.033C104.506 152.888 106.82 155.202 109.675 155.202Z" fill="#FF3B3B"/>
<path d="M136.661 155.751C134.991 155.191 133.781 153.601 133.781 151.731C133.781 149.411 135.651 147.521 137.971 147.491C137.971 147.571 137.991 147.651 138.001 147.731C138.391 150.161 138.001 152.991 136.661 155.751Z" fill="#FF3B3B"/>
</g>
<path d="M88.721 112.971C83.021 119.601 80.781 130.001 80.631 130.711C80.621 130.741 80.621 130.751 80.621 130.751C76.871 130.401 74.751 123.481 79.251 116.481C81.331 113.231 83.521 112.251 85.261 112.121C87.291 111.961 88.721 112.971 88.721 112.971Z" fill="#FFC639"/>
<path d="M130.251 119.731C126.501 120.231 126.001 118.481 126.001 118.481C126.001 118.481 125.871 120.611 120.481 124.981C119.781 125.551 118.971 126.011 118.081 126.371C112.141 128.861 102.871 127.331 102.001 127.981C101.001 128.731 100.491 131.171 101.251 136.731C102.021 142.291 99.961 141.651 99.961 141.651C99.911 145.711 96.501 146.081 96.501 146.081C99.621 157.301 96.001 165.861 91.251 166.361C86.501 166.861 84.621 162.111 87.001 159.611C89.371 157.111 90.751 160.611 89.501 160.841C88.251 161.071 87.751 164.111 91.251 162.481C94.751 160.861 92.871 156.731 86.501 151.731C80.121 146.731 78.501 135.361 80.751 126.481C83.001 117.611 89.121 109.111 102.871 106.361C116.621 103.611 123.261 110.231 123.261 110.231C124.151 109.341 128.161 107.391 130.701 111.111C130.711 111.121 130.721 111.121 130.721 111.121C131.041 111.601 131.351 112.171 131.621 112.861C134.001 118.861 130.251 119.731 130.251 119.731Z" fill="#8D3714"/>
<path opacity="0.3" d="M130.701 111.111C130.301 110.981 124.391 109.161 124.971 114.281C124.971 114.281 118.541 111.531 113.171 116.561C112.861 116.851 112.561 117.161 112.261 117.501C106.741 123.771 110.961 126.941 118.081 126.371C112.141 128.861 102.871 127.331 102.001 127.981C101.001 128.731 100.491 131.171 101.251 136.731C101.421 137.991 101.451 138.931 101.391 139.631C101.391 139.671 101.381 139.711 101.381 139.751C101.341 140.121 101.281 140.421 101.201 140.661C101.181 140.691 101.171 140.721 101.171 140.751C101.141 140.811 101.121 140.861 101.101 140.911C101.001 141.161 100.871 141.321 100.741 141.431C100.711 141.461 100.671 141.481 100.641 141.501C100.611 141.531 100.581 141.551 100.551 141.561C100.461 141.611 100.381 141.641 100.311 141.651C100.281 141.661 100.251 141.661 100.221 141.661C100.061 141.681 99.961 141.651 99.961 141.651C99.911 145.711 96.501 146.081 96.501 146.081C99.621 157.301 96.001 165.861 91.251 166.361C86.501 166.861 84.621 162.111 87.001 159.611C89.371 157.111 90.751 160.611 89.501 160.841C88.251 161.071 87.751 164.111 91.251 162.481C94.751 160.861 92.871 156.731 86.501 151.731C80.121 146.731 78.501 135.361 80.751 126.481C82.911 117.961 88.651 109.781 101.291 106.711C101.801 106.581 102.331 106.471 102.871 106.361C103.621 106.211 104.351 106.091 105.061 105.991C116.991 104.371 122.931 109.911 123.251 110.221C123.261 110.221 123.261 110.231 123.261 110.231C124.151 109.341 128.161 107.391 130.701 111.111Z" fill="#490E05"/>
<path opacity="0.32" d="M123.261 110.231C105.211 108.781 100.351 125.881 100.731 134.451C100.811 136.211 101.041 137.941 101.391 139.631C101.391 139.671 101.381 139.711 101.381 139.751C101.341 140.121 101.271 140.421 101.201 140.661C101.181 140.691 101.171 140.721 101.171 140.751C101.141 140.811 101.121 140.861 101.101 140.911C100.991 141.151 100.861 141.311 100.741 141.431C100.711 141.461 100.671 141.481 100.641 141.501C100.611 141.531 100.581 141.551 100.551 141.561C100.461 141.611 100.381 141.641 100.311 141.651C100.281 141.661 100.251 141.661 100.221 141.661C100.061 141.681 99.961 141.651 99.961 141.651C99.911 145.711 96.501 146.081 96.501 146.081C99.621 157.301 96.001 165.861 91.251 166.361C98.171 160.471 95.261 150.981 95.261 150.981C95.261 150.981 89.231 151.281 85.261 143.201C81.291 135.111 90.901 128.471 90.901 128.471C89.901 116.091 97.471 109.311 101.291 106.711C101.801 106.581 102.331 106.471 102.871 106.361C103.621 106.211 104.351 106.091 105.061 105.991C116.991 104.371 122.931 109.911 123.251 110.221C123.261 110.221 123.261 110.231 123.261 110.231Z" fill="#350703"/>
<path opacity="0.54" d="M129.25 147.983C132.75 148.608 133.125 145.483 131.375 145.626C129.625 145.769 129.25 143.6 129.25 143.6C129.25 143.6 127.978 142.111 127.356 144.864C126.734 147.618 129.25 147.983 129.25 147.983Z" fill="#FF3B3B"/>
<path d="M122.694 130.698C123.581 129.547 116.401 125.433 110.293 129.003C110.293 129.003 108.901 129.948 110.293 130.323C111.685 130.698 114.02 128.323 117.915 129.948C121.81 131.573 121.827 131.823 122.694 130.698Z" fill="#53190B"/>
<path d="M138.181 132.381C137.761 132.431 137.311 132.541 136.831 132.711C133.411 133.931 133.381 134.151 132.691 133.141C132.251 132.501 134.551 131.001 137.581 130.781C137.801 131.311 138.001 131.841 138.181 132.381Z" fill="#53190B"/>
<path d="M123.251 110.221C123.021 110.151 115.251 107.691 107.371 113.231C101.771 117.171 100.461 124.821 100.171 129.061C100.051 130.891 100.121 132.081 100.121 132.081C96.741 128.941 92.501 130.751 92.501 130.751C91.451 116.061 100.121 106.611 111.681 105.691C115.281 105.401 117.791 105.921 119.531 106.701C119.531 106.711 119.531 106.711 119.531 106.711C122.441 108.011 123.191 110.031 123.251 110.221Z" fill="#66A6BC"/>
<path opacity="0.3" d="M119.531 106.701C119.531 106.711 119.531 106.711 119.531 106.711C119.531 106.711 108.081 104.421 102.071 112.101C96.071 119.781 96.901 127.581 96.901 127.581C96.901 127.581 98.131 127.641 100.171 129.061C100.051 130.891 100.121 132.081 100.121 132.081C96.741 128.941 92.501 130.751 92.501 130.751C91.451 116.061 100.121 106.611 111.681 105.691C115.281 105.401 117.791 105.921 119.531 106.701Z" fill="#040447"/>
<path d="M101.404 141.784C101.404 141.784 104.155 147.09 110.116 150.889C116.077 154.688 114.898 154.033 115.749 153.705C116.6 153.378 118.631 154.557 117.976 155.932C117.321 157.308 115.356 155.605 114.897 155.539C114.439 155.473 105.923 150.626 101.404 144.338C96.885 138.05 100.792 140.756 101.404 141.784Z" fill="#2A7B91"/>
<path d="M138.021 144.391C138.021 144.391 134.501 143.981 135.751 140.481C136.571 138.171 138.161 137.281 139.141 136.931C139.611 141.651 138.481 142.571 138.021 144.391Z" fill="#53190B"/>
<path d="M104.251 139.081V139.171C104.251 144.521 100.391 148.861 95.621 148.861C90.861 148.861 87.001 144.521 87.001 139.171C87.001 133.821 90.861 129.481 95.621 129.481C95.931 129.481 96.251 129.501 96.551 129.541C100.861 130.061 104.211 134.121 104.251 139.081Z" fill="#80C9E0"/>
<path d="M121.897 139.094C122.25 139.094 122.536 138.808 122.536 138.455C122.536 138.102 122.25 137.816 121.897 137.816C121.544 137.816 121.258 138.102 121.258 138.455C121.258 138.808 121.544 139.094 121.897 139.094Z" fill="white"/>
<path d="M138.804 139.751C138.804 139.995 138.606 140.193 138.362 140.193C138.118 140.193 137.92 139.995 137.92 139.751C137.92 139.507 138.118 139.309 138.362 139.309C138.606 139.309 138.804 139.507 138.804 139.751Z" fill="white"/>
<path opacity="0.19" d="M149.491 138.781C149.431 139.341 148.571 145.461 144.751 146.081C140.751 146.731 140.541 147.861 142.271 151.731C144.001 155.611 143.141 160.731 139.261 164.111C137.041 166.031 134.501 165.621 132.171 165.421C136.851 164.611 142.861 159.361 140.901 154.451C136.111 142.441 150.031 145.561 143.391 143.201C135.751 140.481 142.391 127.281 141.391 121.431C140.391 115.571 133.881 115.861 133.881 115.861C133.881 115.861 134.021 115.761 134.261 115.591C136.501 115.471 140.201 115.941 142.271 119.861C145.371 125.731 137.501 138.611 142.871 141.611C147.981 144.461 149.371 139.301 149.491 138.781Z" fill="#FFC612"/>
<path opacity="0.3" d="M99.748 139.486C99.748 143.095 97.535 146.021 94.806 146.021C92.077 146.021 89.864 143.095 89.864 139.486C89.864 135.877 92.077 132.951 94.806 132.951C97.536 132.951 99.748 135.877 99.748 139.486Z" fill="#040447"/>
<path opacity="0.17" d="M104.251 139.091V139.171C104.251 144.521 100.391 148.861 95.621 148.861C90.861 148.861 87.001 144.521 87.001 139.171C87.001 133.821 90.861 129.481 95.621 129.481C95.931 129.481 96.251 129.501 96.551 129.541C95.071 130.121 89.801 132.661 90.901 139.321C92.181 147.061 102.421 146.041 104.251 139.091Z" fill="#040447"/>
<path opacity="0.3" d="M85.261 112.121C85.261 112.121 76.901 119.531 79.071 127.581C79.471 129.061 80.011 130.061 80.631 130.711C80.621 130.741 80.621 130.751 80.621 130.751C76.871 130.401 74.751 123.481 79.251 116.481C81.331 113.231 83.521 112.251 85.261 112.121Z" fill="#490E05"/>
<path opacity="0.3" d="M87.491 129.521C87.431 129.571 87.331 129.671 87.171 129.791C87.321 129.661 87.431 129.561 87.491 129.521Z" fill="#490E05"/>
<path d="M136.148 331.906C136.148 331.906 134.179 334.56 134.605 339.958C135.031 345.356 134.545 349.475 134.545 349.475C134.545 349.475 138.156 350.185 140.287 349.475V346.208C140.287 346.208 142.986 348.26 145.684 349.79C148.382 351.32 155.627 350.816 155.911 349.79C156.195 348.764 156.479 347.344 155.911 346.634C155.343 345.924 147.531 345.498 143.98 334.135C143.98 334.135 138.117 334.081 136.148 331.906Z" fill="#3D1305"/>
<path d="M128.281 284.551C127.161 285.801 125.261 286.631 123.001 286.321C117.251 285.531 69.631 274.311 67.751 278.521C65.871 282.741 72.741 301.361 73.001 302.111C73.861 304.561 71.001 304.861 68.751 302.111C66.851 299.791 57.871 279.601 59.911 272.311C60.281 270.981 61.031 270.071 62.251 269.791C70.151 267.961 121.001 276.361 126.561 278.441C129.931 279.711 130.021 282.621 128.281 284.551Z" fill="#2A7B91"/>
<path opacity="0.36" d="M128.281 284.551C127.971 284.351 127.661 284.121 127.351 283.871C115.041 273.921 64.281 272.421 59.911 272.311C60.281 270.981 61.031 270.071 62.251 269.791C70.151 267.961 121.001 276.361 126.561 278.441C129.931 279.711 130.021 282.621 128.281 284.551Z" fill="white"/>
<path d="M108.57 314.76H102.23V404.298H108.57V314.76Z" fill="#C07F3D"/>
<path d="M108.57 404.298L111.344 398.354V314.76H108.57V404.298Z" fill="#7A3E1A"/>
<path d="M264.306 314.76H257.966V404.298H264.306V314.76Z" fill="#C07F3D"/>
<path d="M257.966 404.298L255.192 398.354V314.76H257.966V404.298Z" fill="#7A3E1A"/>
<path d="M271.041 308.021H95.491L149.781 185.971H243.301L271.041 308.021Z" fill="#C07F3D"/>
<path d="M271.043 308.024H95.493V317.138H271.043V308.024Z" fill="#7A3E1A"/>
<path opacity="0.18" d="M268.401 308.021H95.491L149.781 185.971H243.301L156.911 193.731L124.401 292.201L268.401 308.021Z" fill="#601506"/>
<path opacity="0.22" d="M193.672 276.178C193.672 276.178 177.491 282.968 166.194 283.959C154.897 284.95 135.83 287.442 137.863 278.446C139.896 269.45 165.351 197.377 175.599 195.611C185.846 193.845 198.606 191.992 202.501 199.221C202.501 199.221 199.948 266.405 193.672 276.178Z" fill="#350703"/>
<path d="M144.825 275.414C144.825 275.414 143.886 278.935 146.233 280.813C148.58 282.691 190.124 281.871 193.176 276.178C196.227 270.485 202.095 208.99 202.33 202.888C202.565 196.785 199.309 193.934 198.105 193.734L188.717 270.72L144.825 275.414Z" fill="#292331"/>
<path d="M157.492 239.951C164.418 223.496 173.695 197.02 175.103 195.611C176.511 194.203 195.054 192.794 198.105 193.733C201.156 194.672 191.064 270.954 190.125 272.127C189.186 273.3 145.295 277.995 144.825 275.413C144.356 272.832 154.631 246.75 157.492 239.951Z" fill="#4C4A58"/>
<path d="M185.196 198.428C191.299 198.204 195.289 197.724 194.584 203.592C193.88 209.46 189.186 250.3 187.073 252.412C184.961 254.525 157.264 255.229 157.968 252.412C158.672 249.596 176.276 200.306 177.919 199.836C179.563 199.367 182.376 198.532 185.196 198.428Z" fill="#292331"/>
<path d="M169.001 258.045C177.444 257.472 186.299 256.111 186.373 258.045C186.518 261.8 186.142 266.491 184.734 267.195C183.326 267.899 153.029 271.658 153.029 269.781C153.029 267.903 156.534 259.454 157.956 259.219C159.377 258.984 165.499 258.283 169.001 258.045Z" fill="#292331"/>
<path d="M158.511 223.741C158.511 223.741 157.191 224.431 155.041 225.351C151.951 226.661 147.131 228.441 141.981 229.301C134.231 230.591 128.871 231.771 126.581 231.101C126.931 225.881 128.441 217.631 129.311 210.751C129.421 209.971 129.511 209.211 129.581 208.471C129.591 208.441 129.591 208.431 129.591 208.431C130.591 210.821 132.271 213.871 134.451 214.491C138.151 215.551 145.691 212.381 157.321 214.491C157.321 214.491 158.641 220.841 158.511 223.741Z" fill="#FFC639"/>
<path opacity="0.44" d="M158.511 223.741C158.511 223.741 157.191 224.431 155.041 225.351C154.681 223.621 154.501 221.321 153.031 219.861C150.411 217.271 144.651 217.951 135.961 217.041C130.391 216.461 129.351 213.091 129.311 210.751C129.291 209.591 129.521 208.681 129.581 208.471C129.591 208.441 129.591 208.431 129.591 208.431C130.591 210.821 132.271 213.871 134.451 214.491C138.151 215.551 145.691 212.381 157.321 214.491C157.321 214.491 158.641 220.841 158.511 223.741Z" fill="#FFE6AE"/>
<path d="M124.401 244.101C124.401 244.101 124.141 244.291 123.741 244.671C122.821 245.551 121.171 247.411 120.371 250.151H120.361C120.081 251.111 119.911 252.181 119.911 253.351C119.911 253.351 111.181 249.261 106.551 248.071C101.931 246.881 88.971 241.591 86.331 238.811C83.681 236.041 78.661 215.811 76.411 208.411C74.171 201.001 70.611 184.071 81.831 180.511C83.281 180.051 84.891 180.381 86.431 181.351C86.431 181.361 86.431 181.361 86.431 181.361C87.251 181.881 88.051 182.591 88.801 183.471C89.031 183.721 89.241 183.991 89.451 184.281C91.731 187.341 93.411 192.021 93.471 197.701C93.601 209.071 94.151 226.391 95.261 227.711C96.381 229.031 108.011 234.711 114.751 238.021C121.491 241.321 124.141 242.911 124.401 244.101Z" fill="#FFC639"/>
<path opacity="0.24" d="M120.361 250.151C120.081 251.111 119.911 252.181 119.911 253.351C119.911 253.351 111.181 249.261 106.551 248.071C101.931 246.881 88.971 241.591 86.331 238.811C83.681 236.041 78.661 215.811 76.411 208.411C74.171 201.001 70.611 184.071 81.831 180.511C83.281 180.051 84.891 180.381 86.431 181.351C86.431 181.361 86.431 181.361 86.431 181.361C86.441 181.371 86.441 181.381 86.441 181.381C86.441 181.381 78.681 179.451 79.791 196.951C80.901 214.451 87.831 231.791 89.371 235.241C90.901 238.701 115.361 247.971 120.361 250.151Z" fill="#601506"/>
<path d="M119.909 253.355C119.909 253.355 125.354 246.181 124.402 244.101C123.451 242.021 117.034 249.283 119.909 253.355Z" fill="#AF740B"/>
<path d="M120.368 250.147C120.368 250.147 120.608 250.31 121.844 250.572C123.08 250.834 123.237 251.871 125.344 252.316C127.451 252.76 129.969 253.057 132.413 253.057C134.857 253.057 135.302 253.724 135.45 254.02C135.598 254.316 136.561 255.575 136.857 256.242C136.857 256.242 136.857 257.722 137.598 257.982C138.339 258.242 139.005 257.946 139.079 257.353C139.153 256.76 139.079 256.39 139.079 256.39C139.079 256.39 139.968 256.316 140.19 255.797C140.412 255.278 140.19 253.354 140.19 253.354C140.19 253.354 140.783 253.426 140.931 252.908C141.079 252.39 140.635 251.275 140.635 251.275C140.635 251.275 141.362 249.797 140.961 248.908C140.56 248.019 139.375 246.982 138.783 246.464C138.19 245.946 137.376 245.057 137.079 245.057C136.783 245.057 135.079 245.057 134.116 245.353C133.153 245.649 128.667 245.131 127.54 245.353C126.413 245.575 123.37 245.018 123.077 245.353C122.784 245.689 120.026 247.015 120.368 250.147Z" fill="#F79B5C"/>
<path d="M157.32 214.488C157.32 214.488 162.559 212.244 165.67 211.059C168.781 209.874 170.484 209.874 171.818 209.874C173.151 209.874 175.595 212.392 175.744 212.837C175.892 213.282 175.744 214.488 175.744 214.488C175.744 214.488 176.855 215.578 177.522 216.466C178.189 217.355 178.633 220.021 178.633 220.021C178.633 220.021 178.707 220.762 179.374 221.206C180.041 221.65 179.3 222.835 177.967 222.465C176.634 222.095 174.115 218.613 172.041 217.947C169.967 217.28 167.597 218.338 167.597 218.338C167.597 218.338 169.078 218.688 170.56 218.836C172.041 218.984 172.115 220.169 171.967 220.762C171.819 221.355 170.458 221.651 168.472 221.651C166.486 221.651 164.19 221.947 162.264 221.577C160.338 221.207 159.073 220.985 158.52 221.355C157.967 221.726 156.081 215.473 157.32 214.488Z" fill="#F79B5C"/>
<path opacity="0.44" d="M124.401 244.101C124.401 244.101 124.141 244.291 123.741 244.671C116.061 239.341 100.881 234.051 95.621 231.291C89.601 228.141 90.401 219.951 91.151 205.401C91.881 191.251 88.891 183.801 88.731 183.401C88.751 183.411 88.771 183.441 88.801 183.471C88.901 183.611 89.121 183.881 89.451 184.281C91.731 187.341 93.411 192.021 93.471 197.701C93.601 209.071 94.151 226.391 95.261 227.711C96.381 229.031 108.011 234.711 114.751 238.021C121.491 241.321 124.141 242.911 124.401 244.101Z" fill="#FFE6AE"/>
<path d="M287.702 94.6483C293.995 54.9605 266.923 17.6861 227.235 11.3936C187.547 5.10109 150.273 32.1733 143.98 71.8611C137.688 111.549 164.76 148.823 204.448 155.116C244.136 161.408 281.41 134.336 287.702 94.6483Z" fill="#D5EFEC"/>
<path d="M195.881 153.261C195.451 145.561 195.051 129.301 198.551 120.821C198.611 120.681 198.661 120.551 198.721 120.421L197.681 119.621L193.761 116.571C193.761 116.571 193.461 116.941 193.031 117.881C192.821 118.321 192.581 118.891 192.321 119.601C190.841 123.781 188.861 132.981 189.871 151.251C190.661 151.561 191.461 151.851 192.271 152.131C192.931 152.351 193.601 152.571 194.281 152.781L195.881 153.261Z" fill="#F79B5C"/>
<path opacity="0.15" d="M195.881 153.261C195.451 145.561 195.051 129.301 198.551 120.821C198.611 120.681 198.661 120.551 198.721 120.421L197.681 119.621L193.761 116.571C193.761 116.571 193.461 116.941 193.031 117.881C192.821 118.321 192.581 118.891 192.321 119.601C192.991 120.171 193.731 120.791 194.161 121.081C194.881 121.571 191.851 140.071 192.271 152.131C192.931 152.351 193.601 152.571 194.281 152.781L195.881 153.261Z" fill="#601506"/>
<path d="M211.711 101.918C211.711 101.918 203.741 118.488 201.001 118.358C200.941 118.358 200.881 118.348 200.821 118.338C198.231 118.128 194.451 115.638 193.841 114.548C193.811 114.488 193.781 114.428 193.771 114.378C193.731 114.218 193.781 113.958 193.911 113.628C194.561 111.928 197.271 108.238 200.501 104.868C202.141 103.158 204.411 102.368 206.481 102.028C209.281 101.568 211.711 101.918 211.711 101.918Z" fill="#D34C09"/>
<path d="M200.821 118.338C200.781 120.318 199.151 121.078 199.151 121.078C195.821 119.638 193.911 118.618 192.871 117.758C191.821 116.908 191.651 116.208 191.781 115.428C192.031 113.858 193.761 113.498 193.761 113.498C193.811 113.538 193.861 113.588 193.911 113.628C194.271 113.938 194.631 114.228 194.991 114.488C197.861 116.568 200.691 117.208 200.721 117.348C200.801 117.708 200.831 118.038 200.821 118.338Z" fill="#A33404"/>
<path d="M245.211 126.351C245.141 126.671 245.061 126.991 244.981 127.311C244.891 127.681 244.801 128.061 244.701 128.441C244.531 129.121 244.351 129.801 244.171 130.491V130.501C243.711 132.211 243.231 133.931 242.731 135.631C241.921 138.351 241.051 141.011 240.171 143.491C239.911 144.231 239.641 144.961 239.381 145.661C239.351 145.741 239.321 145.821 239.291 145.901C239.091 146.431 238.891 146.951 238.701 147.451C238.471 148.041 238.241 148.601 238.011 149.141C237.781 149.691 237.561 150.211 237.341 150.711C237.341 150.721 237.331 150.731 237.321 150.741C237.191 151.031 237.071 151.311 236.941 151.591C236.681 152.141 236.431 152.661 236.191 153.141C231.081 154.631 225.741 155.571 220.231 155.901C218.781 155.991 217.311 156.031 215.841 156.031C208.921 156.031 202.221 155.061 195.881 153.261L194.281 152.781C194.191 146.011 194.241 132.121 195.981 124.671C196.321 123.221 196.811 121.751 197.401 120.301C197.481 120.071 197.581 119.841 197.681 119.621C197.951 118.981 198.241 118.351 198.541 117.731C198.711 117.381 198.881 117.041 199.061 116.701C202.771 109.511 208.161 103.411 209.441 102.491C209.811 102.221 210.171 102.001 210.531 101.821H210.561C211.241 101.471 211.881 101.261 212.611 101.151C212.821 101.111 213.031 101.091 213.251 101.071C213.531 101.041 213.821 101.031 214.121 101.031C214.381 101.031 214.641 101.031 214.921 101.041C215.161 101.051 215.511 101.051 215.961 101.051C216.321 101.061 216.751 101.061 217.221 101.061H217.541C218.821 101.051 220.401 101.041 222.001 101.031C222.011 101.031 222.011 101.031 222.021 101.031C222.351 101.031 222.691 101.021 223.021 101.021C224.291 101.001 225.531 100.991 226.621 100.971C226.991 100.961 227.341 100.961 227.671 100.961C229.101 100.931 230.061 100.921 230.061 100.921C230.061 100.921 239.381 102.171 245.091 105.451C245.521 105.701 245.931 105.961 246.321 106.231C248.561 107.801 247.541 116.531 245.211 126.351Z" fill="#E75F11"/>
<path opacity="0.17" d="M245.211 126.351C245.141 126.671 245.061 126.991 244.981 127.311C244.891 127.681 244.801 128.061 244.701 128.441C244.531 129.121 244.351 129.801 244.171 130.491V130.501C243.711 132.211 243.231 133.931 242.731 135.631C241.921 138.351 241.051 141.011 240.171 143.491C239.911 144.231 239.641 144.961 239.381 145.661C239.351 145.741 239.321 145.821 239.291 145.901C239.091 146.431 238.891 146.951 238.701 147.451C238.471 148.041 238.241 148.601 238.011 149.141C237.781 149.691 237.561 150.211 237.341 150.711C237.341 150.721 237.331 150.731 237.321 150.741C237.191 151.031 237.071 151.311 236.941 151.591C236.681 152.141 236.431 152.661 236.191 153.141C231.081 154.631 225.741 155.571 220.231 155.901C221.231 154.691 221.531 153.521 220.911 152.751C219.091 150.471 217.401 134.861 215.851 128.681C214.581 123.641 213.111 107.071 212.611 101.151C212.821 101.111 213.031 101.091 213.251 101.071C213.531 101.041 213.821 101.031 214.121 101.031C214.381 101.031 214.641 101.031 214.921 101.041C215.161 101.051 215.511 101.051 215.961 101.051C216.321 101.061 216.751 101.061 217.221 101.061H217.541C218.821 101.051 220.401 101.041 222.001 101.031C222.011 101.031 222.011 101.031 222.021 101.031C222.401 101.121 222.751 101.211 223.071 101.301C223.771 101.491 224.301 101.651 224.571 101.791C224.921 101.971 225.321 102.811 225.731 104.061C227.131 108.251 228.781 117.061 230.061 121.081C231.721 126.311 232.401 124.521 234.181 122.521C235.961 120.521 233.571 118.361 234.181 113.861C234.791 109.361 240.981 108.601 235.111 105.551C231.791 103.821 229.651 102.851 228.421 102.331C227.481 101.931 227.071 101.791 227.071 101.791C227.251 101.511 227.451 101.231 227.671 100.961C229.101 100.931 230.061 100.921 230.061 100.921C230.061 100.921 239.381 102.171 245.091 105.451C245.521 105.701 245.931 105.961 246.321 106.231C248.561 107.801 247.541 116.531 245.211 126.351Z" fill="#601506"/>
<path d="M230.061 100.918C225.781 105.078 220.471 106.348 218.071 105.078C215.681 103.808 214.921 101.038 214.921 101.038C216.071 100.458 217.461 99.5383 217.921 95.2583C218.391 90.9783 218.041 86.3583 213.071 88.7883C208.231 91.1583 199.331 89.3483 197.381 87.5383C197.331 87.4983 197.281 87.4483 197.241 87.3983C196.511 86.5583 195.651 85.0083 194.841 83.3483C193.851 81.3183 192.951 79.1383 192.501 77.9283C192.361 77.5483 192.251 77.0283 192.171 76.4083C191.871 74.4083 191.821 71.3683 191.851 68.6583C191.861 67.7183 191.871 66.8183 191.891 66.0183C191.901 65.6483 191.911 65.3083 191.921 64.9883C191.921 64.8683 191.931 64.7483 191.931 64.6283C191.931 63.4383 191.731 62.1583 191.461 60.9583C191.281 60.1183 191.061 59.3183 190.851 58.6083C190.441 57.2283 190.081 56.2183 190.081 55.9683C190.081 55.7583 190.211 55.4583 190.461 55.0583V55.0483C190.881 54.3683 191.611 53.4083 192.621 52.0383C192.661 51.9783 192.711 51.9183 192.751 51.8483C193.261 51.1083 193.671 50.1383 193.991 49.1783C194.051 48.9983 194.111 48.8183 194.161 48.6483C194.691 46.9083 194.931 45.3383 194.931 45.3383C199.321 39.2183 218.731 39.5683 224.161 43.3783C229.591 47.1883 226.471 71.1083 225.781 76.1883C225.091 81.2783 226.821 99.4183 227.741 99.7683C228.671 100.108 230.061 100.918 230.061 100.918Z" fill="#F79B5C"/>
<path opacity="0.36" d="M198.721 86.9283C198.721 86.9283 197.961 87.0283 197.381 87.5383C197.331 87.4983 197.281 87.4483 197.241 87.3983C196.511 86.5583 195.651 85.0083 194.841 83.3483C193.851 81.3183 192.951 79.1383 192.501 77.9283C192.361 77.5483 192.251 77.0283 192.171 76.4083C191.871 74.4083 191.821 71.3683 191.851 68.6583C191.861 67.7183 191.871 66.8183 191.891 66.0183C191.901 65.6483 191.911 65.3083 191.921 64.9883C191.921 64.8683 191.931 64.7483 191.931 64.6283C191.931 63.4383 191.731 62.1583 191.461 60.9583C191.281 60.1183 191.061 59.3183 190.851 58.6083C190.441 57.2283 190.081 56.2183 190.081 55.9683C190.081 55.7583 190.211 55.4583 190.461 55.0583V55.0483C190.881 54.3683 191.611 53.4083 192.621 52.0383C192.661 51.9783 192.711 51.9183 192.751 51.8483C193.261 51.1083 193.671 50.1383 193.991 49.1783C194.491 49.6883 194.991 49.6983 193.761 52.4283C191.901 56.5183 192.381 57.3583 193.451 63.2283C194.521 69.0983 193.151 71.8283 194.161 76.4383C195.171 81.0483 198.721 86.9283 198.721 86.9283Z" fill="#FFD878"/>
<path opacity="0.24" d="M230.061 100.918C225.781 105.078 220.471 106.348 218.071 105.078C215.681 103.808 214.921 101.038 214.921 101.038C216.071 100.458 217.461 99.5383 217.921 95.2583C218.391 90.9783 218.041 86.3583 213.071 88.7883C208.101 91.2183 198.861 89.2483 197.241 87.3983C196.511 86.5583 195.651 85.0083 194.841 83.3483C208.721 86.3283 217.161 73.3583 217.521 68.0083C217.901 62.5883 217.021 48.8083 210.941 49.8083C204.851 50.8083 205.521 48.2483 205.521 48.2483C205.521 48.2483 203.401 46.4383 200.221 46.6883C198.421 46.8283 195.951 47.8183 194.161 48.6483C194.691 46.9083 194.931 45.3383 194.931 45.3383C199.321 39.2183 218.731 39.5683 224.161 43.3783C229.591 47.1883 226.471 71.1083 225.781 76.1883C225.091 81.2783 226.821 99.4183 227.741 99.7683C228.671 100.108 230.061 100.918 230.061 100.918Z" fill="#601506"/>
<path d="M191.891 66.0183C191.891 65.8883 191.901 65.7583 191.901 65.6383C191.911 65.4083 191.911 65.1983 191.921 64.9883C191.921 64.8683 191.931 64.7483 191.931 64.6283C191.931 63.4383 191.731 62.1583 191.461 60.9583C191.391 60.6183 191.311 60.2783 191.231 59.9583C191.111 59.5083 190.991 59.0683 190.871 58.6683C190.861 58.6483 190.861 58.6283 190.851 58.6083C191.172 57.8243 191.776 57.4583 193.133 57.6883C193.133 57.6883 197.311 58.1583 197.751 63.1983C198.121 67.4783 193.811 67.1883 191.891 66.0183Z" fill="#FFEDD2"/>
<path d="M192.941 65.8983C192.821 65.8083 192.421 65.7283 191.901 65.6383C191.911 65.4083 191.911 65.1983 191.921 64.9883C191.921 64.8683 191.931 64.7483 191.931 64.6283C191.931 63.4383 191.731 62.1583 191.461 60.9583C191.491 60.5983 191.391 60.2583 191.231 59.9583C191.111 59.5083 190.991 59.0683 190.871 58.6683C192.301 58.7183 195.171 59.2383 195.381 62.5083C195.611 65.9283 192.941 65.8983 192.941 65.8983Z" fill="#53190B"/>
<path d="M213.781 67.8583C213.031 67.9483 212.341 68.0083 211.741 68.0183C207.721 68.0583 206.701 66.1983 206.791 63.3583C206.831 62.1783 207.491 60.9683 208.551 60.0283C210.441 58.3183 213.611 57.4483 216.811 59.0883C221.811 61.6483 220.531 66.9783 213.781 67.8583Z" fill="#FFEDD2"/>
<path d="M211.741 68.0183C207.721 68.0583 206.701 66.1983 206.791 63.3583C206.831 62.1783 207.491 60.9683 208.551 60.0283C210.521 59.1383 213.261 60.2483 214.111 63.2883C215.111 66.8083 212.421 67.8183 211.741 68.0183Z" fill="#53190B"/>
<path d="M207.131 84.1983H207.121C206.591 84.3683 205.981 84.5083 205.291 84.6083C201.811 85.1283 198.741 84.2383 196.881 82.9583C195.391 81.9283 194.671 80.6583 195.131 79.6583C195.491 78.9083 195.911 78.6383 196.471 78.6183C197.581 78.5883 199.231 79.5183 201.981 79.5183C205.651 79.5183 206.741 77.4283 208.801 78.6283C209.091 78.7983 209.351 79.0183 209.581 79.2783V79.2883C210.751 80.6583 210.711 83.0683 207.131 84.1983Z" fill="#8E1717"/>
<path d="M207.131 84.1983H207.121C206.591 84.3683 205.981 84.5083 205.291 84.6083C201.811 85.1283 198.741 84.2383 196.881 82.9583C199.141 80.2283 201.361 82.6683 201.361 82.6683C205.701 80.9683 207.131 84.1983 207.131 84.1983Z" fill="#F29196"/>
<path d="M209.581 79.2783V79.2883C209.581 79.2883 206.561 81.8083 201.171 81.3583C195.781 80.9083 195.421 80.0083 196.461 78.6283L196.471 78.6183C197.581 78.5883 199.231 79.5183 201.981 79.5183C205.651 79.5183 206.741 77.4283 208.801 78.6283C209.091 78.7983 209.351 79.0183 209.581 79.2783Z" fill="white"/>
<g opacity="0.34">
<path d="M209.579 73.2703C209.324 75.8963 211.247 78.2323 213.873 78.4873C216.499 78.7423 218.835 76.8193 219.09 74.1933C219.345 71.5673 217.422 69.2313 214.796 68.9763C212.169 68.7213 209.834 70.6443 209.579 73.2703Z" fill="#FF3B3B"/>
<path d="M196.491 72.8883C196.291 75.0483 194.371 76.6283 192.211 76.4183C192.201 76.4183 192.181 76.4183 192.171 76.4083C191.871 74.4083 191.821 71.3683 191.851 68.6583C192.211 68.5883 192.591 68.5683 192.971 68.6083C195.121 68.8083 196.701 70.7283 196.491 72.8883Z" fill="#FF3B3B"/>
</g>
<path opacity="0.54" d="M200.631 70.7983C197.841 71.5783 196.651 70.0083 196.931 69.0383C197.031 68.6483 197.381 68.3583 197.951 68.3483C199.681 68.3183 200.051 66.4683 200.131 65.9483C200.141 65.8583 200.141 65.8083 200.141 65.8083C200.141 65.8083 201.341 64.5183 201.811 66.9583C202.271 69.3983 200.631 70.7983 200.631 70.7983Z" fill="#FF3B3B"/>
<path d="M207.313 55.4303C206.224 52.5283 215.845 50.6593 218.874 54.9773C218.874 54.9773 220.07 55.9713 218.756 56.1923C217.442 56.4133 216.044 54.6703 211.777 55.1673C207.902 55.6173 207.774 56.6593 207.313 55.4303Z" fill="#53190B"/>
<path d="M200.141 54.6783C199.681 55.9083 199.551 54.8683 195.681 54.4183C193.091 54.1183 191.561 54.6383 190.461 55.0483C190.881 54.3683 191.611 53.4083 192.621 52.0383C192.661 51.9783 192.711 51.9183 192.751 51.8483C196.521 51.1583 200.891 52.6683 200.141 54.6783Z" fill="#53190B"/>
<path d="M243.811 40.1383C243.921 44.9083 240.041 66.6983 229.521 78.5083C229.321 78.7383 229.111 78.9683 228.901 79.1983C228.901 79.1983 228.481 79.2383 227.731 78.5883C227.221 78.1683 226.571 77.4383 225.781 76.1883C224.031 73.4083 221.731 73.2683 222.881 66.9483C223.021 66.1783 223.221 65.3083 223.471 64.3283C225.781 55.3983 223.351 47.1883 222.311 45.8083C221.561 44.7983 220.801 44.0983 219.131 44.3583C219.121 44.3583 219.121 44.3683 219.111 44.3683C218.481 44.4683 217.711 44.6983 216.771 45.1083C213.811 46.3883 212.201 47.9183 209.571 47.6283H209.561C209.111 47.5783 208.621 47.4783 208.101 47.3083C208.101 47.3083 210.301 46.6083 210.871 44.6483C210.871 44.6483 206.011 46.3483 201.981 44.6483C199.661 43.6683 196.081 45.7283 193.451 47.6483V47.6583C191.501 49.0783 190.081 50.4283 190.081 50.4283C190.081 50.4283 191.121 45.3383 195.511 42.4483C195.511 42.4483 188.231 40.4883 187.881 31.4783C187.881 31.4783 191.921 35.5183 196.661 33.6683C196.661 33.6683 193.081 28.7983 193.451 23.7383C193.451 23.7383 193.451 23.7283 193.451 23.7183C193.541 22.5083 193.861 21.2983 194.511 20.1283C194.951 19.3383 195.541 18.5583 196.321 17.8383C196.321 17.8383 195.741 26.3883 202.901 26.6183C209.171 26.8283 215.001 28.1783 216.351 28.5183C215.301 28.2383 211.851 27.0183 210.101 22.8483C210.461 23.2983 213.631 27.0683 218.851 26.7383C223.721 26.4283 226.991 30.2283 227.721 31.1583C227.221 30.3783 225.451 27.3683 226.241 24.8883C226.241 24.8883 229.711 31.3583 235.021 32.5183C240.341 33.6683 243.691 35.2883 243.811 40.1383Z" fill="#8D3714"/>
<path opacity="0.3" d="M243.811 40.1383C243.921 44.9083 240.041 66.6983 229.521 78.5083C228.921 78.5483 228.321 78.5783 227.731 78.5883C227.221 78.1683 226.571 77.4383 225.781 76.1883C224.031 73.4083 221.731 73.2683 222.881 66.9483C225.151 64.7983 227.301 62.7883 227.611 58.6683C228.201 50.9083 226.901 39.8283 219.131 44.3583C219.121 44.3583 219.121 44.3683 219.111 44.3683C218.481 44.4683 217.711 44.6983 216.771 45.1083C213.811 46.3883 212.201 47.9183 209.571 47.6283C212.211 47.0683 211.521 45.9383 214.601 44.7583C217.681 43.5883 217.781 42.3083 217.521 38.6883C217.281 35.0683 213.521 34.5683 202.001 31.6883C195.851 30.1483 193.861 26.7183 193.451 23.7383C193.451 23.7383 193.451 23.7283 193.451 23.7183C193.601 21.6883 194.401 19.6283 196.321 17.8383C196.321 17.8383 195.741 26.3883 202.901 26.6183C209.171 26.8283 215.001 28.1783 216.351 28.5183C215.301 28.2383 211.851 27.0183 210.101 22.8483C210.461 23.2983 213.631 27.0683 218.851 26.7383C223.721 26.4283 226.991 30.2283 227.721 31.1583C227.221 30.3783 225.451 27.3683 226.241 24.8883C226.241 24.8883 229.711 31.3583 235.021 32.5183C240.341 33.6683 243.691 35.2883 243.811 40.1383Z" fill="#490E05"/>
<path d="M223.008 68.3363C223.008 68.3363 226.128 63.0213 228.901 64.6383C231.674 66.2553 231.559 70.9933 228.901 73.8823C226.243 76.7713 223.008 77.1173 223.008 77.1173C223.008 77.1173 219.426 76.0783 223.008 68.3363Z" fill="#F79B5C"/>
<path d="M228.901 79.1973C228.901 79.1973 225.392 80.2713 225.869 86.0093C225.869 86.0093 224.51 81.0463 225.781 76.1933C225.781 76.1933 228.208 79.0823 228.901 79.1973Z" stroke="black" stroke-width="0.4161" stroke-miterlimit="10"/>
<path d="M227.071 75.4683C227.071 75.4683 226.671 79.7783 225.661 81.6683C224.641 83.5483 222.431 86.5383 221.421 88.5383C220.401 90.5283 216.361 93.0183 214.331 93.6483C212.511 94.2083 201.401 92.1283 197.771 91.7183C197.381 91.6683 197.081 91.6483 196.881 91.6483C194.861 91.6483 194.151 86.2483 195.511 84.5983L196.511 86.4083C196.511 86.4083 197.331 86.6783 198.721 86.9283C203.511 87.7983 215.021 88.4583 222.271 77.1183L227.071 75.4683Z" fill="#8D3714"/>
<path opacity="0.22" d="M197.771 91.7183C197.381 91.6683 197.081 91.6483 196.881 91.6483C194.861 91.6483 194.151 86.2483 195.511 84.5983L196.511 86.4083C196.511 86.4083 197.331 86.6783 198.721 86.9283C198.721 86.9283 194.981 87.4183 197.771 91.7183Z" fill="#FFC612"/>
<path d="M252.801 117.318C252.471 122.258 251.091 126.378 250.191 128.608C249.731 129.758 249.391 130.398 249.391 130.398C249.391 130.398 247.521 129.328 244.701 128.438C244.531 128.378 244.361 128.328 244.181 128.278C241.801 127.568 238.821 127.028 235.731 127.338H235.721C235.521 127.358 235.321 127.378 235.111 127.408C235.111 127.408 235.531 126.548 236.021 125.358C236.761 123.578 237.671 121.048 237.601 119.558C237.471 117.068 237.851 114.948 239.341 111.838C239.851 110.788 240.371 109.628 240.971 108.598H240.981C241.811 107.178 242.791 105.988 244.101 105.588C244.411 105.498 244.741 105.448 245.091 105.448C245.361 105.448 245.651 105.478 245.951 105.548C248.851 106.218 253.301 109.838 252.801 117.318Z" fill="#D34C09"/>
<path d="M240.031 72.0483L227.091 89.1483C226.141 90.4083 224.371 90.6783 223.081 89.7683L219.371 87.1583C219.371 87.1583 219.341 87.1383 219.281 87.0983L219.131 86.9983C219.001 86.9083 218.841 86.7983 218.651 86.6483L215.841 84.6783C214.491 83.7183 214.201 81.8283 215.201 80.5183L228.171 63.4783C229.121 62.2383 230.891 61.9583 232.171 62.8583L233.191 63.5683L236.511 65.8883L236.521 65.8983L239.371 67.8883C240.731 68.8383 241.031 70.7283 240.031 72.0483Z" fill="#3B3843"/>
<path opacity="0.21" d="M233.191 63.5683C230.201 62.0983 229.481 63.5023 228.901 64.1423C228.151 64.9623 217.607 77.9983 216.367 81.0983C215.427 83.4283 217.381 85.6783 218.651 86.6483L215.841 84.6783C214.491 83.7183 214.201 81.8283 215.201 80.5183L228.171 63.4783C229.121 62.2383 230.891 61.9583 232.171 62.8583L233.191 63.5683Z" fill="#FFEDD2"/>
<path d="M248.561 131.898C247.221 134.488 241.231 143.558 237.161 148.688C235.931 150.228 234.881 151.408 234.181 151.958C231.131 154.318 229.131 153.448 226.761 152.578C224.391 151.708 223.021 151.578 221.771 146.848C220.531 142.108 214.301 104.608 214.171 101.738C214.051 98.8783 213.051 98.3783 212.551 96.3883C212.061 94.3883 213.301 91.7783 215.421 89.5283C217.541 87.2883 217.791 85.0483 217.661 83.5483C217.541 82.0583 216.541 80.5583 216.671 79.9383C216.791 79.3183 217.291 78.4383 218.661 79.1883C220.031 79.9383 220.281 84.5483 220.651 84.0483C221.031 83.5483 221.901 80.9383 221.901 79.1883C221.901 77.4483 221.771 76.6983 220.531 75.8283C219.281 74.9583 219.531 73.9583 220.531 73.2783C221.481 72.6283 223.981 74.4883 224.251 74.6883C224.141 74.5683 223.661 73.9883 224.181 73.5883C224.301 73.4883 224.491 73.4083 224.761 73.3383C226.261 72.9583 227.881 74.4583 227.881 74.4583C228.131 73.5883 229.131 74.0783 229.751 74.4583C230.371 74.8283 231.121 76.6983 232.241 79.0683C233.361 81.4383 233.111 83.4283 232.121 85.1083C231.121 86.7883 223.771 98.2583 223.021 99.2483C222.271 100.248 225.391 110.468 227.071 116.298C228.751 122.138 232.611 133.518 232.611 133.518C233.611 130.278 234.181 129.528 234.181 129.528C240.231 123.168 250.311 128.528 248.561 131.898Z" fill="#F79B5C"/>
<path opacity="0.15" d="M248.561 131.898C247.221 134.488 241.231 143.558 237.161 148.688C234.141 149.228 231.281 148.918 230.061 146.858C227.891 143.188 218.231 106.188 217.401 100.188C216.571 94.1883 218.901 90.5183 222.901 84.5983C226.901 78.6783 224.271 74.7083 224.271 74.7083C224.231 74.3183 224.201 73.9483 224.181 73.5883C224.301 73.4883 224.491 73.4083 224.761 73.3383C226.261 72.9583 227.881 74.4583 227.881 74.4583C228.131 73.5883 229.131 74.0783 229.751 74.4583C230.371 74.8283 231.121 76.6983 232.241 79.0683C233.361 81.4383 233.111 83.4283 232.121 85.1083C231.121 86.7883 223.771 98.2583 223.021 99.2483C222.271 100.248 225.391 110.468 227.071 116.298C228.751 122.138 232.611 133.518 232.611 133.518C233.611 130.278 234.181 129.528 234.181 129.528C240.231 123.168 250.311 128.528 248.561 131.898Z" fill="#601506"/>
<path d="M250.651 130.078C250.501 130.498 250.291 131.008 250.011 131.458C249.691 131.968 249.041 132.158 248.481 131.948C247.511 131.578 245.841 130.968 244.171 130.498C243.951 130.428 243.721 130.368 243.501 130.308C242.721 130.108 241.961 129.938 241.301 129.858C239.751 129.668 237.961 129.518 236.581 129.408C236.171 129.378 235.801 129.348 235.491 129.328C234.771 129.278 234.191 128.688 234.181 127.958C234.171 127.368 234.271 126.658 234.641 126.018C234.871 125.628 235.301 125.398 235.751 125.368C235.831 125.368 235.921 125.358 236.021 125.358C236.391 125.338 236.851 125.328 237.401 125.328C239.251 125.328 241.991 125.498 244.791 126.238C244.931 126.268 245.071 126.308 245.211 126.348C246.931 126.848 248.661 127.568 250.191 128.608C250.661 128.928 250.841 129.538 250.651 130.078Z" fill="#A33404"/>
<path opacity="0.24" d="M200.631 70.7983C197.841 71.5783 196.651 70.0083 196.931 69.0383C198.011 69.3283 200.141 70.8883 200.821 68.5883C201.391 66.6983 200.731 66.1183 200.131 65.9483C200.141 65.8583 200.141 65.8083 200.141 65.8083C200.141 65.8083 201.341 64.5183 201.811 66.9583C202.271 69.3983 200.631 70.7983 200.631 70.7983Z" fill="#601506"/>
<path d="M208.424 63.2273C208.777 63.2273 209.063 62.9412 209.063 62.5883C209.063 62.2354 208.777 61.9493 208.424 61.9493C208.071 61.9493 207.785 62.2354 207.785 62.5883C207.785 62.9412 208.071 63.2273 208.424 63.2273Z" fill="white"/>
<path d="M192.882 61.0693C192.882 61.3373 192.665 61.5553 192.396 61.5553C192.128 61.5553 191.91 61.3383 191.91 61.0693C191.91 60.8013 192.127 60.5833 192.396 60.5833C192.665 60.5833 192.882 60.8013 192.882 61.0693Z" fill="white"/>
<path opacity="0.25" d="M244.101 105.588C246.411 110.238 247.091 118.168 244.791 126.238C244.601 126.898 244.401 127.568 244.181 128.278C243.971 128.928 243.741 129.608 243.501 130.308C244.151 130.468 244.781 130.648 245.411 130.868C245.591 130.918 245.761 130.978 245.941 131.038C245.961 131.048 245.991 131.058 246.011 131.068C246.991 131.398 247.871 131.718 248.481 131.948C249.041 132.158 249.691 131.968 250.011 131.458C250.291 131.008 250.501 130.498 250.651 130.078C250.841 129.538 250.661 128.928 250.191 128.608C251.091 126.378 252.471 122.258 252.801 117.318C253.301 109.838 248.851 106.218 245.951 105.548C245.651 105.478 245.361 105.448 245.091 105.448C245.081 105.448 245.081 105.448 245.071 105.448L244.101 105.588Z" fill="#601506"/>
<path opacity="0.29" d="M239.401 118.738C240.231 123.358 237.401 125.328 237.401 125.328C237.401 125.328 236.041 126.198 235.731 127.338H235.721C235.531 127.978 235.681 128.708 236.581 129.408C236.171 129.378 235.801 129.348 235.491 129.328C234.771 129.278 234.191 128.688 234.181 127.958C234.171 127.368 234.271 126.658 234.641 126.018C234.871 125.628 235.301 125.398 235.751 125.368C235.831 125.368 235.921 125.358 236.021 125.358C236.761 123.578 237.671 121.048 237.601 119.558C237.471 117.068 237.851 114.948 239.341 111.838C239.851 110.788 240.371 109.628 240.971 108.598H240.981C241.811 107.178 242.791 105.988 244.101 105.588C244.101 105.588 238.571 114.128 239.401 118.738Z" fill="#FFC612"/>
<path opacity="0.29" d="M206.481 102.028C204.921 103.298 197.551 109.438 194.991 114.488C194.991 114.488 194.411 114.308 193.841 114.548C193.231 114.828 192.641 115.628 192.871 117.758C191.821 116.908 191.651 116.208 191.781 115.428C192.031 113.858 193.761 113.498 193.761 113.498C193.811 113.538 193.861 113.588 193.911 113.628C194.561 111.928 197.271 108.238 200.501 104.868C202.141 103.158 204.411 102.368 206.481 102.028Z" fill="#FFC612"/>
<path opacity="0.22" d="M197.771 41.5183C197.771 41.5183 193.351 44.9583 193.451 47.6483V47.6583C191.501 49.0783 190.081 50.4283 190.081 50.4283C190.081 50.4283 191.121 45.3383 195.511 42.4483C195.511 42.4483 188.231 40.4883 187.881 31.4783C187.881 31.4783 191.921 35.5183 196.661 33.6683C196.661 33.6683 193.081 28.7983 193.451 23.7383C193.451 23.7383 193.451 23.7283 193.451 23.7183C193.541 22.5083 193.861 21.2983 194.511 20.1283C194.511 20.1283 194.041 29.3583 198.721 34.3583C198.721 34.3583 193.521 36.0183 190.461 35.8583C190.461 35.8583 194.141 41.1883 197.771 41.5183Z" fill="#FFC612"/>
<path opacity="0.22" d="M223.898 216.206C223.898 216.206 210.481 215.677 210.941 230.064C211.401 244.451 216.876 263.894 228.139 263.673C239.401 263.451 248.446 262.412 248.924 248.682C249.401 234.951 238.395 211.461 223.898 216.206Z" fill="#350703"/>
<path d="M218.674 216.49C220.638 215.825 223.661 215.305 227.825 215.939C229.285 216.161 230.5 217.189 230.947 218.596C232.904 224.756 238.389 242.569 240.108 253.981C240.44 256.187 238.788 258.198 236.561 258.326C233.528 258.501 229.285 258.844 225.661 259.504C223.564 259.886 221.571 258.457 221.238 256.352C220.029 248.718 217.438 231.953 216.153 220.547C215.952 218.775 216.983 217.062 218.674 216.49Z" fill="#3A3944"/>
<path d="M254.161 109.231C254.141 120.431 253.201 140.181 251.971 159.431C251.631 164.921 251.251 170.361 250.871 175.561C248.541 207.411 243.721 239.711 241.961 245.231C240.211 250.741 239.541 248.741 234.211 236.411C231.191 229.441 225.621 216.391 221.411 205.531C218.171 197.171 215.731 190.101 215.871 188.071C216.191 183.731 217.981 172.791 219.001 162.891C219.071 162.171 219.141 161.451 219.211 160.741C220.711 144.391 222.541 115.741 224.871 113.741C227.211 111.741 251.871 97.7413 253.541 100.071C253.981 100.691 254.171 104.041 254.161 109.231Z" fill="#4C4A58"/>
<path d="M253.541 100.074C253.541 100.074 258.208 99.7413 259.541 102.741C260.874 105.741 256.541 172.408 253.541 200.074C250.541 227.741 248.279 253.028 240.577 248.051C240.577 248.051 255.874 131.741 253.541 100.074Z" fill="#292331"/>
<path d="M244.013 248.135C244.013 248.135 254.207 244.408 262.874 186.074C271.541 127.741 259.541 102.741 259.541 102.741C259.541 102.741 255.486 191.862 244.013 248.135Z" fill="#4C4A58"/>
<path d="M222.624 155.657C223.731 141.665 225.874 120.157 227.124 118.657C228.374 117.157 248.374 107.657 248.874 109.407C249.374 111.157 245.874 149.657 245.124 170.907C244.374 192.157 238.874 229.657 237.624 231.657C236.374 233.657 220.624 191.907 219.374 188.407C218.124 184.907 222.05 162.922 222.624 155.657Z" fill="#9EE1E5"/>
<path d="M228.11 127.576L244.101 121.436L243.501 129.812L227.614 132.033L228.11 127.576Z" fill="#66A6BC"/>
<path d="M227.557 220.748C227.557 220.748 224.625 229.297 225.125 231.727C225.625 234.157 228.625 240.657 230.875 239.157C233.125 237.657 234.027 231.727 234.027 231.727L227.557 220.748Z" fill="#292331"/>
<path d="M226.973 137.815L235.111 136.966L226.973 196.49L221.416 185.971" fill="#66A6BC"/>
<path opacity="0.73" d="M230.061 198.313L235.858 214.035C235.858 214.035 244.005 150.898 242.453 137.188L237.156 137.958L230.061 198.313Z" fill="white"/>
<path opacity="0.19" d="M254.161 109.231C254.141 120.431 253.201 140.181 251.971 159.431L245.161 169.701L224.241 201.271L221.411 205.531C218.171 197.171 215.731 190.101 215.871 188.071C216.191 183.731 217.981 172.791 219.001 162.891L222.421 157.671V157.661L248.531 117.821L254.161 109.231Z" fill="white"/>
<path d="M174.591 301.141C174.541 301.261 174.481 301.381 174.421 301.491C173.081 303.861 168.531 304.991 163.471 304.651C163.101 304.631 162.731 304.601 162.361 304.561C158.691 304.161 154.851 303.011 151.831 301.021C146.201 297.301 150.191 290.951 156.501 288.761H156.511C158.131 288.201 159.901 287.921 161.701 288.021C162.191 288.051 162.691 288.101 163.181 288.191C163.531 288.251 163.871 288.331 164.221 288.421C169.641 289.881 172.851 292.291 174.261 294.951C174.571 295.511 174.801 296.091 174.941 296.671C175.321 298.171 175.181 299.701 174.591 301.141Z" fill="#4C4A58"/>
<path d="M163.47 304.648C163.1 304.628 162.73 304.598 162.36 304.558C165.26 299.748 165.45 295.928 164.71 293.128V293.118C164.66 292.948 164.61 292.778 164.56 292.618C163.84 290.358 162.53 288.818 161.7 288.018C162.19 288.048 162.69 288.098 163.18 288.188C163.96 289.138 164.86 290.498 165.43 292.258C165.54 292.578 165.63 292.918 165.72 293.268C166.4 296.168 166.16 299.988 163.47 304.648Z" fill="#292331"/>
<path d="M174.26 294.948C170.67 292.658 166.68 292.318 165.43 292.258C165.18 292.248 165.04 292.248 165.03 292.248C164.8 292.258 164.61 292.418 164.56 292.618C164.54 292.668 164.54 292.708 164.54 292.758C164.54 292.898 164.61 293.028 164.71 293.118V293.128C164.8 293.198 164.91 293.248 165.04 293.248H165.05C165.06 293.248 165.3 293.248 165.72 293.268C167.33 293.378 171.56 293.898 174.94 296.668L174.26 294.948Z" fill="#292331"/>
<path opacity="0.2" d="M174.421 301.491C173.081 303.861 168.531 304.991 163.471 304.651C163.101 304.631 162.731 304.601 162.361 304.561C158.691 304.161 154.851 303.011 151.831 301.021C146.201 297.301 150.191 290.951 156.501 288.761C155.061 290.311 154.761 292.821 159.121 296.671C163.141 300.231 169.101 301.341 174.421 301.491Z" fill="#010111"/>
<path d="M64.464 97.0613C69 92.0043 71.692 85.7093 71.692 78.8823C71.692 62.2083 55.643 48.6903 35.846 48.6903C16.049 48.6903 0 62.2073 0 78.8823C0 95.5563 16.049 109.074 35.846 109.074C41.729 109.074 47.276 107.873 52.174 105.757L69.297 113.512L64.464 97.0613Z" fill="#F78116"/>
<path d="M48.994 119.763C52.441 115.919 54.488 111.135 54.488 105.947C54.488 93.2743 42.291 83.0013 27.244 83.0013C12.198 83.0013 0 93.2743 0 105.947C0 118.62 12.197 128.893 27.244 128.893C31.715 128.893 35.931 127.98 39.654 126.372L52.667 132.266L48.994 119.763Z" fill="#FFD766"/>
<path d="M271.534 83.9793C266.998 78.9223 264.306 72.6273 264.306 65.8003C264.306 49.1263 280.355 35.6083 300.152 35.6083C319.949 35.6083 335.998 49.1253 335.998 65.8003C335.998 82.4743 319.949 95.9923 300.152 95.9923C294.269 95.9923 288.722 94.7913 283.824 92.6753L266.702 100.43L271.534 83.9793Z" fill="#F78116"/>
<path d="M256.223 56.8913C252.776 53.0473 250.729 48.2633 250.729 43.0753C250.729 30.4023 262.926 20.1293 277.973 20.1293C293.019 20.1293 305.217 30.4023 305.217 43.0753C305.217 55.7483 293.02 66.0213 277.973 66.0213C273.502 66.0213 269.286 65.1083 265.563 63.5003L252.55 69.3943L256.223 56.8913Z" fill="#FFD766"/>
</svg>
